<svg id="Слой_1" data-name="Слой 1" xmlns="http://www.w3.org/2000/svg" xmlns:xlink="http://www.w3.org/1999/xlink" viewBox="0 0 1140.01 373.09"><defs><style>.cls-1,.cls-28{fill:none;}.cls-2{fill:#c8f3f7;}.cls-3{fill:#a0ebf2;}.cls-4{fill:#4ea9da;}.cls-5{fill:#7ae1eb;}.cls-6{fill:#f2fcfb;}.cls-7{fill:url(#Безымянный_градиент);}.cls-8{fill:#1e3159;}.cls-9{fill:url(#Безымянный_градиент_2);}.cls-10{fill:#fff;}.cls-11{fill:#333332;}.cls-12{fill:#575756;}.cls-13{fill:#3c3c3b;}.cls-14{fill:url(#Безымянный_градиент_3);}.cls-15{fill:url(#Безымянный_градиент_4);}.cls-16{fill:#9d9d9c;}.cls-17{fill:#dadada;}.cls-18{fill:#b2b2b2;}.cls-19{fill:#ededed;}.cls-20{fill:#e87981;}.cls-21{fill:#ffa7a3;}.cls-22{fill:#30408c;}.cls-23{fill:#cc6a72;}.cls-24{fill:#d68d89;}.cls-25{fill:#febab5;}.cls-26{fill:#ff892b;}.cls-27{fill:#ffa65c;}.cls-28{stroke:#45c8da;stroke-miterlimit:10;stroke-width:2px;}</style><linearGradient id="Безымянный_градиент" x1="1006.17" y1="162.06" x2="-113.26" y2="162.06" gradientTransform="matrix(1, 0, 0, -1, 0, 420.93)" gradientUnits="userSpaceOnUse"><stop offset="0" stop-color="#6edbe6"/><stop offset="0.18" stop-color="#77dde8"/><stop offset="0.48" stop-color="#8fe4ec"/><stop offset="0.85" stop-color="#b7eef4"/><stop offset="1" stop-color="#c8f3f7"/></linearGradient><linearGradient id="Безымянный_градиент_2" x1="808.75" y1="297.41" x2="909.7" y2="472.26" gradientTransform="matrix(1, 0, 0, -1, 0, 420.93)" gradientUnits="userSpaceOnUse"><stop offset="0" stop-color="#ec6c35"/><stop offset="1" stop-color="#fa8f55"/></linearGradient><linearGradient id="Безымянный_градиент_3" x1="218.75" y1="-11.57" x2="218.75" y2="286.93" gradientTransform="matrix(1, 0, 0, -1, 0, 420.93)" gradientUnits="userSpaceOnUse"><stop offset="0" stop-color="#30408c"/><stop offset="0.19" stop-color="#31448f"/><stop offset="0.39" stop-color="#355198"/><stop offset="0.59" stop-color="#3b65a8"/><stop offset="0.79" stop-color="#4382bd"/><stop offset="0.99" stop-color="#4ea7d9"/><stop offset="1" stop-color="#4ea9da"/></linearGradient><linearGradient id="Безымянный_градиент_4" x1="450.96" y1="341.82" x2="264.64" y2="36.14" gradientTransform="matrix(1, 0, 0, -1, 0, 420.93)" gradientUnits="userSpaceOnUse"><stop offset="0" stop-color="#7ae1eb"/><stop offset="0.26" stop-color="#77ddea"/><stop offset="0.54" stop-color="#6dd0e6"/><stop offset="0.81" stop-color="#5dbce0"/><stop offset="1" stop-color="#4ea9da"/></linearGradient></defs><rect class="cls-1" width="1140" height="370.03"/><path class="cls-2" d="M688.83,97.66v55.51H674.48V130.26H613.85V248.45H744.6V97.66l-18.92-5-36.85,5Z" transform="translate(0 -0.47)"/><path class="cls-3" d="M744.6,248.45H725.68V92.7l18.92,5ZM674.48,130.26H661.07v22.91h13.41Z" transform="translate(0 -0.47)"/><path class="cls-4" d="M764,184.37H719.71l-13.43-20.46h44.29Z" transform="translate(0 -0.47)"/><path class="cls-5" d="M660.47,195.14H613.85L599.71,173.6h46.62l14.14,21.54Z" transform="translate(0 -0.47)"/><path class="cls-6" d="M660.46,195.14H613.85v40.15h46.61Z" transform="translate(0 -0.47)"/><path class="cls-2" d="M599.71,173.6l-14.13,21.54v40.15h28.27V195.14Z" transform="translate(0 -0.47)"/><path class="cls-6" d="M764,184.37H719.71v50.92H764Z" transform="translate(0 -0.47)"/><path class="cls-2" d="M1140,114h-46V248.44h46Zm-46,16.3h-37V248.45h37Zm-37-59.18H987.49V248.45H1057ZM880.29,248.45h16.26V114H880.29Z" transform="translate(0 -0.47)"/><path class="cls-6" d="M1016.31,147.71l-14.88,25.34v63.84h29.76V173.05l-14.88-25.34Z" transform="translate(0 -0.47)"/><path class="cls-2" d="M880.29,97.66H793.36V248.45h86.93ZM896.55,6.5l46.22-6,18.67,6v242H896.55V6.5Z" transform="translate(0 -0.47)"/><path class="cls-3" d="M961.44,248.45H942.77V.47l18.67,6v242Z" transform="translate(0 -0.47)"/><path class="cls-4" d="M893.83,150.08h36.09l15.57-20.68H909.4Zm186.43,23H1031.2l-14.89-25.34h49.07l14.88,25.34Z" transform="translate(0 -0.47)"/><path class="cls-7" d="M1140,359V184.79c-28-1.87-62.86,16.45-103.13,16.45-46.87,0-69.2-20-116-34.16-40-12.06-81.27-10.53-123.53,1.8-38.44,11.22-81.43,31.54-120.07,44.74-40.06,13.68-82.11,13.67-123.15,7.44S483.38,205,440.69,205c-30.88,0-55.07,4.45-75.09,10.71-19.8,6.19-38.81,15.41-58.75,21-40.59,11.39-77.42,7.59-118.39,1.26-41.89-6.46-79.82-20.47-130.46-20-25.4.24-49.43,5.45-58,8.21V359H1140Z" transform="translate(0 -0.47)"/><path class="cls-8" d="M836.83,144.73c25.23,0,45.68-2.24,45.68-5s-20.45-5-45.68-5-45.69,2.23-45.69,5,20.45,5,45.69,5Z" transform="translate(0 -0.47)"/><path class="cls-9" d="M806.92,100.65a39.5,39.5,0,1,1,59.81,0l-29.9,39.09-29.91-39.09Z" transform="translate(0 -0.47)"/><path class="cls-10" d="M852.91,91a22.75,22.75,0,1,0-32.17,0A22.75,22.75,0,0,0,852.91,91Z" transform="translate(0 -0.47)"/><path class="cls-6" d="M973.55,114h-42.9V236.89h42.9Z" transform="translate(0 -0.47)"/><path class="cls-2" d="M1001.43,114H973.55V236.89h27.88Z" transform="translate(0 -0.47)"/><path class="cls-10" d="M1128.91,233.53H924.77v3.36h204.14Z" transform="translate(0 -0.47)"/><path class="cls-2" d="M1029,251.25h50.13L1098,222.53h-50.13Z" transform="translate(0 -0.47)"/><path class="cls-6" d="M1029,311h50.13V251.25H1029Z" transform="translate(0 -0.47)"/><path class="cls-4" d="M1098,222.53l18.86,28.72V311h-37.71V251.25Z" transform="translate(0 -0.47)"/><path class="cls-8" d="M1140,197.39c-14.88,2.52-22.61,33-24.77,41.87-2.64,10.89-8,47.37-20,48.55-7.75.76-12.16-8.8-22.3-6.82-15.18,2.95-16,27.33-25.31,49-4.14,9.55-13.51,22.77-21.31,21.16-8.5-1.74-11.37-10.6-20.54-11.79-10.81-1.41-26.55,15.5-38.14,31.17h172c.1-.14.19-.28.29-.41V197.39Z" transform="translate(0 -0.47)"/><path class="cls-4" d="M950.5,236.89c2.09-2.29,3.74-6.53,1.23-9.6-2.15-2.62-9-2-11.4-4.56-2.08-2.19.69-8.27-1.76-12-2.15-3.25-7.92-2.19-16.68,2.17-4.63,2.3-7.86,4.76-12,3.85-2.81-.62-2.74-3.8-5.56-5.18-5.08-2.48-12.5,4.23-16.74,1.2s-.79-11-5.29-14.21c-5.3-3.83-14.17,2.37-17.93,6.32-4.85,5.1-6.82,11-11.62,15.56-6,5.66-9.66-1.47-15.87.37-3.39,1-5.44,6.91-9.19,6.13-2.77-.58-3.07-5.38-4.89-7.08-2.48-2.31-4.17-2-7.3-.58-3.81,1.68-15.64,11.1-15.84,17.57H950.5Zm59.32,0c1-3.23,1.34-10.67-2.11-12.73-4.11-2.46-11.34,5.3-16.84,5.86-4.92.5-7.7-3.13-12.56-1.69a31.84,31.84,0,0,0-13.8,8.56Z" transform="translate(0 -0.47)"/><path class="cls-6" d="M973.55,117.32h27.89V114H973.55Z" transform="translate(0 -0.47)"/><path class="cls-3" d="M1057,74.44h-23.26v55.82H1057Z" transform="translate(0 -0.47)"/><path class="cls-10" d="M744.07,359c-1.41-8.12-6.32-20.36-23.59-21.21-14.93-.73-41,9.38-50.94,6-10.17-3.43-7.64-14.74-17.43-21.31-8.45-5.68-32.35,2.63-35.12-1.84-2.42-3.9,6.19-12.09,5.36-17.87-2.1-14.64-24-6.52-34.14-1.25-6.6,3.45-13.94,8.31-21.72,8.94-8.17.67-15.36-4.05-19.68-5.74-17-6.68-33.45,2.74-46.32,10.12-16.83,9.64-35.23,16.54-55.63,14.69-10.62-1-31.55-4-44.38-2.46-24.8,3.05-46.87,21.91-54,31.9ZM709,234V234h0A.06.06,0,0,0,709,234Z" transform="translate(0 -0.47)"/><path class="cls-10" d="M937.36,287c-14.65-3-65.76-12.6-95.59-18-30.14-5.42-74.15-14.16-86.61-17.5-26.56-7.12-44-11.57-44-17.92,0-6.19,16-11.1,20.46-12.81,10.11-3.86,20.45-7,30.8-10,18.61-5.34,49.71-13.39,68.3-18.74,7.89-2.27,22.3-7,31.1-11.32,7.84-3.87,10.56-7.34,10.56-10.12,0-4.69-6.61-6.78-11.25-7.87a178.65,178.65,0,0,0-19.47-2.81c-3,.32-5.63.6-8.7,1.08,6.1.62,13.65,1.88,18,2.63s15.93,3,15.93,6.57c0,4.15-15.58,9.51-23.14,12.1s-20.1,5.81-37.29,10.27c-21.47,5.57-46.58,12-53.09,13.85-14.58,4.15-55.46,13.84-55.46,27.13,0,11.32,17.08,17.43,38,23.78a647.64,647.64,0,0,0,66.69,16.07c24.82,4.78,52.88,9.39,85.39,15.47,16.16,3,79.1,12.69,79.35,25.68.23,12.18-60.14,24.37-88,30C847.79,350.9,797.14,359,729.49,359,562.42,359,134,359,0,359v11.56H774.89c49,0,101.21-6.68,127.15-11.55,2.64-.49,5.26-1,7.88-1.59,27.66-6.16,79.93-23.33,79.93-43.66,0-13.78-33.1-22.76-52.49-26.78ZM976,314.18a.25.25,0,0,1,0-.12Z" transform="translate(0 -0.47)"/><path class="cls-11" d="M414,306.35c-17.71,0-33.39,14.36-35,32.08s11.43,32.07,29.14,32.07h16.38l5.87-64.15Z" transform="translate(0 -0.47)"/><path class="cls-11" d="M448.66,360.58c13.41-12.81,14.8-33.11,3.11-45.35s-32-11.77-45.44,1-14.8,33.11-3.11,45.35S435.25,373.39,448.66,360.58Z" transform="translate(0 -0.47)"/><path class="cls-12" d="M441,352.61c8.58-8.2,9.47-21.19,2-29s-20.5-7.53-29.08.67-9.47,21.19-2,29S432.46,360.8,441,352.61Z" transform="translate(0 -0.47)"/><path class="cls-11" d="M466.63,306.35c-17.71,0-33.39,14.36-35,32.08s11.43,32.07,29.14,32.07h16.38L483,306.35Z" transform="translate(0 -0.47)"/><path class="cls-13" d="M173.32,306.35c-17.71,0-33.38,14.36-35,32.08s11.43,32.07,29.14,32.07h16.38l5.87-64.15Z" transform="translate(0 -0.47)"/><path class="cls-13" d="M208,360.59c13.41-12.81,14.8-33.11,3.11-45.35s-32-11.77-45.44,1-14.8,33.11-3.11,45.34,32,11.78,45.44-1Z" transform="translate(0 -0.47)"/><path class="cls-12" d="M200.33,352.61c8.58-8.2,9.48-21.19,2-29s-20.5-7.54-29.08.66-9.47,21.19-2,29,20.5,7.54,29.08-.66Z" transform="translate(0 -0.47)"/><path class="cls-13" d="M225.93,306.35c-17.72,0-33.39,14.36-35,32.08s11.43,32.07,29.14,32.07h16.38l5.87-64.15Z" transform="translate(0 -0.47)"/><path class="cls-14" d="M132.31,332.7l-22.23-1.57a10.81,10.81,0,0,1-10.12-12l7.91-86.51,20.48-114.21a19.81,19.81,0,0,1,19.08-16.13H337.59L316.51,332.7Z" transform="translate(0 -0.47)"/><path class="cls-15" d="M194.11,102.25H483.82a17,17,0,0,1,16.79,12.81L533.7,245.79A34,34,0,0,0,540,258.54l6,7.62a17.55,17.55,0,0,1,3.6,12.57L545,329a10.21,10.21,0,0,1-10,9.12H278.39l-99.33-7a10.81,10.81,0,0,1-10.12-12l7.91-86.52,6.75-114.07c.52-8.91,3.54-16.27,10.51-16.27Z" transform="translate(0 -0.47)"/><path class="cls-8" d="M200.9,332.68l.45-4.87c2-21.54,21-39,42.56-39s37.39,17.46,35.43,39l-.95,10.34-77.49-5.47Z" transform="translate(0 -0.47)"/><path class="cls-13" d="M201.35,327.81l-.45,4.86,38.74,2.74h0l2.66-29.06H225.93a34.57,34.57,0,0,0-20.4,6.83,40.77,40.77,0,0,0-1.85,4.29l-.05.12c-.1.28-.2.56-.29.84l-.24.74c0,.1-.07.2-.1.31l-.14.47c-.05.16-.09.32-.14.48s-.09.32-.14.48-.09.36-.13.54-.07.28-.11.42-.08.34-.13.5l-.1.48c-.08.33-.14.67-.21,1l-.09.46-.06.36c0,.08,0,.17,0,.25-.05.3-.1.59-.14.88s0,.34-.07.5a.13.13,0,0,1,0,.06c0,.29-.07.59-.1.88s0,.37,0,.56Z" transform="translate(0 -0.47)"/><path class="cls-12" d="M260.55,360.59c13.41-12.81,14.8-33.11,3.11-45.35s-32-11.77-45.44,1-14.8,33.11-3.11,45.34S247.15,373.4,260.55,360.59Z" transform="translate(0 -0.47)"/><path class="cls-16" d="M252.93,352.61c8.58-8.2,9.48-21.19,2-29s-20.51-7.54-29.09.66-9.47,21.19-2,29,20.5,7.54,29.09-.66Z" transform="translate(0 -0.47)"/><path class="cls-17" d="M231.83,327.19a17.28,17.28,0,0,0-.88,5.1,14.88,14.88,0,0,0,13.74,15.35,16.84,16.84,0,0,0,4.82-.28,1.31,1.31,0,0,1,1.11,2.29,18.22,18.22,0,0,1-12.83,5.41,15,15,0,0,1-15-16.76,18.41,18.41,0,0,1,7-12.49A1.3,1.3,0,0,1,231.83,327.19Z" transform="translate(0 -0.47)"/><path class="cls-8" d="M441.1,338.15l.95-10.34c2-21.54,21-39,42.56-39s37.39,17.46,35.42,39l-.94,10.34Z" transform="translate(0 -0.47)"/><path class="cls-11" d="M442.05,327.81l-.94,10.34h39L483,306.35H466.63a34.59,34.59,0,0,0-20.4,6.83,41.12,41.12,0,0,0-4.18,14.63Z" transform="translate(0 -0.47)"/><path class="cls-12" d="M501.26,360.58c13.41-12.81,14.8-33.11,3.11-45.35s-32-11.77-45.44,1-14.8,33.11-3.11,45.34S487.86,373.39,501.26,360.58Z" transform="translate(0 -0.47)"/><path class="cls-18" d="M493.64,352.61c8.59-8.2,9.48-21.2,2-29s-20.5-7.53-29.08.67-9.47,21.19-2,29S485.06,360.8,493.64,352.61Z" transform="translate(0 -0.47)"/><path class="cls-19" d="M472.54,327.19a17,17,0,0,0-.88,5.1,14.87,14.87,0,0,0,13.74,15.35,16.84,16.84,0,0,0,4.82-.28,1.31,1.31,0,0,1,1.11,2.29,18.23,18.23,0,0,1-12.84,5.41,15,15,0,0,1-15-16.76,18.45,18.45,0,0,1,7-12.49A1.3,1.3,0,0,1,472.54,327.19Z" transform="translate(0 -0.47)"/><path class="cls-20" d="M177.26,225.55l-.41,7-6.22,68.06h13.65l6.52-71.29a3.41,3.41,0,0,0-3.45-3.8H177.26Z" transform="translate(0 -0.47)"/><path class="cls-21" d="M180.38,268.55h-6.82l-2.94,32.09h6.83l2.93-32.09Z" transform="translate(0 -0.47)"/><path class="cls-22" d="M433.93,130.23l-17.3,188.71,1.06.1L435,130.33l-1.07-.1Zm21.95,121.11H434.29l.53-5.78h21.59Zm-20.41-1.07H454.9l.33-3.64H435.8l-.33,3.64Zm82.69,31.4H485.31V280.6h32.85a3.72,3.72,0,0,0,3.62-3.31l2.43-26.54,1.06.1-2.43,26.53a4.79,4.79,0,0,1-4.68,4.29Z" transform="translate(0 -0.47)"/><path class="cls-22" d="M438.49,319.52H300.16v-1.07H437.65c5.46-21.26,26.31-37.85,47.67-37.85v1.07c-21,0-41.55,16.45-46.73,37.44l-.1.41Zm109.79-19.41H509.69v1.07h38.59ZM300.16,319.52H284.43l0-.51a40,40,0,0,0-39.79-37.34c-14.14,0-30.5,10.15-36.33,19.26l-.16.25H170.63v-1.07h36.91c3.17-4.83,8.85-9.69,15.61-13.39,7.24-4,14.86-6.12,21.46-6.12A40.54,40.54,0,0,1,272.91,292a41,41,0,0,1,12.52,26.42h14.73v1.08Zm207-189.79h-382v1.07h382Z" transform="translate(0 -0.47)"/><path class="cls-8" d="M432.68,215.63l7.32-80a6,6,0,0,1,5.8-5.32h48.27A4.74,4.74,0,0,1,498.8,134l24.05,108.32a5.84,5.84,0,0,1-6.69,6.81L447.5,235.78c-9.5-1.85-15.72-10.31-14.82-20.15Z" transform="translate(0 -0.47)"/><path class="cls-4" d="M443.71,153.17h17.68a4.74,4.74,0,0,1,4.81,4.18L476,233.63a5.87,5.87,0,0,1-6.78,6.37l-21.71-4.23c-9.5-1.85-15.72-10.3-14.83-20.16l5.23-57.12a6,6,0,0,1,5.81-5.32Z" transform="translate(0 -0.47)"/><path class="cls-22" d="M523.37,242.19l-1,.23,1.88,8.49,1-.23Z" transform="translate(0 -0.47)"/><path class="cls-22" d="M517.17,249.77a6.07,6.07,0,0,1-1.12-.11L447.4,236.3l.2-1.05,68.65,13.36a5.15,5.15,0,0,0,4.66-1.56,5,5,0,0,0,1.42-4.62L498.28,134.11a4.21,4.21,0,0,0-4.21-3.31v-1.07a5.27,5.27,0,0,1,5.26,4.15L523.38,242.2a6.14,6.14,0,0,1-1.69,5.6,6.35,6.35,0,0,1-4.52,2Z" transform="translate(0 -0.47)"/><path class="cls-23" d="M173.84,225.55h3.65l-6.87,75.09h-7.45l6.52-71.29a4.27,4.27,0,0,1,4.15-3.8Z" transform="translate(0 -0.47)"/><path class="cls-24" d="M166.13,268.55h7.44l-2.93,32.09h-7.45Z" transform="translate(0 -0.47)"/><path class="cls-23" d="M108.51,225.55h3.65a3.41,3.41,0,0,1,3.45,3.8l-6.52,71.29h-7.45Z" transform="translate(0 -0.47)"/><path class="cls-24" d="M104.59,268.55H112l-2.94,32.09h-7.44Z" transform="translate(0 -0.47)"/><path class="cls-10" d="M187.75,268.6l-1.06-.1,3.58-39.2a2.92,2.92,0,0,0-.74-2.28,2.89,2.89,0,0,0-2.18-.93H177.26V225h10.09a3.94,3.94,0,0,1,4,4.39l-3.58,39.2Z" transform="translate(0 -0.47)"/><path class="cls-2" d="M151.21,130.22,135.59,300.59l1.07.1,15.62-170.37-1.07-.1Z" transform="translate(0 -0.47)"/><path class="cls-6" d="M536.16,322.69h9.4l.88-9.57H537Zm3.24-53.77.47,3.75a37.37,37.37,0,0,1,.13,8.05l-1.62,17.64a2,2,0,0,0,2.07,2.28h7.13l2-21.92A17.55,17.55,0,0,0,546,266.16h-4.1a2.52,2.52,0,0,0-2.48,2.76Z" transform="translate(0 -0.47)"/><path class="cls-2" d="M506.8,250.81h8.55a2.55,2.55,0,0,0,2.49-2.28l2.8-30.63a2,2,0,0,0-2.07-2.27H510a2.55,2.55,0,0,0-2.49,2.27l-2.79,30.63a2,2,0,0,0,2.06,2.28Z" transform="translate(0 -0.47)"/><path class="cls-10" d="M535,339H519.1v-1.61H535a9.4,9.4,0,0,0,9.15-8.39l4.6-50.31a16.77,16.77,0,0,0-3.43-12l-6-7.62a34.5,34.5,0,0,1-6.41-13L499.83,115.24a16.19,16.19,0,0,0-16-12.2H194.11c-7.65,0-9.36,9.71-9.71,15.5l-1.6-.09c.29-4.87,1.31-9,2.94-11.82,2-3.45,4.8-5.2,8.37-5.2H483.82a17.76,17.76,0,0,1,17.57,13.41l33.1,130.73A32.89,32.89,0,0,0,540.6,258l6,7.62a18.4,18.4,0,0,1,3.77,13.14l-4.6,50.31A11,11,0,0,1,535,339Z" transform="translate(0 -0.47)"/><path class="cls-2" d="M504.59,130.8h2.54v-1.07h-2.81Zm-321.66-1.07H125.16v1.07h57.71l.06-1.07Z" transform="translate(0 -0.47)"/><path class="cls-10" d="M465,222.2c1.15-5.3,4.49-10.6,5.42-16.06.71-4.18,1-9.7-2.25-12.81-4.52-4.39-14.16-7-16.42-7.66a68,68,0,0,0-16.16-2.23l-2.94,32.18c-.9,9.85,5.32,18.31,14.82,20.16L464.12,239c-.17-8-.26-11.49.91-16.81Z" transform="translate(0 -0.47)"/><path class="cls-25" d="M467.2,166.9c-.39-2.73-1.63-5.35-4.51-6.19a10.67,10.67,0,0,0-8.1.77c-5.65,3.56-4.64,10.58-6.75,16.14-.61,1.63-1.75,3.86-2.46,5.45-.52,1.18-.74,1.93.05,3.08,1.54,2.29,4.54,2.36,6.86,2.31,1.5,0,3.56-.76,4-1.84.66-1.63,1.53-3.88,2.28-5.8,2.8-.09,6.85-.16,7.94-3.24a24,24,0,0,0,.69-10.68Z" transform="translate(0 -0.47)"/><path class="cls-8" d="M463.88,160.13a17.52,17.52,0,0,0-8.62-.58c-2.41.55-4.15,2.51-5.27,4.65a14.8,14.8,0,0,0-1.17,4.31c-.3,1.76-1.36,4.75-.36,6.21,1.14,1.64,3.72,1.91,5.71,1.62a4.93,4.93,0,0,0,2.43-1.09,4,4,0,0,0,1.42-2c.49-1.2,1.78-.71,2.75-1.42a3.61,3.61,0,0,0,1.19-2.2,3,3,0,0,1,1-2,6.74,6.74,0,0,1,1.47-.59,5.14,5.14,0,0,0,2.38-1.85c1.31-2.09-1.06-4.46-2.95-5Z" transform="translate(0 -0.47)"/><path class="cls-25" d="M459.86,172c.34,1.38-.06,2.7-.9,2.93s-1.79-.71-2.13-2.09.05-2.7.89-2.93,1.79.71,2.14,2.09Z" transform="translate(0 -0.47)"/><path class="cls-26" d="M466.36,160.61c-.23-2.5-3.11-3.71-4.15-4.1a13.58,13.58,0,0,0-9.46.33c-3.22,1.23-5.13,4.57-5.26,8.22-.17,4.61,3.52,5.73,7.29,5.17a14,14,0,0,0,6.6-3.14c.87-.65,5.3-3.05,5-6.48Z" transform="translate(0 -0.47)"/><path class="cls-27" d="M472.56,158.35a4.12,4.12,0,0,0-3.25-3.1c-2.36-.36-4.28.57-6.46,1.42-.23.08-.16.22.06.3,3.07,1.18,2,5.18.78,7.82-.11.26.06.6.29.51a32.1,32.1,0,0,0,5.93-2.62c1.67-1,2.88-2.08,2.65-4.33Z" transform="translate(0 -0.47)"/><path class="cls-17" d="M468,213.74a5.58,5.58,0,0,0-.93-2.32c-1.31-2-6.81-7.92-8.19-3.18-.47,1.65.85,10.1,1.21,12.69.41,3,.61,7.81-1.68,9.47-1.28.94-3.48.46-4.92.1-.67-.17-3.27-1.44-3.93-1.05-2.09,1.28,3.36,4.45,5.52,4.92s6.76.74,8.91-.88a45.91,45.91,0,0,1,1-11.29,54.21,54.21,0,0,1,3-8.46Z" transform="translate(0 -0.47)"/><path class="cls-26" d="M466,190.7c-4.29-4.19-12.72-.81-15.93,2.59A31.35,31.35,0,0,0,442.44,208c-.81-.3-1.78-.7-2.61-1,.29-3.25.8-11.27.89-13A55.08,55.08,0,0,1,442,183.7c.07-.25,0-.26-.24-.3a10.5,10.5,0,0,0-2.26-.22.51.51,0,0,0-.39.31c-.78,1.65-1.3,6.13-1.4,7.9-.2,3.52-.67,10.83-1.34,14.28a85.4,85.4,0,0,1-3.53,14.86,18.19,18.19,0,0,0,14.68,15.24L464.11,239s1.11-4.64.89-6.05c-.26-1.63-2.88-.24-3.78.05-5.5,1.83-10.48-1-13.07-5.71-1.88-3.42-3.35-9.53-2.48-17.32a25.05,25.05,0,0,1,2.88-8.82c2.78-5.23,7.3-9.23,11.08-10.35a7.9,7.9,0,0,1,5.54.06c.4.18,1.68.7.79-.16Z" transform="translate(0 -0.47)"/><path class="cls-10" d="M507.48,218.42c-3.48,1.59-7.07,3.8-11.39,5.9-3.77,1.83-6.53.51-8.45-2-2.78-3.68-11.79-19.49-15.86-24.89-3.3-4.38-4.69-6.32-9.42-5.34-2.18.46-4.07,3.51-4.23,7.84a15.08,15.08,0,0,0,2.82,8.87c3.65,4.46,15.82,18.8,20.7,22.43,4.22,3.13,6.6,5.21,12.53,2.51a62,62,0,0,0,12.57-7.38l.73-7.91Z" transform="translate(0 -0.47)"/><path class="cls-8" d="M201.92,373.55c5.24-13.33.12-41.27-10.22-55-15-19.88-44-24-65.32-13.57-31.34,15.3-7.64-43.54-27.52-52.16-21-9.12-39.25,20.38-50.51,11.91-11.83-8.88,4.5-43.93-3.56-67.75C36.4,172.18,14.71,157.81,0,161V373.55Z" transform="translate(0 -0.47)"/><path class="cls-10" d="M296.52,178.47V161.4h6a7.79,7.79,0,0,1,4.71,1.2,4.06,4.06,0,0,1,1.61,3.48,3.88,3.88,0,0,1-.65,2.21,3.74,3.74,0,0,1-1.79,1.4,3.61,3.61,0,0,1,2.06,1.32,3.9,3.9,0,0,1,.76,2.44,4.51,4.51,0,0,1-1.57,3.73,7.1,7.1,0,0,1-4.47,1.29ZM300,171v4.6h3a2.89,2.89,0,0,0,1.93-.58,2.06,2.06,0,0,0,.71-1.65,2.14,2.14,0,0,0-2.43-2.37Zm0-2.49h2.6c1.77,0,2.66-.74,2.66-2.12a1.93,1.93,0,0,0-.68-1.66,3.42,3.42,0,0,0-2.12-.52H300v4.3Zm15.21.95h2.43a7,7,0,0,1,2.88.55,4.26,4.26,0,0,1,1.9,1.58,4.31,4.31,0,0,1,.67,2.38,4,4,0,0,1-1.49,3.24,6.18,6.18,0,0,1-4,1.22h-5.75V165.79h3.4v3.71Zm13.27,9h-3.39V165.79h3.39Zm-13.27-6.25v3.54h2.4a2.31,2.31,0,0,0,1.55-.47,1.6,1.6,0,0,0,.54-1.28,1.69,1.69,0,0,0-.53-1.3,2.2,2.2,0,0,0-1.56-.49Zm21.22,1.57h-1.36v4.68h-3.38V165.79h3.38v4.77h1.21l2.77-4.77h4.27l-4.15,6,4.54,6.65h-4.51Zm13.29-.12,2.34-7.88h3.64l-5.1,14.64-.28.67a3.87,3.87,0,0,1-3.75,2.49,5.31,5.31,0,0,1-1.5-.23V180.8h.51a2.78,2.78,0,0,0,1.43-.29,1.93,1.93,0,0,0,.75-1l.4-1-4.44-12.71h3.65l2.35,7.88Zm18.34,4.8h-3.4v-9.94h-4.24v9.94h-3.39V165.79h11Zm9.94,0a3.74,3.74,0,0,1-.34-1.14,4.12,4.12,0,0,1-3.2,1.37,4.51,4.51,0,0,1-3.09-1.08,3.45,3.45,0,0,1-1.22-2.72,3.57,3.57,0,0,1,1.49-3.09,7.4,7.4,0,0,1,4.32-1.09h1.56V170a2,2,0,0,0-.46-1.4,1.76,1.76,0,0,0-1.42-.53,2,2,0,0,0-1.34.41,1.4,1.4,0,0,0-.48,1.12h-3.39a3.4,3.4,0,0,1,.68-2,4.38,4.38,0,0,1,1.92-1.47,6.94,6.94,0,0,1,2.79-.54,5.47,5.47,0,0,1,3.71,1.19A4.07,4.07,0,0,1,381,170v5.5a6.09,6.09,0,0,0,.5,2.73v.2Zm-2.8-2.36a2.93,2.93,0,0,0,1.38-.33,2.21,2.21,0,0,0,.94-.9V172.7h-1.27c-1.69,0-2.59.59-2.7,1.76l0,.2a1.34,1.34,0,0,0,.45,1,1.75,1.75,0,0,0,1.22.41Zm14.16,2.59a6.25,6.25,0,0,1-4.55-1.71,6.07,6.07,0,0,1-1.75-4.56v-.33a7.66,7.66,0,0,1,.74-3.41,5.36,5.36,0,0,1,2.09-2.32,5.8,5.8,0,0,1,3.09-.82,5.26,5.26,0,0,1,4.09,1.64,6.67,6.67,0,0,1,1.5,4.65v1.39h-8.07a3.08,3.08,0,0,0,1,2,3,3,0,0,0,2.1.75,3.66,3.66,0,0,0,3.06-1.42l1.66,1.86a5.13,5.13,0,0,1-2.06,1.69,6.83,6.83,0,0,1-2.89.6ZM389,168.29a2.15,2.15,0,0,0-1.64.68,3.53,3.53,0,0,0-.8,1.95h4.71v-.27a2.48,2.48,0,0,0-.61-1.74A2.18,2.18,0,0,0,389,168.29Zm15.26,6.18,3.31-8.68h4.24v12.68h-3.38v-7.79l-3,7.79h-2.27l-3-7.66v7.66h-3.38V165.79H401l3.3,8.68Zm-96.94,19.32v12.68h-3.39v-9.94h-3l-.21,3.91a8.84,8.84,0,0,1-1.23,4.56,3.65,3.65,0,0,1-3.07,1.47h-1.15l0-2.76.42,0A1.57,1.57,0,0,0,297,202.6a11.17,11.17,0,0,0,.52-3.44l.24-5.37Zm8.45,12.91a6.25,6.25,0,0,1-4.55-1.71,6.11,6.11,0,0,1-1.75-4.56v-.33a7.66,7.66,0,0,1,.74-3.41,5.43,5.43,0,0,1,2.09-2.32,5.85,5.85,0,0,1,3.09-.82,5.25,5.25,0,0,1,4.09,1.64,6.67,6.67,0,0,1,1.5,4.65v1.39h-8.07a3.18,3.18,0,0,0,1,2,3,3,0,0,0,2.1.75,3.66,3.66,0,0,0,3.06-1.42l1.66,1.86a5.06,5.06,0,0,1-2.06,1.69A6.81,6.81,0,0,1,315.78,206.7Zm-.39-10.41a2.15,2.15,0,0,0-1.64.68,3.61,3.61,0,0,0-.8,1.95h4.71v-.27a2.48,2.48,0,0,0-.6-1.74A2.22,2.22,0,0,0,315.39,196.29Zm12.51,5.5h-1.36v4.68h-3.39V193.79h3.39v4.77h1.2l2.77-4.77h4.28l-4.15,6,4.53,6.65h-4.51l-2.76-4.68Zm15.9,4.68a3.74,3.74,0,0,1-.34-1.14,4.12,4.12,0,0,1-3.2,1.37,4.54,4.54,0,0,1-3.1-1.08A3.47,3.47,0,0,1,336,202.9a3.59,3.59,0,0,1,1.48-3.09,7.43,7.43,0,0,1,4.33-1.09h1.56V198a2.09,2.09,0,0,0-.46-1.4,1.77,1.77,0,0,0-1.42-.53,2.07,2.07,0,0,0-1.35.41,1.4,1.4,0,0,0-.48,1.12h-3.38a3.33,3.33,0,0,1,.68-2,4.38,4.38,0,0,1,1.92-1.47,6.94,6.94,0,0,1,2.79-.54,5.47,5.47,0,0,1,3.71,1.19,4.1,4.1,0,0,1,1.39,3.3v5.5a6,6,0,0,0,.5,2.73v.2Zm-2.8-2.36a2.93,2.93,0,0,0,1.38-.33,2.27,2.27,0,0,0,.94-.9V200.7h-1.27c-1.7,0-2.6.59-2.71,1.76v.2a1.34,1.34,0,0,0,.45,1,1.73,1.73,0,0,0,1.22.41Zm19.73-3.87a7.6,7.6,0,0,1-1.33,4.7,4.27,4.27,0,0,1-3.59,1.76,4,4,0,0,1-3.11-1.34v6h-3.38V193.79h3.14l.11,1.24a4,4,0,0,1,3.22-1.48,4.29,4.29,0,0,1,3.64,1.74,7.78,7.78,0,0,1,1.3,4.78Zm-3.39-.24a5,5,0,0,0-.63-2.73,2,2,0,0,0-1.81-1,2.22,2.22,0,0,0-2.2,1.21v5.2a2.28,2.28,0,0,0,2.22,1.25c1.62,0,2.42-1.32,2.42-4Zm10.77,4a2.2,2.2,0,0,0,1.53-.52,1.82,1.82,0,0,0,.61-1.37h3.17a4.35,4.35,0,0,1-.7,2.37,4.59,4.59,0,0,1-1.9,1.66,6,6,0,0,1-2.65.59,5.52,5.52,0,0,1-4.29-1.72,6.9,6.9,0,0,1-1.57-4.78V200a6.74,6.74,0,0,1,1.56-4.67,5.43,5.43,0,0,1,4.28-1.75,5.31,5.31,0,0,1,3.81,1.36,4.75,4.75,0,0,1,1.46,3.6h-3.17a2.33,2.33,0,0,0-.61-1.6,2.26,2.26,0,0,0-3.34.25,5,5,0,0,0-.6,2.79v.35a5,5,0,0,0,.6,2.81,2.06,2.06,0,0,0,1.81.86Zm17.77-7.47h-4.07v10h-3.4v-10h-4v-2.71h11.46v2.71Zm1.93,10V193.79h5.3a7.18,7.18,0,0,1,4,.91,3,3,0,0,1,1.39,2.62,2.43,2.43,0,0,1-.59,1.59,3.64,3.64,0,0,1-1.69,1.06,4.1,4.1,0,0,1,2.13,1,2.44,2.44,0,0,1,.79,1.85,3.09,3.09,0,0,1-1.34,2.7,6.65,6.65,0,0,1-3.85.93Zm3.39-5.27v2.56h2.73c1.2,0,1.79-.42,1.79-1.26s-.57-1.28-1.71-1.3Zm0-2.27h2.1c1.18,0,1.78-.4,1.78-1.15a1.06,1.06,0,0,0-.49-1,2.87,2.87,0,0,0-1.48-.3H391.2Zm17.33,7.54a4,4,0,0,1-.34-1.14,4.1,4.1,0,0,1-3.2,1.37,4.51,4.51,0,0,1-3.09-1.08,3.48,3.48,0,0,1-1.22-2.72,3.59,3.59,0,0,1,1.49-3.09,7.4,7.4,0,0,1,4.32-1.09h1.56V198a2,2,0,0,0-.46-1.4,1.75,1.75,0,0,0-1.41-.53,2.07,2.07,0,0,0-1.35.41,1.4,1.4,0,0,0-.48,1.12H401a3.4,3.4,0,0,1,.68-2,4.38,4.38,0,0,1,1.92-1.47,6.94,6.94,0,0,1,2.79-.54,5.52,5.52,0,0,1,3.72,1.19,4.09,4.09,0,0,1,1.38,3.3v5.5a6.23,6.23,0,0,0,.5,2.73v.2Zm-2.8-2.36a2.93,2.93,0,0,0,1.38-.33,2.16,2.16,0,0,0,.94-.9V200.7h-1.26c-1.7,0-2.6.59-2.71,1.76v.2a1.33,1.33,0,0,0,.44,1,1.76,1.76,0,0,0,1.22.41ZM217,223.47h53.26A16.75,16.75,0,0,0,287,206.72V153.47H233.74A16.74,16.74,0,0,0,217,170.21Z" transform="translate(0 -0.47)"/><path class="cls-28" d="M258.85,180.61v1h14.83v13.71H258.85v14.83h-13.7V195.32H230.32V181.61h14.83V166.78h13.7Z" transform="translate(0 -0.47)"/></svg>