<svg width="1140" height="419" fill="none" xmlns="http://www.w3.org/2000/svg"><g clip-path="url(#a)"><path d="M688.833 97.19v55.516h-14.355v-22.908h-60.631v118.184H744.6V97.191l-18.923-4.96-36.844 4.96z" fill="#C8F3F7"/><path d="M744.6 247.982h-18.924V92.231l18.924 4.96v150.791zM674.478 129.798h-13.406v22.908h13.406v-22.908z" fill="#A0EBF2"/><path d="M763.995 183.903h-44.282l-13.432-20.457h44.287l13.427 20.457z" fill="#4EA9DA"/><path d="M660.466 194.67h-46.619l-14.135-21.534h46.62l14.134 21.534z" fill="#7AE1EB"/><path d="M660.461 194.67h-46.614v40.158h46.614V194.67z" fill="#F2FCFB"/><path d="m599.712 173.136-14.135 21.534v40.153h28.27V194.67l-14.135-21.534z" fill="#C8F3F7"/><path d="M764 183.903h-44.287v50.925H764v-50.925z" fill="#F2FCFB"/><path d="M1140.01 113.492h-46v134.484h46V113.492zM1094.01 129.798h-37v118.184h37V129.798zM1057.01 70.615h-69.517v177.367h69.517V70.615zM880.291 247.983h16.263V113.499h-16.263v134.484z" fill="#C8F3F7"/><path d="m1016.31 147.242-14.88 25.342v63.837h29.76v-63.837l-14.88-25.342z" fill="#F2FCFB"/><path d="M880.286 97.19h-86.922v150.792h86.922V97.19zM896.554 6.033 942.772 0l18.666 6.033v241.949h-64.884V6.032z" fill="#C8F3F7"/><path d="M961.438 247.982h-18.666V0l18.666 6.033v241.949z" fill="#A0EBF2"/><path d="M893.831 149.617h36.093l15.566-20.682h-36.093l-15.566 20.682zM1080.26 172.584h-49.06l-14.89-25.342h49.07l14.88 25.342z" fill="#4EA9DA"/><path d="M1140 358.492V184.327c-28.01-1.877-62.86 16.446-103.13 16.446-46.868 0-69.201-20.039-115.998-34.157-39.986-12.06-81.275-10.532-123.535 1.801-38.442 11.218-81.431 31.541-120.066 44.737-40.066 13.685-82.111 13.674-123.149 7.438-41.096-6.247-70.743-16.087-113.432-16.087-30.876 0-55.07 4.451-75.093 10.709-19.797 6.188-38.806 15.411-58.743 21.009-40.598 11.395-77.425 7.593-118.398 1.265-41.885-6.461-79.812-20.478-130.453-20.006-25.4.241-49.429 5.453-58.003 8.215v132.79h1140v.005z" fill="url(#b)"/><path d="M836.825 144.26c25.232 0 45.686-2.232 45.686-4.986 0-2.755-20.454-4.987-45.686-4.987s-45.686 2.232-45.686 4.987c0 2.754 20.454 4.986 45.686 4.986z" fill="#1E3159"/><path d="M806.925 100.188c-5.958-6.917-9.588-15.899-9.588-25.744 0-21.814 17.679-39.493 39.493-39.493 21.814 0 39.493 17.68 39.493 39.493 0 9.845-3.625 18.827-9.588 25.744l-29.905 39.085-29.905-39.085z" fill="url(#c)"/><path d="M852.905 90.534c8.883-8.883 8.883-23.285 0-32.168s-23.286-8.883-32.169 0c-8.883 8.883-8.883 23.285 0 32.168s23.286 8.883 32.169 0z" fill="#fff"/><path d="M973.551 113.492h-42.898v122.929h42.898V113.492z" fill="#F2FCFB"/><path d="M1001.43 113.492h-27.879v122.929h27.879V113.492z" fill="#C8F3F7"/><path d="M1128.91 233.064H924.771v3.362h204.139v-3.362z" fill="#fff"/><path d="M1029.02 250.781h50.13l18.85-28.72h-50.13l-18.85 28.72z" fill="#C8F3F7"/><path d="M1029.02 310.577h50.13v-59.789h-50.13v59.789z" fill="#F2FCFB"/><path d="m1098 222.061 18.86 28.72v59.794h-37.71v-59.794l18.85-28.72z" fill="#4EA9DA"/><path d="M1140 196.928c-14.88 2.52-22.61 32.962-24.77 41.863-2.64 10.896-7.97 47.37-19.97 48.55-7.75.767-12.16-8.794-22.3-6.821-15.18 2.955-15.95 27.337-25.31 48.973-4.14 9.55-13.51 22.774-21.31 21.165-8.5-1.748-11.37-10.606-20.54-11.797-10.811-1.405-26.549 15.502-38.142 31.171H1139.7c.1-.134.19-.274.29-.408V196.928h.01z" fill="#1E3159"/><path d="M950.499 236.421c2.091-2.29 3.743-6.531 1.228-9.599-2.145-2.616-8.993-2.026-11.395-4.557-2.081-2.188.692-8.269-1.764-11.974-2.15-3.25-7.915-2.188-16.682 2.171-4.622 2.301-7.861 4.767-12.028 3.85-2.804-.616-2.74-3.801-5.555-5.174-5.083-2.483-12.499 4.225-16.741 1.196-4.182-2.987-.788-10.945-5.292-14.205-5.304-3.834-14.173 2.37-17.932 6.317-4.847 5.094-6.815 11.009-11.614 15.556-5.974 5.662-9.668-1.47-15.878.37-3.383 1.002-5.437 6.912-9.191 6.129-2.761-.574-3.067-5.379-4.89-7.078-2.472-2.306-4.161-1.963-7.298-.58-3.807 1.679-15.636 11.1-15.84 17.572h150.872v.006zM1009.82 236.421c.97-3.228 1.34-10.671-2.11-12.725-4.11-2.461-11.343 5.298-16.844 5.856-4.912.498-7.701-3.126-12.553-1.689-2.714.804-8.848 3.196-13.808 8.558h45.315z" fill="#4EA9DA"/><path d="M973.553 116.855h27.887v-3.362h-27.887v3.362z" fill="#F2FCFB"/><path d="M1057.01 73.972h-23.26v55.826h23.26V73.972z" fill="#A0EBF2"/><path d="M744.074 358.492c-1.415-8.113-6.327-20.355-23.594-21.208-14.928-.734-41.021 9.384-50.941 6.033-10.172-3.437-7.641-14.746-17.427-21.315-8.456-5.673-32.35 2.633-35.123-1.834-2.423-3.904 6.194-12.097 5.363-17.872-2.102-14.639-24.039-6.526-34.142-1.25-6.601 3.448-13.936 8.306-21.717 8.939-8.177.665-15.368-4.054-19.685-5.743-17.046-6.681-33.449 2.746-46.319 10.124-16.832 9.641-35.229 16.537-55.633 14.687-10.612-.96-31.546-4.038-44.378-2.456-24.795 3.051-46.871 21.91-54.019 31.9h397.615v-.005zM709.038 233.553c.005-.022 0-.049 0-.071v.011a.102.102 0 0 0 0 .06z" fill="#fff"/><path d="M937.356 286.483c-14.65-3.041-65.752-12.602-95.582-17.964-30.141-5.421-74.154-14.162-86.616-17.502-26.559-7.121-44.013-11.572-44.013-17.921 0-6.188 15.979-11.105 20.462-12.816 10.113-3.855 20.457-6.981 30.806-9.952 18.602-5.341 49.703-13.389 68.299-18.741 7.888-2.268 22.296-6.982 31.095-11.325 7.84-3.872 10.564-7.341 10.564-10.119 0-4.691-6.612-6.783-11.255-7.866-3.69-.858-12.328-2.172-19.465-2.815-3.051.327-5.636.6-8.698 1.083 6.097.622 13.647 1.882 17.974 2.628 4.274.734 15.932 2.949 15.932 6.568 0 4.156-15.578 9.518-23.144 12.108-7.641 2.617-20.092 5.808-37.289 10.269-21.47 5.571-46.576 11.995-53.086 13.851-14.585 4.145-55.461 13.839-55.461 27.122 0 11.319 17.084 17.432 38.007 23.787 21.867 6.643 43.498 11.587 66.69 16.065 24.822 4.783 52.882 9.394 85.394 15.47 16.161 3.019 79.103 12.687 79.35 25.68.231 12.177-60.143 24.376-87.951 29.98-31.584 6.36-82.23 14.446-149.88 14.446-167.071 0-595.465-.027-729.478-.016v11.566h774.88c49.032 0 101.207-6.681 127.149-11.55a251.654 251.654 0 0 0 7.883-1.598c27.653-6.156 79.924-23.326 79.924-43.654-.011-13.781-33.101-22.763-52.491-26.784zm38.678 27.234c0-.043 0-.085.016-.123l-.016.123z" fill="#fff"/><path d="M414.029 305.889c-17.712 0-33.386 14.36-35.005 32.071-1.619 17.712 11.427 32.072 29.138 32.072h16.382l5.866-64.149h-16.381v.006z" fill="#333332"/><path d="M448.66 360.116c13.407-12.809 14.8-33.111 3.11-45.348-11.689-12.236-32.035-11.772-45.442 1.037-13.408 12.809-14.8 33.111-3.111 45.348 11.69 12.236 32.035 11.772 45.443-1.037z" fill="#333332"/><path d="M441.04 352.141c8.581-8.197 9.472-21.191 1.991-29.022-7.482-7.832-20.503-7.535-29.083.663-8.581 8.197-9.472 21.191-1.991 29.022 7.482 7.832 20.503 7.535 29.083-.663z" fill="#575756"/><path d="M466.627 305.889c-17.712 0-33.385 14.36-35.005 32.071-1.619 17.712 11.427 32.072 29.139 32.072h16.381l5.866-64.149h-16.381v.006z" fill="#333332"/><path d="M173.323 305.889c-17.711 0-33.385 14.36-35.004 32.072-1.62 17.711 11.427 32.071 29.138 32.071h16.382l5.866-64.148h-16.382v.005z" fill="#3C3C3B"/><path d="M207.954 360.122c13.407-12.809 14.8-33.112 3.11-45.348-11.689-12.236-32.035-11.772-45.442 1.037-13.408 12.808-14.8 33.111-3.111 45.348 11.69 12.236 32.035 11.772 45.443-1.037z" fill="#3C3C3B"/><path d="M200.334 352.146c8.581-8.197 9.472-21.191 1.991-29.023-7.482-7.831-20.503-7.534-29.084.664-8.58 8.197-9.471 21.191-1.99 29.022 7.481 7.831 20.502 7.535 29.083-.663z" fill="#575756"/><path d="M225.927 305.889c-17.712 0-33.385 14.36-35.005 32.071-1.619 17.712 11.427 32.072 29.139 32.072h16.381l5.867-64.149h-16.382v.006z" fill="#3C3C3B"/><path d="m132.313 332.239-22.237-1.571c-6.279-.445-10.698-5.7-10.118-12.033l7.914-86.514L128.35 117.91c1.636-9.126 9.921-16.129 19.079-16.129H337.59l-21.079 230.458H132.313z" fill="url(#d)"/><path d="M194.113 101.781h289.705c8.108 0 14.854 5.142 16.789 12.81l33.096 130.731c1.191 4.698 3.314 9.03 6.258 12.752l6.022 7.619c2.745 3.47 4.021 7.942 3.598 12.57l-4.601 50.308c-.461 5.035-4.917 9.121-9.952 9.121H278.391l-99.335-7.019c-6.279-.445-10.698-5.7-10.119-12.033l7.915-86.514 6.746-114.076c.525-8.902 3.544-16.269 10.515-16.269z" fill="url(#e)"/><path d="m200.901 332.212.445-4.869c1.968-21.534 21.026-38.994 42.56-38.994 21.535 0 37.397 17.46 35.429 38.994l-.944 10.344-77.49-5.475z" fill="#1E3159"/><path d="m201.346 327.343-.445 4.864 38.743 2.74h.005l2.66-29.058h-16.382c-7.464 0-14.559 2.542-20.398 6.821a42.336 42.336 0 0 0-1.85 4.29l-.048.128c-.102.279-.199.553-.29.832a18.75 18.75 0 0 0-.241.74 31.31 31.31 0 0 0-.097.311l-.144.477c-.049.161-.092.321-.14.477-.043.161-.086.322-.134.483-.048.177-.096.353-.139.536-.038.139-.07.284-.108.423-.042.167-.08.333-.123.499l-.107.477c-.075.333-.14.671-.209 1.008-.032.156-.059.311-.086.467l-.064.359c-.011.081-.027.166-.043.252-.049.295-.097.59-.134.88-.022.166-.049.332-.07.498-.005.016-.005.038-.011.059-.037.29-.069.585-.102.88-.005.177-.026.37-.043.557z" fill="#3C3C3B"/><path d="M260.554 360.122c13.408-12.809 14.8-33.112 3.111-45.348-11.69-12.236-32.035-11.772-45.443 1.037-13.407 12.808-14.8 33.111-3.11 45.348 11.689 12.236 32.034 11.772 45.442-1.037z" fill="#575756"/><path d="M252.935 352.146c8.58-8.197 9.471-21.191 1.99-29.023-7.481-7.831-20.502-7.534-29.083.664-8.581 8.197-9.472 21.191-1.991 29.022 7.482 7.831 20.503 7.535 29.084-.663z" fill="#9D9D9C"/><path d="M231.831 326.721a17.227 17.227 0 0 0-.88 5.1c-.161 8.102 5.706 14.665 13.738 15.352 1.641.139 3.261.037 4.821-.279 1.346-.274 2.113 1.292 1.11 2.29-3.357 3.34-7.947 5.431-12.832 5.415-9.153-.037-15.942-7.609-15.03-16.762.499-4.998 3.147-9.464 6.949-12.489 1.105-.884 2.558.059 2.124 1.373z" fill="#DADADA"/><path d="m441.103 337.687.944-10.344c1.967-21.534 21.025-38.994 42.56-38.994 21.534 0 37.396 17.46 35.428 38.994l-.944 10.344h-77.988z" fill="#1E3159"/><path d="m442.052 327.343-.944 10.344 38.994.006 2.906-31.804h-16.381c-7.459 0-14.559 2.547-20.398 6.821-2.247 4.52-3.705 9.459-4.177 14.633z" fill="#333332"/><path d="M501.264 360.113c13.407-12.809 14.8-33.112 3.11-45.348-11.689-12.236-32.035-11.772-45.442 1.036-13.408 12.809-14.8 33.112-3.111 45.348 11.69 12.237 32.035 11.772 45.443-1.036z" fill="#575756"/><path d="M493.645 352.14c8.581-8.198 9.472-21.192 1.99-29.023-7.481-7.831-20.502-7.534-29.083.663-8.581 8.198-9.472 21.192-1.99 29.023 7.481 7.831 20.502 7.534 29.083-.663z" fill="#B2B2B2"/><path d="M472.536 326.721a17.194 17.194 0 0 0-.879 5.1c-.161 8.102 5.705 14.665 13.738 15.352 1.641.139 3.26.037 4.82-.279 1.346-.274 2.113 1.292 1.11 2.29-3.356 3.34-7.946 5.431-12.831 5.415-9.154-.037-15.942-7.609-15.031-16.762.499-4.998 3.148-9.464 6.95-12.489 1.104-.884 2.557.059 2.123 1.373z" fill="#EDEDED"/><path d="m177.265 225.085-.413 7.03-6.226 68.063h13.658l6.52-71.291c.193-2.096-1.351-3.802-3.453-3.802h-10.086z" fill="#E87981"/><path d="M180.385 268.085h-6.826l-2.938 32.093h6.831l2.933-32.093z" fill="#FFA7A3"/><path d="m433.928 129.766-17.302 188.706 1.068.098 17.302-188.706-1.068-.098zM455.881 250.878h-21.589l.531-5.786h21.589l-.531 5.786zm-20.414-1.073H454.9l.332-3.641h-19.433l-.332 3.641zM518.163 281.207h-32.849v-1.073h32.849c1.823 0 3.448-1.485 3.614-3.314l2.429-26.532 1.068.097-2.43 26.532c-.214 2.365-2.316 4.29-4.681 4.29z" fill="#30408C"/><path d="M438.491 319.053H300.162v-1.073h137.493c5.453-21.255 26.307-37.846 47.665-37.846v1.072c-21.026 0-41.547 16.446-46.727 37.439l-.102.408zM548.283 299.642h-38.597v1.073h38.597v-1.073zM300.162 319.053h-15.728l-.032-.504c-1.335-20.94-18.811-37.343-39.788-37.343-14.145 0-30.5 10.151-36.329 19.261l-.161.247h-37.498v-1.072h36.914c3.174-4.826 8.848-9.69 15.615-13.385 7.239-3.951 14.858-6.123 21.454-6.123 10.617 0 20.666 4.054 28.302 11.416 7.325 7.062 11.759 16.43 12.521 26.425h14.724v1.078h.006zM507.122 129.262H125.16v1.073h381.962v-1.073z" fill="#30408C"/><path d="m432.679 215.16 7.319-80.037c.268-2.938 2.869-5.319 5.807-5.319h48.261c2.327 0 4.241 1.512 4.734 3.726l24.055 108.323c.853 3.839-2.815 7.571-6.697 6.815l-68.653-13.357c-9.507-1.85-15.727-10.306-14.826-20.151z" fill="#1E3159"/><path d="M443.709 152.706h17.679c2.499 0 4.499 1.737 4.815 4.177l9.787 76.283c.477 3.732-3.089 7.084-6.778 6.365l-21.712-4.225c-9.502-1.85-15.722-10.306-14.827-20.157l5.223-57.129c.279-2.933 2.874-5.314 5.813-5.314z" fill="#4EA9DA"/><path d="m523.374 241.727-1.047.232 1.884 8.486 1.047-.233-1.884-8.485z" fill="#30408C"/><path d="M517.166 249.301c-.37 0-.745-.037-1.115-.107l-68.653-13.357.204-1.051 68.652 13.357c1.657.322 3.395-.257 4.66-1.555 1.244-1.276 1.775-3.003 1.416-4.622l-24.055-108.323c-.44-1.979-2.134-3.308-4.21-3.308v-1.073c2.596 0 4.709 1.668 5.261 4.151l24.055 108.322c.44 1.968-.199 4.065-1.695 5.604-1.238 1.27-2.868 1.962-4.52 1.962z" fill="#30408C"/><path d="M173.844 225.085h3.646l-6.869 75.093h-7.448l6.52-71.296c.193-2.097 2.054-3.797 4.151-3.797z" fill="#CC6A72"/><path d="M166.127 268.085h7.448l-2.938 32.093h-7.448l2.938-32.093z" fill="#D68D89"/><path d="M108.51 225.085h3.647c2.096 0 3.646 1.7 3.453 3.802l-6.521 71.291h-7.448l6.869-75.093z" fill="#CC6A72"/><path d="M104.59 268.085h7.449l-2.934 32.093h-7.448l2.933-32.093z" fill="#D68D89"/><path d="m187.753 268.134-1.067-.097 3.582-39.198c.081-.869-.182-1.678-.735-2.284-.546-.601-1.324-.933-2.182-.933h-10.086v-1.073h10.086c1.164 0 2.22.456 2.976 1.282.756.831 1.115 1.93 1.008 3.105l-3.582 39.198z" fill="#fff"/><path d="m151.21 129.755-15.621 170.374 1.068.098 15.621-170.374-1.068-.098z" fill="#C8F3F7"/><path d="M536.159 322.222h9.4l.88-9.571h-9.406l-.874 9.571zM539.398 268.455l.472 3.754a37.36 37.36 0 0 1 .128 8.049l-1.614 17.641c-.112 1.261.81 2.279 2.07 2.279h7.127l2.005-21.92c.424-4.628-.858-9.095-3.603-12.564h-4.103c-1.458 0-2.659 1.34-2.482 2.761z" fill="#F2FCFB"/><path d="M506.795 250.341h8.559c1.26 0 2.375-1.019 2.488-2.279l2.799-30.623c.112-1.261-.81-2.279-2.07-2.279h-8.558c-1.26 0-2.376 1.018-2.488 2.279l-2.799 30.623c-.113 1.255.815 2.279 2.069 2.279z" fill="#C8F3F7"/><path d="M535.028 338.491h-15.932v-1.608h15.932c4.622 0 8.729-3.765 9.153-8.392l4.601-50.309c.402-4.424-.815-8.687-3.432-11.995l-6.022-7.62c-3.03-3.834-5.185-8.225-6.408-13.057l-33.095-130.731c-1.85-7.298-8.285-12.205-16.012-12.205h-289.7c-7.652 0-9.368 9.711-9.711 15.503l-1.603-.097c.289-4.869 1.308-8.955 2.943-11.818 1.979-3.448 4.794-5.202 8.371-5.202h289.705c8.478 0 15.54 5.395 17.572 13.417l33.096 130.731c1.169 4.612 3.223 8.799 6.113 12.451l6.022 7.62c2.874 3.635 4.214 8.301 3.769 13.137l-4.6 50.309c-.504 5.448-5.33 9.866-10.762 9.866z" fill="#fff"/><path d="M504.592 130.335h2.536v-1.073h-2.81l.274 1.073zM182.933 129.262H125.16v1.073h57.708l.065-1.073z" fill="#C8F3F7"/><path d="M465.029 221.734c1.153-5.298 4.488-10.596 5.421-16.06.713-4.183.96-9.695-2.246-12.81-4.526-4.387-14.168-7.004-16.425-7.663-5.26-1.539-12.242-2.188-16.156-2.231l-2.944 32.184c-.901 9.851 5.324 18.307 14.826 20.157l16.612 3.233c-.171-8.043-.252-11.491.912-16.81z" fill="#fff"/><path d="M467.201 166.433c-.392-2.729-1.636-5.352-4.51-6.188-2.713-.783-5.995-.552-8.097.772-5.657 3.561-4.649 10.574-6.751 16.14-.611 1.625-1.753 3.861-2.461 5.443-.526 1.18-.74 1.931.048 3.089 1.544 2.284 4.542 2.359 6.858 2.306 1.507-.033 3.566-.762 4.001-1.845.659-1.625 1.528-3.872 2.284-5.791 2.794-.091 6.842-.161 7.941-3.244 1.137-3.175 1.159-7.395.687-10.682z" fill="#FEBAB5"/><path d="M463.876 159.661c-2.681-.805-5.855-1.207-8.612-.574-2.413.552-4.155 2.504-5.271 4.643-.697 1.336-.917 2.848-1.169 4.317-.305 1.759-1.362 4.746-.359 6.204 1.137 1.646 3.711 1.909 5.7 1.625a4.934 4.934 0 0 0 2.435-1.094c.863-.724 1.008-1.019 1.415-2.005.494-1.202 1.781-.708 2.751-1.427.686-.509 1.019-1.373 1.196-2.193.171-.799.305-1.501 1.019-2.032.407-.301 1.002-.397 1.464-.595.959-.413 1.823-.966 2.38-1.845 1.314-2.091-1.056-4.456-2.949-5.024z" fill="#1E3159"/><path d="M459.855 171.543c.343 1.384-.054 2.697-.891 2.928-.836.231-1.796-.702-2.139-2.091-.343-1.384.053-2.697.89-2.928.837-.225 1.796.708 2.14 2.091z" fill="#FEBAB5"/><path d="M466.359 160.143c-.225-2.499-3.105-3.705-4.15-4.097-3.046-1.131-6.467-.815-9.459.327-3.218 1.234-5.127 4.574-5.261 8.221-.166 4.606 3.518 5.732 7.293 5.174 2.558-.381 4.547-1.571 6.601-3.147.863-.649 5.292-3.046 4.976-6.478z" fill="#FF892B"/><path d="M472.563 157.88c-.129-1.26-1.619-2.847-3.249-3.094-2.365-.364-4.28.569-6.467 1.416-.226.086-.161.22.064.306 3.073 1.174 1.989 5.174.783 7.818-.118.257.054.6.289.509 2.135-.81 3.985-1.421 5.931-2.617 1.662-1.029 2.88-2.086 2.649-4.338z" fill="#FFA65C"/><path d="M468.021 213.272c-.118-.772-.402-1.539-.928-2.317-1.313-1.957-6.815-7.925-8.188-3.179-.477 1.651.848 10.097 1.207 12.687.413 2.976.606 7.807-1.684 9.475-1.281.933-3.48.461-4.922.096-.665-.171-3.271-1.442-3.926-1.045-2.086 1.276 3.357 4.445 5.518 4.917 2.118.461 6.757.74 8.912-.885-.027-4.467.15-7.368 1.008-11.282.622-2.821 1.85-5.63 3.003-8.467z" fill="#DADADA"/><path d="M465.962 190.236c-4.29-4.193-12.724-.81-15.936 2.585-3.561 3.764-6.558 9.394-7.588 14.66-.81-.295-1.775-.692-2.606-1.019.289-3.244.794-11.266.885-12.976.15-2.842.445-7.266 1.265-10.253.07-.247-.043-.257-.246-.3-.74-.156-1.673-.236-2.258-.215-.209.006-.332.193-.386.306-.778 1.646-1.298 6.129-1.4 7.904-.203 3.517-.67 10.826-1.34 14.274-.402 4.054-2.472 11.969-3.529 14.864 1.186 7.636 6.805 13.706 14.677 15.24l16.612 3.233s1.105-4.649.885-6.059c-.257-1.63-2.88-.236-3.775.059-5.507 1.823-10.483-1.014-13.073-5.716-1.882-3.421-3.352-9.524-2.478-17.32.676-4.708 2.145-7.443 2.88-8.821 2.783-5.228 7.303-9.223 11.078-10.349 2.563-.762 4.472-.445 5.545.059.397.187 1.673.707.788-.156z" fill="#FF892B"/><path d="M507.476 217.959c-3.48 1.587-7.062 3.791-11.384 5.893-3.769 1.834-6.531.509-8.451-2.027-2.777-3.679-11.791-19.486-15.866-24.892-3.293-4.375-4.682-6.322-9.417-5.335-2.177.456-4.064 3.502-4.23 7.84-.091 2.375.842 6.44 2.82 8.863 3.652 4.467 15.819 18.8 20.704 22.431 4.214 3.137 6.601 5.212 12.531 2.515 5.379-2.446 8.95-4.655 12.569-7.379l.724-7.909z" fill="#fff"/><path d="M201.919 382.037c5.241-13.328.125-41.274-10.222-55.004-14.985-19.88-44.03-23.966-65.317-13.571-31.343 15.307-7.643-43.539-27.516-52.156-21.058-9.125-29.602 22.2-40.864 13.731-11.824-8.881-5.152-45.753-13.211-69.571C36.397 180.663 14.715 233.361 0 236.537v145.5H201.92zM-193.081 701c5.241-13.328.125-41.274-10.222-55.004-14.985-19.88-44.03-23.966-65.317-13.571-31.343 15.307-7.643-43.54-27.516-52.157-21.058-9.124-39.256 20.378-50.519 11.91-11.823-8.882 4.503-43.932-3.556-67.75-8.392-24.802-30.074-39.167-44.789-35.992V701h201.919zM1407.05 140.731c5.25-13.328.13-41.274-10.22-55.004-14.98-19.88-44.03-23.966-65.31-13.571-31.35 15.307-7.65-43.54-27.52-52.156-21.06-9.125-29.6 22.2-40.86 13.731-11.83-8.882-5.16-45.754-13.22-69.572-8.39-24.802-30.07 27.896-44.78 31.072v145.5h201.91z" fill="#1E3159"/></g><path d="M296.523 178v-17.062h5.977c2.07 0 3.641.398 4.711 1.195 1.07.789 1.605 1.949 1.605 3.48 0 .836-.214 1.575-.644 2.215-.43.633-1.027 1.098-1.793 1.395.875.218 1.562.66 2.062 1.324.508.664.762 1.476.762 2.437 0 1.641-.523 2.883-1.57 3.727-1.047.844-2.539 1.273-4.477 1.289h-6.633zm3.516-7.43v4.606h3.012c.828 0 1.472-.196 1.933-.586.469-.399.704-.945.704-1.641 0-1.562-.809-2.355-2.426-2.379h-3.223zm0-2.484h2.602c1.773-.031 2.66-.738 2.66-2.121 0-.774-.227-1.328-.68-1.664-.445-.344-1.152-.516-2.121-.516h-2.461v4.301zm15.211.949h2.426c1.094 0 2.054.184 2.883.551.828.367 1.461.894 1.898 1.582.445.68.668 1.473.668 2.379 0 1.336-.496 2.414-1.488 3.234-.985.813-2.328 1.219-4.032 1.219h-5.753v-12.68h3.398v3.715zM328.516 178h-3.387v-12.68h3.387V178zm-13.266-6.246v3.539h2.402c.672 0 1.188-.156 1.547-.469.36-.312.539-.738.539-1.277 0-.547-.176-.981-.527-1.301-.352-.328-.871-.492-1.559-.492h-2.402zm21.223 1.57h-1.36V178h-3.386v-12.68h3.386v4.77h1.207l2.766-4.77h4.277l-4.148 6.035L343.75 178h-4.512l-2.765-4.676zm13.289-.117 2.343-7.887h3.633l-5.097 14.649-.282.668c-.757 1.656-2.007 2.484-3.75 2.484-.492 0-.992-.074-1.5-.223v-2.566l.516.012c.641 0 1.117-.098 1.43-.293.32-.196.57-.52.75-.973l.398-1.043-4.441-12.715h3.644l2.356 7.887zm18.34 4.793h-3.399v-9.938h-4.242V178h-3.387v-12.68h11.028V178zm9.937 0c-.156-.305-.269-.684-.34-1.137-.82.914-1.887 1.371-3.199 1.371-1.242 0-2.273-.359-3.094-1.078-.812-.718-1.218-1.625-1.218-2.718 0-1.344.496-2.376 1.488-3.094 1-.719 2.441-1.082 4.324-1.09h1.559v-.727c0-.586-.153-1.054-.457-1.406-.297-.351-.77-.527-1.418-.527-.571 0-1.02.136-1.348.41-.32.273-.481.648-.481 1.125h-3.386c0-.734.226-1.414.679-2.039.454-.625 1.094-1.113 1.922-1.465.828-.359 1.758-.539 2.789-.539 1.563 0 2.801.394 3.715 1.184.922.781 1.383 1.882 1.383 3.304v5.496c.008 1.203.176 2.114.504 2.731V178h-3.422zm-2.801-2.355c.5 0 .961-.11 1.383-.329.422-.226.734-.527.938-.902v-2.18h-1.266c-1.695 0-2.598.586-2.707 1.758l-.012.199c0 .422.149.77.446 1.043.296.274.703.411 1.218.411zm14.157 2.589c-1.86 0-3.375-.57-4.547-1.711-1.164-1.14-1.746-2.66-1.746-4.558v-.328c0-1.274.246-2.41.738-3.41.492-1.008 1.187-1.782 2.086-2.321.906-.547 1.937-.82 3.094-.82 1.734 0 3.097.547 4.089 1.641 1 1.093 1.5 2.644 1.5 4.652v1.383h-8.074c.11.828.438 1.492.985 1.992.554.5 1.253.75 2.097.75 1.305 0 2.324-.473 3.059-1.418l1.664 1.863c-.508.719-1.195 1.281-2.063 1.688-.867.398-1.828.597-2.882.597zm-.387-10.406c-.672 0-1.219.227-1.641.68-.414.453-.679 1.101-.797 1.945h4.711v-.269c-.015-.75-.219-1.329-.609-1.735-.391-.414-.945-.621-1.664-.621zm15.258 6.176 3.316-8.684h4.242V178h-3.386v-7.781L405.402 178h-2.273l-2.977-7.652V178h-3.386v-12.68h4.207l3.293 8.684zm-96.938 19.316V206h-3.387v-9.938h-2.988l-.211 3.915c-.133 2.085-.543 3.605-1.23 4.558-.688.953-1.711 1.442-3.071 1.465h-1.148l-.035-2.754.422-.035c.609-.047 1.054-.406 1.336-1.078.281-.672.457-1.817.527-3.434l.234-5.379h9.551zm8.449 12.914c-1.859 0-3.375-.57-4.547-1.711-1.164-1.14-1.746-2.66-1.746-4.558v-.328c0-1.274.246-2.41.739-3.41.492-1.008 1.187-1.782 2.086-2.321.906-.547 1.937-.82 3.093-.82 1.735 0 3.098.547 4.09 1.641 1 1.093 1.5 2.644 1.5 4.652v1.383h-8.074c.109.828.437 1.492.984 1.992.555.5 1.254.75 2.098.75 1.305 0 2.324-.473 3.059-1.418l1.664 1.863c-.508.719-1.196 1.281-2.063 1.688-.867.398-1.828.597-2.883.597zm-.386-10.406c-.672 0-1.219.227-1.641.68-.414.453-.68 1.101-.797 1.945h4.711v-.269c-.016-.75-.219-1.329-.609-1.735-.391-.414-.946-.621-1.664-.621zm12.504 5.496h-1.36V206h-3.387v-12.68h3.387v4.77h1.207l2.766-4.77h4.277l-4.148 6.035 4.535 6.645h-4.512l-2.765-4.676zM343.797 206c-.156-.305-.27-.684-.34-1.137-.82.914-1.887 1.371-3.199 1.371-1.242 0-2.274-.359-3.094-1.078-.812-.718-1.219-1.625-1.219-2.718 0-1.344.496-2.376 1.489-3.094 1-.719 2.441-1.082 4.324-1.09h1.558v-.727c0-.586-.152-1.054-.457-1.406-.297-.351-.769-.527-1.418-.527-.57 0-1.019.136-1.347.41-.321.273-.481.648-.481 1.125h-3.386c0-.734.226-1.414.679-2.039.453-.625 1.094-1.113 1.922-1.465.828-.359 1.758-.539 2.789-.539 1.563 0 2.801.394 3.715 1.184.922.781 1.383 1.882 1.383 3.304v5.496c.008 1.203.176 2.114.504 2.731V206h-3.422zm-2.801-2.355c.5 0 .961-.11 1.383-.329.422-.226.734-.527.937-.902v-2.18h-1.265c-1.696 0-2.598.586-2.707 1.758l-.012.199c0 .422.148.77.445 1.043.297.274.703.411 1.219.411zm19.734-3.868c0 1.953-.445 3.52-1.335 4.7-.883 1.171-2.079 1.757-3.586 1.757-1.282 0-2.317-.445-3.106-1.336v5.977h-3.387V193.32h3.141l.117 1.242c.821-.984 1.891-1.476 3.211-1.476 1.563 0 2.777.578 3.645 1.734.867 1.157 1.3 2.75 1.3 4.782v.175zm-3.386-.246c0-1.179-.211-2.09-.633-2.73-.414-.641-1.02-.961-1.816-.961-1.063 0-1.793.406-2.192 1.219v5.191c.414.836 1.152 1.254 2.215 1.254 1.617 0 2.426-1.324 2.426-3.973zm10.769 3.973c.625 0 1.133-.172 1.524-.516.39-.343.593-.8.609-1.371h3.176a4.37 4.37 0 0 1-.703 2.367c-.461.711-1.094 1.266-1.899 1.664-.797.391-1.679.586-2.648.586-1.813 0-3.242-.574-4.289-1.722-1.047-1.157-1.571-2.75-1.571-4.782v-.222c0-1.953.52-3.512 1.559-4.676 1.039-1.164 2.465-1.746 4.277-1.746 1.586 0 2.856.453 3.809 1.359.961.899 1.449 2.098 1.465 3.598h-3.176c-.016-.656-.219-1.188-.609-1.594-.391-.414-.907-.621-1.547-.621-.789 0-1.387.289-1.793.867-.399.571-.598 1.5-.598 2.789v.352c0 1.305.199 2.242.598 2.812.398.571 1.004.856 1.816.856zm17.766-7.465h-4.067V206h-3.398v-9.961h-3.996v-2.719h11.461v2.719zm1.933 9.961v-12.68h5.297c1.727 0 3.051.305 3.973.914.922.61 1.383 1.485 1.383 2.625 0 .586-.195 1.114-.586 1.582-.383.461-.945.817-1.688 1.067.907.172 1.618.512 2.133 1.019.524.5.785 1.118.785 1.852 0 1.18-.445 2.078-1.336 2.695-.882.617-2.168.926-3.855.926h-6.106zm3.387-5.262v2.555h2.731c1.195 0 1.793-.418 1.793-1.254 0-.851-.571-1.285-1.711-1.301h-2.813zm0-2.273h2.098c1.187-.016 1.781-.399 1.781-1.149 0-.461-.164-.789-.492-.984-.32-.195-.813-.293-1.477-.293h-1.91v2.426zM408.531 206c-.156-.305-.269-.684-.34-1.137-.82.914-1.886 1.371-3.199 1.371-1.242 0-2.273-.359-3.094-1.078-.812-.718-1.218-1.625-1.218-2.718 0-1.344.496-2.376 1.488-3.094 1-.719 2.441-1.082 4.324-1.09h1.559v-.727c0-.586-.153-1.054-.457-1.406-.297-.351-.77-.527-1.418-.527-.571 0-1.02.136-1.348.41-.32.273-.48.648-.48 1.125h-3.387c0-.734.227-1.414.68-2.039.453-.625 1.093-1.113 1.921-1.465.829-.359 1.758-.539 2.79-.539 1.562 0 2.8.394 3.714 1.184.922.781 1.383 1.882 1.383 3.304v5.496c.008 1.203.176 2.114.504 2.731V206h-3.422zm-2.801-2.355c.5 0 .961-.11 1.383-.329.422-.226.735-.527.938-.902v-2.18h-1.266c-1.695 0-2.597.586-2.707 1.758l-.012.199c0 .422.149.77.446 1.043.297.274.703.411 1.218.411zM217 223h53.256c9.245 0 16.744-7.496 16.744-16.745V153h-53.256c-9.249 0-16.744 7.496-16.744 16.745V223z" fill="#fff"/><path d="M258.853 180.147v1h14.832v13.706h-14.832v14.832h-13.706v-14.832h-14.832v-13.706h14.832v-14.832h13.706v13.832z" stroke="#45C8DA" stroke-width="2" stroke-miterlimit="10"/><defs><linearGradient id="b" x1="1006.17" y1="258.411" x2="-113.258" y2="258.411" gradientUnits="userSpaceOnUse"><stop stop-color="#6EDBE6"/><stop offset=".183" stop-color="#77DDE8"/><stop offset=".48" stop-color="#8FE4EC"/><stop offset=".854" stop-color="#B7EEF4"/><stop offset="1" stop-color="#C8F3F7"/></linearGradient><linearGradient id="c" x1="808.742" y1="123.06" x2="909.696" y2="-51.797" gradientUnits="userSpaceOnUse"><stop stop-color="#EC6C35"/><stop offset="1" stop-color="#FA8F55"/></linearGradient><linearGradient id="d" x1="198.477" y1="432.039" x2="198.477" y2="133.536" gradientUnits="userSpaceOnUse"><stop stop-color="#30408C"/><stop offset=".19" stop-color="#31448F"/><stop offset=".387" stop-color="#355198"/><stop offset=".587" stop-color="#3B65A8"/><stop offset=".79" stop-color="#4382BD"/><stop offset=".992" stop-color="#4EA7D9"/><stop offset="1" stop-color="#4EA9DA"/></linearGradient><linearGradient id="e" x1="456.894" y1="82.269" x2="270.572" y2="387.939" gradientUnits="userSpaceOnUse"><stop stop-color="#7AE1EB"/><stop offset=".263" stop-color="#77DDEA"/><stop offset=".535" stop-color="#6DD0E6"/><stop offset=".81" stop-color="#5DBCE0"/><stop offset="1" stop-color="#4EA9DA"/></linearGradient><clipPath id="a"><path fill="#fff" d="M0 0h1140v418.64H0z"/></clipPath></defs></svg>