<svg width="65" height="46" fill="none" xmlns="http://www.w3.org/2000/svg"><path d="M8.261 26.845C4.326 24.22 2.36 20.552 2.36 15.83c0-4.714 1.398-8.443 4.202-11.188C9.366 1.897 12.887.524 17.124.524c4.237 0 7.758 1.313 10.562 3.937 2.805 2.624 4.203 6.025 4.203 10.203 0 4.178-1.312 8.296-3.935 12.353L14.889 46H.21l8.051-19.155zm33.112 0c-3.935-2.625-5.903-6.293-5.903-11.015 0-4.714 1.398-8.443 4.203-11.188C42.477 1.897 45.998.524 50.235.524c4.237 0 7.758 1.313 10.563 3.937C63.602 7.085 65 10.486 65 14.664c0 4.178-1.312 8.296-3.935 12.353L48 46H33.321l8.052-19.155z" fill="#45C8DA"/></svg>