<svg width="100" height="133" viewBox="0 0 100 133" fill="none" xmlns="http://www.w3.org/2000/svg">
<path d="M45.1376 6.76231L41.6831 5.09355L43.0616 2.87402L46.0155 4.29617L45.1376 6.76231Z" fill="#94C6C0"/>
<path d="M50.1263 12.3687L47.9683 9.19564L50.2658 7.95435L52.112 10.6753L50.1263 12.3687Z" fill="#94C6C0"/>
<path d="M51.6446 19.7178L51.3574 15.8953L53.9667 15.9692L54.2129 19.2492L51.6446 19.7178Z" fill="#94C6C0"/>
<path d="M49.2979 26.8532L50.9553 23.3923L53.179 24.7652L51.7512 27.7328L49.2979 26.8532Z" fill="#94C6C0"/>
<path d="M43.7021 31.8512L46.8612 29.6892L48.1002 31.9909L45.3924 33.8406L43.7021 31.8512Z" fill="#94C6C0"/>
<path d="M36.3579 33.3722L40.1734 33.0845L40.0995 35.6986L36.8256 35.9452L36.3579 33.3722Z" fill="#94C6C0"/>
<path d="M29.2354 31.0127L32.6898 32.6815L31.3195 34.9092L28.3574 33.4788L29.2354 31.0127Z" fill="#94C6C0"/>
<path d="M24.2551 25.4146L26.4131 28.5794L24.1074 29.8207L22.2612 27.108L24.2551 25.4146Z" fill="#94C6C0"/>
<path d="M22.7289 18.0571L23.0161 21.8797L20.4068 21.8057L20.1606 18.5257L22.7289 18.0571Z" fill="#94C6C0"/>
<path d="M25.0838 10.9216L23.4181 14.3824L21.2026 13.0096L22.6222 10.042L25.0838 10.9216Z" fill="#94C6C0"/>
<path d="M30.6797 5.92393L27.5124 8.09414L26.2734 5.78418L28.9894 3.93457L30.6797 5.92393Z" fill="#94C6C0"/>
<path d="M38.0157 4.40309L34.2002 4.69081L34.274 2.07669L37.548 1.83008L38.0157 4.40309Z" fill="#94C6C0"/>
<path d="M36.0791 4.19732C27.9804 4.80563 21.9085 11.8835 22.5239 19.9971C23.1311 28.1107 30.1959 34.1939 38.2946 33.5773C46.3932 32.969 52.4652 25.8912 51.858 17.7776C51.2426 9.66394 44.1778 3.58078 36.0791 4.19732ZM37.8022 27.0749C33.2893 27.412 29.3507 24.0251 29.0143 19.5039C28.6779 14.9826 32.0585 11.0368 36.5714 10.6997C41.0844 10.3545 45.0229 13.7495 45.3594 18.2708C45.704 22.7921 42.3152 26.7379 37.8022 27.0749Z" fill="#94C6C0"/>
<path d="M34.7499 16.7338C33.5601 18.082 33.6914 20.1453 35.0453 21.3291C36.391 22.5211 38.4505 22.3895 39.6321 21.0331C40.8218 19.685 40.6906 17.6216 39.3367 16.4379C37.991 15.2541 35.9315 15.3857 34.7499 16.7338Z" fill="#94C6C0"/>
<path d="M37.6743 17.8746L36.6978 19.9126L45.9145 24.3457L46.8911 22.3078L37.6743 17.8746Z" fill="#94C6C0"/>
<path d="M36.5558 17.9546L28.103 23.731L29.3746 25.5985L37.8273 19.8221L36.5558 17.9546Z" fill="#94C6C0"/>
<path d="M37.5465 8.58415L35.2964 8.75415L36.0652 18.9682L38.3154 18.7982L37.5465 8.58415Z" fill="#94C6C0"/>
<path d="M37.2029 29.533C36.9732 29.533 36.7434 29.5247 36.5137 29.5083C33.6829 29.3275 31.09 28.0533 29.2191 25.9159C27.3401 23.7786 26.4129 21.0412 26.5934 18.2051C26.9709 12.3932 32.009 7.88842 37.8758 8.26656C40.7066 8.44741 43.2995 9.72981 45.1703 11.8589C47.0412 13.9962 47.9766 16.7337 47.7878 19.5697C47.435 25.1597 42.7826 29.533 37.2029 29.533ZM37.1783 8.98174C31.9843 8.98174 27.6519 13.0509 27.3155 18.2545C27.1432 20.8932 28.013 23.4416 29.7607 25.4309C31.5084 27.4203 33.9208 28.604 36.5547 28.7767C42.0277 29.1302 46.7129 24.9377 47.0576 19.5286C47.2299 16.8899 46.3601 14.3333 44.6206 12.3521C42.881 10.3628 40.4687 9.17903 37.8266 9.0064C37.605 8.98996 37.3917 8.98174 37.1783 8.98174Z" fill="white"/>
<path d="M36.4398 20.4492L35.4634 19.0189L36.2101 17.457L37.9332 17.3254L38.9096 18.7558L38.1629 20.3177L36.4398 20.4492Z" fill="#37869D"/>
<path d="M72.5517 14.9743L70.4019 13.5275L71.5424 12.1711L73.3804 13.4124L72.5517 14.9743Z" fill="#FFBA51"/>
<path d="M75.35 19.216L74.2095 16.8813L75.8752 16.2812L76.8434 18.2788L75.35 19.216Z" fill="#FFBA51"/>
<path d="M75.6538 24.2962L75.8343 21.6985L77.5739 22.0109L77.418 24.2304L75.6538 24.2962Z" fill="#FFBA51"/>
<path d="M73.3809 28.8338L74.825 26.6882L76.1789 27.8227L74.9399 29.6723L73.3809 28.8338Z" fill="#FFBA51"/>
<path d="M69.147 31.6374L71.4773 30.5029L72.0763 32.1635L70.0824 33.1417L69.147 31.6374Z" fill="#FFBA51"/>
<path d="M64.0757 31.9412L66.6686 32.122L66.3568 33.8648L64.1413 33.7086L64.0757 31.9412Z" fill="#FFBA51"/>
<path d="M59.5464 29.6643L61.688 31.1193L60.5557 32.4757L58.7095 31.2262L59.5464 29.6643Z" fill="#FFBA51"/>
<path d="M56.7486 25.4224L57.8892 27.757L56.2235 28.3571L55.2471 26.3595L56.7486 25.4224Z" fill="#FFBA51"/>
<path d="M56.445 20.3503L56.2644 22.9398L54.5249 22.6274L54.6808 20.4079L56.445 20.3503Z" fill="#FFBA51"/>
<path d="M58.7178 15.8044L57.2655 17.9499L55.9116 16.8155L57.1588 14.9741L58.7178 15.8044Z" fill="#FFBA51"/>
<path d="M62.9518 13.0013L60.6214 14.1439L60.0225 12.4751L62.0164 11.5051L62.9518 13.0013Z" fill="#FFBA51"/>
<path d="M68.0144 12.6973L65.4297 12.5246L65.7415 10.7737L67.9569 10.9299L68.0144 12.6973Z" fill="#FFBA51"/>
<path d="M66.7431 12.3765C61.262 11.9902 56.5029 16.1333 56.1172 21.6328C55.7398 27.1241 59.8671 31.892 65.3564 32.2701C70.8376 32.6565 75.5967 28.5134 75.9741 23.0138C76.3598 17.5226 72.2243 12.7547 66.7431 12.3765ZM65.66 27.8639C62.6076 27.6502 60.3019 24.995 60.5153 21.9287C60.7286 18.8707 63.3789 16.5608 66.4313 16.7745C69.4919 16.9882 71.7976 19.6434 71.5761 22.7097C71.371 25.7677 68.7206 28.0777 65.66 27.8639Z" fill="#FFBA51"/>
<path d="M64.6254 20.6383C63.6982 21.4275 63.5833 22.8168 64.371 23.7457C65.1587 24.6746 66.5454 24.7897 67.4726 24.0005C68.3998 23.2113 68.5147 21.8221 67.727 20.8932C66.9393 19.9642 65.5526 19.8492 64.6254 20.6383Z" fill="#FFBA51"/>
<path d="M66.4757 21.6885L65.6216 22.9556L71.3607 26.838L72.2148 25.5709L66.4757 21.6885Z" fill="#FFBA51"/>
<path d="M65.7167 21.6384L59.4922 24.6799L60.1613 26.0542L66.3858 23.0126L65.7167 21.6384Z" fill="#FFBA51"/>
<path d="M65.7724 15.3459L65.2925 22.2673L66.815 22.3733L67.2949 15.4519L65.7724 15.3459Z" fill="#FFBA51"/>
<path d="M66.0535 29.5246C65.553 29.5246 65.0525 29.4671 64.552 29.3684C60.6708 28.5381 58.1846 24.7074 59.0134 20.8273C59.7108 17.5227 62.6729 15.1223 66.0453 15.1223C66.5459 15.1223 67.0464 15.1716 67.5469 15.2785C71.428 16.1006 73.9061 19.9395 73.0855 23.8196C72.3799 27.1242 69.4259 29.5246 66.0535 29.5246ZM66.0453 15.6155C62.9027 15.6155 60.1539 17.8515 59.5057 20.9342C58.7426 24.5512 61.0565 28.1189 64.6668 28.8834C65.1263 28.9821 65.594 29.0314 66.0618 29.0314C69.2044 29.0314 71.9532 26.7954 72.6014 23.7209C73.3645 20.1039 71.0588 16.5362 67.4485 15.7717C66.9807 15.6649 66.513 15.6155 66.0453 15.6155Z" fill="white"/>
<path d="M52.4733 7.60063C52.4405 7.32114 52.4241 7.03342 52.4405 6.7457C52.4569 6.45799 52.5062 6.17027 52.58 5.89899L53.7288 5.96476C53.8272 5.67704 53.9585 5.40576 54.1144 5.15915L53.3513 4.296C53.6959 3.84387 54.1308 3.45751 54.6313 3.16157L55.3944 4.02472C55.657 3.89319 55.9442 3.79455 56.2396 3.72878L56.3052 2.57792C56.5842 2.53681 56.8714 2.52037 57.1668 2.54503C57.454 2.56148 57.7412 2.6108 58.0119 2.68478L57.9463 3.83565C58.2335 3.92608 58.5043 4.06582 58.7504 4.23023L59.612 3.46573C60.0633 3.81099 60.4489 4.2549 60.7443 4.74812L59.8828 5.51263C60.0141 5.77569 60.1125 6.0634 60.1782 6.35934L61.3269 6.4251C61.3597 6.7046 61.3761 6.99232 61.3597 7.28003C61.3433 7.57597 61.2941 7.85547 61.2202 8.12675L60.0715 8.06098C59.973 8.3487 59.8417 8.61997 59.6858 8.86659L60.4489 9.72974C60.0961 10.1901 59.6612 10.5765 59.1689 10.8642L58.4058 10.001C58.1432 10.1408 57.856 10.2394 57.5607 10.297L57.495 11.4478C57.216 11.4889 56.9288 11.5054 56.6417 11.4807C56.3463 11.4643 56.0673 11.4149 55.7965 11.341L55.8621 10.1901C55.575 10.0997 55.3042 9.96813 55.058 9.7955L54.1965 10.56C53.737 10.2147 53.3513 9.77906 53.0641 9.28583L53.9257 8.52133C53.7944 8.25827 53.6877 7.97056 53.6303 7.67462L52.4733 7.60063ZM56.7729 9.01456C57.8807 9.08032 58.8325 8.23361 58.8981 7.12385C58.9638 6.01408 58.1186 5.06872 57.0191 5.00296C55.9114 4.9372 54.9596 5.78391 54.8939 6.89367C54.8201 7.99522 55.6652 8.94879 56.7729 9.01456Z" fill="#C8E8DE"/>
<path d="M66.8083 40.7127C66.7673 40.4332 66.7591 40.1455 66.7755 39.8578C66.7919 39.5618 66.8411 39.2823 66.915 39.0111L68.0637 39.0768C68.154 38.7891 68.2853 38.5178 68.4494 38.2712L67.6863 37.4081C68.0309 36.9559 68.4658 36.5696 68.9663 36.2736L69.7294 37.1368C69.992 37.0053 70.2792 36.9066 70.5746 36.8409L70.6402 35.69C70.9192 35.6489 71.2064 35.6407 71.5018 35.6571C71.789 35.6735 72.0762 35.7229 72.3469 35.7969L72.2813 36.9477C72.5685 37.0382 72.8393 37.1697 73.0854 37.3341L73.947 36.5696C74.3983 36.9148 74.7839 37.3505 75.0793 37.8438L74.2177 38.6083C74.349 38.8713 74.4475 39.159 74.5131 39.455L75.6619 39.5207C75.6947 39.8002 75.7111 40.088 75.6947 40.3757C75.6783 40.6716 75.6291 40.9511 75.5552 41.2224L74.4065 41.1566C74.308 41.4443 74.1849 41.7156 74.0208 41.9622L74.7839 42.8254C74.4311 43.2857 74.0044 43.6721 73.5121 43.9598L72.749 43.0966C72.4864 43.2282 72.1992 43.335 71.9038 43.3926L71.8382 44.5435C71.5592 44.5846 71.272 44.5928 70.9766 44.5763C70.6812 44.5599 70.4023 44.5106 70.1315 44.4366L70.1971 43.2857C69.9099 43.1953 69.6392 43.0638 69.393 42.8994L68.5314 43.6639C68.0719 43.3186 67.6863 42.8829 67.3991 42.3815L68.2607 41.617C68.1294 41.3539 68.0309 41.0662 67.9653 40.7703L66.8083 40.7127ZM71.1079 42.1266C72.2157 42.1924 73.1675 41.3457 73.2331 40.2359C73.2988 39.1262 72.4536 38.1726 71.3459 38.1068C70.2382 38.041 69.2863 38.8878 69.2207 39.9975C69.1633 41.1073 70.0002 42.0609 71.1079 42.1266Z" fill="#C8E8DE"/>
<path d="M15.0324 5.09339C14.9914 4.81389 14.9832 4.52618 14.9996 4.23846C15.016 3.94252 15.0653 3.66303 15.1309 3.39175L16.2797 3.45751C16.3781 3.1698 16.5012 2.89852 16.6653 2.65191L15.9022 1.78875C16.2468 1.33663 16.6817 0.950265 17.1822 0.654327L17.9453 1.51748C18.2079 1.38595 18.4951 1.2873 18.7905 1.22154L18.8561 0.0788929C19.1351 0.0377904 19.4223 0.0213495 19.7177 0.0460109C20.0049 0.0624519 20.2921 0.111775 20.5628 0.177539L20.4972 1.32841C20.7844 1.42705 21.0552 1.55858 21.3013 1.71477L22.1629 0.950265C22.6224 1.30375 23.008 1.73943 23.2952 2.22444L22.4337 2.98895C22.5649 3.252 22.6634 3.53972 22.7291 3.83566L23.8778 3.90142C23.9106 4.18092 23.927 4.46863 23.9106 4.76457C23.8942 5.05229 23.845 5.34 23.7711 5.61128L22.6224 5.54552C22.5239 5.83323 22.3926 6.10451 22.2367 6.35113L22.9998 7.21428C22.647 7.6664 22.2203 8.06099 21.7198 8.3487L20.9567 7.48555C20.6941 7.61708 20.4069 7.71573 20.1116 7.78149L20.0459 8.93236C19.7669 8.97346 19.4797 8.98168 19.1843 8.96524C18.889 8.9488 18.61 8.89948 18.3392 8.82549L18.4048 7.67462C18.1177 7.57598 17.8469 7.44445 17.6007 7.28004L16.7392 8.04455C16.2797 7.69106 15.894 7.2636 15.6068 6.77037L16.4684 6.00586C16.3289 5.74281 16.2304 5.45509 16.173 5.15915L15.0324 5.09339ZM19.332 6.50731C20.4398 6.57308 21.3916 5.72637 21.4572 4.6166C21.5229 3.50684 20.6777 2.55326 19.57 2.4875C18.4623 2.42173 17.5105 3.26844 17.4448 4.37821C17.3874 5.48797 18.2243 6.44155 19.332 6.50731Z" fill="#C8E8DE"/>
<path d="M87.4615 25.6857L85.7876 25.0856L86.4604 23.5813L87.8882 24.0992L87.4615 25.6857Z" fill="#94C6C0"/>
<path d="M89.8245 27.5847L88.5444 26.3598L89.767 25.2583L90.8665 26.3105L89.8245 27.5847Z" fill="#94C6C0"/>
<path d="M91.2197 30.281L90.5469 28.6369L92.1141 28.1355L92.6885 29.5412L91.2197 30.281Z" fill="#94C6C0"/>
<path d="M91.3921 33.3144L91.4495 31.5388L93.0824 31.7197L93.0332 33.2322L91.3921 33.3144Z" fill="#94C6C0"/>
<path d="M90.3252 36.1587L91.0883 34.5557L92.516 35.3859L91.8596 36.7505L90.3252 36.1587Z" fill="#94C6C0"/>
<path d="M88.1919 38.3126L89.5458 37.1699L90.5058 38.5016L89.3488 39.4881L88.1919 38.3126Z" fill="#94C6C0"/>
<path d="M85.3691 39.4223L87.0677 38.9209L87.4123 40.5321L85.9517 40.9596L85.3691 39.4223Z" fill="#94C6C0"/>
<path d="M82.3412 39.2825L84.0972 39.5126L83.7526 41.1239L82.251 40.9266L82.3412 39.2825Z" fill="#94C6C0"/>
<path d="M79.6333 37.918L81.1431 38.8469L80.1667 40.1786L78.8784 39.3812L79.6333 37.918Z" fill="#94C6C0"/>
<path d="M77.7135 35.5669L78.7064 37.0301L77.2869 37.8522L76.4253 36.6027L77.7135 35.5669Z" fill="#94C6C0"/>
<path d="M76.9092 32.6404L77.2292 34.3831L75.5882 34.5558L75.3174 33.0596L76.9092 32.6404Z" fill="#94C6C0"/>
<path d="M77.3685 29.6397L76.95 31.3578L75.3828 30.8481L75.7438 29.3684L77.3685 29.6397Z" fill="#94C6C0"/>
<path d="M79.002 27.0832L77.9189 28.4807L76.6963 27.3791L77.6235 26.179L79.002 27.0832Z" fill="#94C6C0"/>
<path d="M81.537 25.4144L79.978 26.2529L79.3052 24.7403L80.6426 24.0251L81.537 25.4144Z" fill="#94C6C0"/>
<path d="M84.5239 24.9213L82.7598 25.0528V23.4005L84.2777 23.2854L84.5239 24.9213Z" fill="#94C6C0"/>
<path d="M91.9664 31.6046C92.2864 35.9121 89.0699 39.6607 84.7703 39.9895C80.4707 40.3183 76.7291 37.0877 76.4009 32.7801C76.0808 28.4726 79.2973 24.7241 83.5969 24.3952C87.8965 24.0746 91.6382 27.3053 91.9664 31.6046Z" fill="#94C6C0"/>
<path d="M84.1793 37.2027C81.849 37.2027 79.7977 35.5421 79.2971 33.2568C78.7146 30.5605 80.4213 27.8806 83.1126 27.297C83.4655 27.223 83.8265 27.1819 84.1793 27.1819C86.5096 27.1819 88.561 28.8424 89.0615 31.1277C89.3487 32.4348 89.1025 33.7747 88.3805 34.9009C87.6584 36.0271 86.5425 36.7999 85.2378 37.0876C84.8932 37.1698 84.5404 37.2027 84.1793 37.2027ZM84.1875 27.7409C83.8675 27.7409 83.5475 27.7738 83.2357 27.8477C80.8397 28.3739 79.3218 30.7496 79.8469 33.1417C80.29 35.1722 82.1116 36.6437 84.1793 36.6437C84.4993 36.6437 84.8193 36.6108 85.1311 36.5368C86.2881 36.282 87.2809 35.5914 87.921 34.5968C88.561 33.5939 88.7743 32.4019 88.5199 31.2428C88.0851 29.2206 86.2553 27.7409 84.1875 27.7409Z" fill="white"/>
<path d="M84.179 36.1505C82.341 36.1505 80.7245 34.8435 80.3225 33.035C79.863 30.9059 81.2169 28.7932 83.342 28.3329C83.621 28.2753 83.9082 28.2424 84.1872 28.2424C86.0252 28.2424 87.6416 29.5495 88.0355 31.3498C88.257 32.3856 88.0683 33.4378 87.5022 34.3256C86.936 35.2134 86.0498 35.8299 85.0241 36.0519C84.7452 36.1177 84.4662 36.1505 84.179 36.1505ZM84.1872 28.8014C83.941 28.8014 83.7031 28.8261 83.4569 28.8836C82.5707 29.0727 81.8159 29.5988 81.3235 30.3633C80.8312 31.1278 80.6671 32.0321 80.864 32.9199C81.2005 34.4653 82.5954 35.5915 84.1708 35.5915C84.4169 35.5915 84.6549 35.5669 84.9011 35.5093C85.7872 35.3203 86.5421 34.7942 87.0262 34.0297C87.5186 33.2651 87.6827 32.3609 87.4857 31.4731C87.1575 29.9276 85.7708 28.8014 84.1872 28.8014Z" fill="white"/>
<path d="M83.6377 33.339L82.9238 32.2868L83.4736 31.1524L84.7372 31.0537L85.4429 32.0977L84.9013 33.2404L83.6377 33.339Z" fill="#37869D"/>
<path d="M14.8765 11.0613L12.2344 9.78709L13.2847 8.08545L15.5493 9.17877L14.8765 11.0613Z" fill="#FFBA51"/>
<path d="M17.5183 14.333L15.8608 11.908L17.625 10.9626L19.0363 13.0424L17.5183 14.333Z" fill="#FFBA51"/>
<path d="M18.1586 18.5255L17.937 15.6072L19.9391 15.6647L20.1278 18.172L18.1586 18.5255Z" fill="#FFBA51"/>
<path d="M16.6567 22.4877L17.9286 19.8489L19.6271 20.9011L18.544 23.1617L16.6567 22.4877Z" fill="#FFBA51"/>
<path d="M13.3911 25.1347L15.8117 23.4824L16.7553 25.2416L14.6876 26.6637L13.3911 25.1347Z" fill="#FFBA51"/>
<path d="M9.20654 25.7842L12.1276 25.5623L12.0702 27.5598L9.55937 27.7489L9.20654 25.7842Z" fill="#FFBA51"/>
<path d="M5.25145 24.2798L7.88537 25.554L6.83508 27.2556L4.57861 26.1623L5.25145 24.2798Z" fill="#FFBA51"/>
<path d="M2.6092 21.0081L4.25848 23.4249L2.50253 24.3785L1.08301 22.2987L2.6092 21.0081Z" fill="#FFBA51"/>
<path d="M1.96108 16.8074L2.18262 19.7339L0.188723 19.6763L0 17.1691L1.96108 16.8074Z" fill="#FFBA51"/>
<path d="M3.46252 12.8452L2.19069 15.4922L0.492188 14.44L1.5835 12.1711L3.46252 12.8452Z" fill="#FFBA51"/>
<path d="M6.73675 10.2063L4.31617 11.8586L3.37256 10.0912L5.44031 8.67725L6.73675 10.2063Z" fill="#FFBA51"/>
<path d="M10.9216 9.55698L8.00049 9.77893L8.05793 7.78136L10.5606 7.59229L10.9216 9.55698Z" fill="#FFBA51"/>
<path d="M9.42805 9.21989C4.76742 9.57337 1.28015 13.6425 1.63298 18.3035C1.98581 22.9645 6.04745 26.4665 10.6999 26.113C15.3605 25.7595 18.8478 21.6904 18.495 17.0293C18.1421 12.3683 14.0887 8.8664 9.42805 9.21989Z" fill="#FFBA51"/>
<path d="M10.0682 24.5181C9.92047 24.5181 9.77277 24.5099 9.62507 24.5017C5.85882 24.2633 2.99516 20.9998 3.24132 17.2266C3.47927 13.4863 6.72859 10.5844 10.503 10.831C14.2693 11.0777 17.133 14.3412 16.8868 18.1062C16.6571 21.7067 13.6621 24.5181 10.0682 24.5181ZM10.06 11.6366C6.89269 11.6366 4.25878 14.1192 4.05365 17.2841C3.84031 20.6052 6.36755 23.4824 9.68251 23.6961C12.9975 23.9181 15.8693 21.3615 16.0745 18.0651C16.2878 14.744 13.7688 11.8668 10.4538 11.6531C10.3225 11.6366 10.1912 11.6366 10.06 11.6366Z" fill="white"/>
<path d="M9.31286 19.2324L8.33643 17.8021L9.09132 16.2402L10.8144 16.1086L11.7827 17.539L11.036 19.1009L9.31286 19.2324Z" fill="#F48E39"/>
<path d="M20.2021 91.9674C14.1219 85.6129 16.0173 66.5332 13.3506 56.3973C10.6839 46.2532 5.69501 42.6609 7.25403 40.3838C10.1669 36.1585 32.108 34.2349 37.7697 39.833C47.1074 49.0564 46.4592 91.803 43.0704 92.1153C39.6651 92.4359 20.2021 91.9674 20.2021 91.9674Z" fill="#37A0AB"/>
<path d="M53.0482 93.6609C54.4349 93.1101 59.7028 88.4409 55.5426 86.5913C47.9445 83.2291 20.834 85.1362 19.1273 87.627C17.4206 90.1179 21.1623 93.3814 22.9182 93.5211C24.6659 93.6691 53.0482 93.6609 53.0482 93.6609Z" fill="#37A0AB"/>
<path d="M53.0566 93.5293H22.9102V95.2803H53.0566V93.5293Z" fill="#214F64"/>
<path d="M39.4513 94.4006H36.522V125.375H39.4513V94.4006Z" fill="#214F64"/>
<path d="M50.5705 132.865H47.8545C47.8545 129.437 43.3334 126.543 37.9835 126.543C32.6336 126.543 28.1125 129.437 28.1125 132.865H25.3965C25.3965 127.875 31.0418 123.822 37.9835 123.822C44.9252 123.822 50.5705 127.883 50.5705 132.865Z" fill="#214F64"/>
<path d="M31.2871 35.649C31.7056 36.8986 31.5907 38.0494 30.9097 39.1592C30.2779 40.1868 29.2932 41.4198 29.7856 42.7516C30.2861 44.1079 31.7795 44.3381 32.6738 45.2177C33.7487 46.2617 33.3303 47.8894 33.7323 49.2622C34.2739 51.1036 36.1447 51.1693 37.5642 50.9556C38.3355 50.8405 39.0904 50.5857 39.8699 50.6021C40.9612 50.635 42.1182 51.1036 43.0864 51.6297C44.0382 52.1476 45.2937 52.8956 46.3439 52.2216C47.3614 51.5639 47.2465 50.2569 47.624 49.1882C48.026 48.062 48.9532 48.2593 49.8476 48.0373C51.0866 47.7332 51.1441 46.6727 51.1277 45.4808C51.1113 44.0504 52.2026 43.2859 52.7031 42.0446C53.1954 40.8115 52.2272 40.0552 51.7841 39.0605C51.2589 37.8932 51.7513 36.7342 51.8169 35.5093C52.0385 31.4813 48.6825 28.6287 46.0157 26.7545C44.2188 25.4885 42.2331 24.6665 40.1079 25.4145C37.4986 26.3352 35.9642 28.5219 33.9621 30.4126C33.24 31.0949 32.2472 31.284 31.5579 31.9745C30.6225 32.8952 30.9015 34.4982 31.2871 35.649Z" fill="#213C53"/>
<path d="M60.736 92.1238C58.4303 91.3265 55.9195 92.5431 55.1318 94.853C54.7789 95.8559 54.7789 96.9246 55.1728 97.8206C56.3462 100.492 64.9125 119.375 66.849 123.822C68.4408 127.455 72.5271 126.124 71.2799 122.129C70.3199 119.087 64.6582 98.766 63.5833 95.3627C63.1402 93.9488 62.2376 92.65 60.736 92.1238Z" fill="#FCA887"/>
<path d="M64.3382 76.0774C64.609 73.6935 59.8745 72.0823 58.2908 71.1205C56.4446 70.0107 53.1953 68.5639 51.7019 66.6979C50.9799 61.5683 51.4148 56.1592 51.4968 50.9967C51.5378 48.4813 49.1501 46.5248 46.6885 47.1002C43.2094 47.914 43.6689 51.5804 43.8002 54.326C43.9807 58.165 44.2433 62.0286 44.8669 65.8183C45.1787 67.6843 45.5233 69.5833 46.9921 70.8739C49.5768 73.1592 53.1543 74.4991 56.3051 75.7733C57.9708 76.4474 63.9115 79.7931 64.3382 76.0774Z" fill="#F48E39"/>
<path d="M53.3596 93.7923C51.2426 92.5757 48.5513 93.2991 47.3451 95.42C46.8117 96.3407 47.1235 97.9601 47.3451 98.9301C47.9933 101.774 52.3503 121.356 53.4088 126.091C54.2868 129.962 58.5536 129.42 58.0777 125.269C57.7084 122.095 55.9689 101.076 55.5586 97.5244C55.3863 96.0447 54.7463 94.5979 53.3596 93.7923Z" fill="#FCA887"/>
<path d="M60.2683 84.1828C57.5441 83.2456 54.3687 84.6102 53.1789 87.2161C52.6455 88.3506 52.5389 89.559 52.9245 90.5865C54.0815 93.6363 62.9597 115.758 64.8551 120.838L71.5671 119.424C70.7055 115.955 64.7074 90.7592 63.7474 86.8791C63.3453 85.2679 62.0489 84.7993 60.2683 84.1828Z" fill="#DD6441"/>
<path d="M40.4448 77.8281L40.453 92.0578C40.453 92.0578 60.1048 93.669 61.0402 93.6772C62.5172 93.6855 63.7972 91.6303 63.9121 88.9669C64.0024 86.7474 63.2721 84.7169 62.1398 84.2565C54.7057 81.2478 40.4448 77.8281 40.4448 77.8281Z" fill="#DD6441"/>
<path d="M54.6559 87.1914C52.0713 85.7118 48.6168 86.5009 46.9511 88.9506C46.2126 90.0193 45.8844 91.2277 46.0978 92.3621C46.7132 95.7079 50.0363 118.421 51.0456 123.986L58.2171 123.847C57.9709 120.131 57.454 95.7572 57.175 91.5976C57.0519 89.8631 56.3462 88.1532 54.6559 87.1914Z" fill="#F88950"/>
<path d="M27.644 79.3901C27.644 79.3901 21.9987 91.3838 29.5969 92.1319C36.317 93.3814 47.5173 93.9815 53.22 94.3761C54.9842 94.4994 56.494 92.5265 56.6006 90.0768C56.6827 88.0381 55.7965 86.1063 54.4262 85.7281C48.223 83.9607 27.644 79.3901 27.644 79.3901Z" fill="#F88950"/>
<path d="M45.3429 80.3274L41.2649 87.7998L27.0122 88.2848L29.121 80.7384L45.3429 80.3274Z" fill="#F88950"/>
<path d="M74.702 127.891C73.1594 128.417 72.3553 127.825 70.9193 127.981C69.9265 128.088 69.2208 128.754 68.3182 128.195C67.3254 127.578 67.432 124.71 67.432 124.71L70.8701 123.838C70.8701 123.838 73.5286 125.663 76.1461 125.047C77.9841 124.611 79.2231 125.68 79.2231 125.68C79.3052 126.28 76.3841 127.324 74.702 127.891Z" fill="#214F64"/>
<path d="M70.3039 127.135L70.6978 129.255L69.6639 129.609L68.0146 127.299L70.3039 127.135Z" fill="#214F64"/>
<path d="M67.4405 124.948C67.4323 124.809 67.3174 124.422 67.3174 124.422L70.7472 123.452C70.7472 123.452 74.0704 124.693 76.1381 125.047C75.8509 125.705 74.5053 125.918 72.856 126.091C70.7062 125.458 68.4251 124.603 67.4405 124.948Z" fill="#FCA887"/>
<path d="M60.1616 130.859C58.3728 131.023 57.6754 130.185 56.0918 129.979C55.0004 129.84 54.0732 130.366 53.2527 129.535C52.3501 128.631 53.2035 125.581 53.2035 125.581L57.1092 125.532C57.1092 125.532 59.4888 128.171 62.4427 128.187C64.5186 128.195 65.5689 129.659 65.5689 129.659C65.5115 130.316 62.1145 130.678 60.1616 130.859Z" fill="#214F64"/>
<path d="M55.6488 128.911L55.5339 131.278L54.336 131.385L53.1626 128.5L55.6488 128.911Z" fill="#214F64"/>
<path d="M53.1543 125.836C53.1871 125.68 53.1625 125.236 53.1625 125.236L57.0765 125.08C57.0765 125.08 60.3176 127.258 62.4428 128.179C61.9668 128.804 60.4735 128.689 58.6601 128.458C56.5103 127.225 54.2866 125.721 53.1543 125.836Z" fill="#FCA887"/>
<path d="M41.6424 45.5956C47.4518 46.7547 48.3544 47.0506 48.617 47.3959C48.617 47.3959 48.8467 51.0129 48.8303 57.5729C48.8221 59.5869 48.3626 64.8233 48.3626 64.8233C46.2128 67.9964 44.982 78.8557 44.4323 79.9572C43.3574 81.2232 30.9099 81.5191 29.1211 79.9572C29.1211 79.9572 29.7119 69.1884 30.3519 65.3988C29.9662 55.6821 30.9837 48.3988 31.5335 46.8205C32.5099 46.2861 37.4249 44.7489 41.6424 45.5956Z" fill="#F7EACF"/>
<path d="M45.3265 46.3602C44.3911 46.1547 43.1931 45.9081 41.6423 45.5957C40.1736 45.2998 38.6228 45.2998 37.1704 45.4395C37.4002 46.1547 40.3049 49.3936 43.3901 49.6073C45.064 49.7224 45.4332 47.9139 45.3265 46.3602Z" fill="#FCA38B"/>
<path d="M45.3432 46.1138C45.3432 46.1138 46.1802 51.7695 45.6797 59.694C45.1873 67.6186 42.8652 82.1113 42.8652 82.1113C42.8652 82.1113 48.1823 82.3004 48.8305 81.4208C49.0028 80.2041 48.5105 69.1394 49.1423 64.8318C50.6603 54.4904 49.7741 47.4784 49.7741 47.4784L45.3432 46.1138Z" fill="#FFBA51"/>
<path d="M30.5406 47.1002C30.5406 47.1002 32.1489 45.0122 37.6629 45.0368C39.6814 50.0267 41.2322 70.4382 37.187 82.5963C31.8453 82.8018 25.642 82.1112 25.642 82.1112C25.642 82.1112 25.7405 73.973 25.642 70.8327C24.9118 48.4319 30.5406 47.1002 30.5406 47.1002Z" fill="#FFBA51"/>
<path d="M38.7129 46.2289L43.5458 47.1002L43.7017 41.6665L40.157 41.2144L38.7129 46.2289Z" fill="#FCA38B"/>
<path d="M42.1347 43.7955C42.5204 44.0339 43.3327 44.1407 43.6281 44.1078L43.7019 41.6664L40.1572 41.2224C40.1572 41.2142 40.3624 42.6857 42.1347 43.7955Z" fill="#F78376"/>
<path d="M47.9932 33.076L47.2547 39.0276C46.7624 41.7651 44.9982 43.8037 42.3889 43.3352C39.7796 42.8666 37.318 40.0634 37.8103 37.326L38.7786 31.9333L47.9932 33.076Z" fill="#FCAD95"/>
<path d="M37.0806 36.1175C37.0806 36.1175 41.2407 36.6765 43.013 34.6789C44.7854 32.6731 45.0069 31.5798 45.0069 31.5798L38.5247 29.5986L37.0806 36.1175Z" fill="#213C53"/>
<path d="M47.9766 37.1615C47.9766 37.1615 44.5796 34.9667 44.2432 32.1059C43.9068 29.2452 48.1325 31.8511 48.1325 31.8511L47.9766 37.1615Z" fill="#213C53"/>
<path d="M39.2958 36.693C39.5666 37.5644 39.2302 38.4358 38.5491 38.6577C37.8599 38.8714 37.0804 38.3453 36.8096 37.474C36.5306 36.6026 36.867 35.723 37.5563 35.5093C38.2455 35.2873 39.025 35.8134 39.2958 36.693Z" fill="#FCAD95"/>
<path d="M51.2343 71.4901C50.8487 71.4819 45.3593 70.8078 43.0044 70.2899C41.0187 69.8542 37.2196 69.3199 35.9642 67.4703C35.1108 66.2043 35.3324 63.6149 35.3816 62.1927C35.5129 58.3949 36.0709 54.6217 36.514 50.8567C37.0801 46.1875 30.081 44.8475 28.8584 49.377C27.8737 53.0187 28.1527 57.7126 28.3004 61.4365C28.4727 65.892 29.203 71.0215 33.478 73.3644C37.6955 75.6743 43.029 75.8881 47.7307 76.0032C48.6661 76.0278 49.8066 76.1182 50.939 76.1511C51.0046 74.5892 51.0949 73.0356 51.2343 71.4901Z" fill="#F48E39"/>
<path d="M33.1748 73.2493C33.1748 73.907 33.7082 74.4413 34.3646 74.4413H77.2375C77.8939 74.4413 78.4273 73.907 78.4273 73.2493C78.4273 72.5917 77.8939 72.0574 77.2375 72.0574H34.3646C33.7082 72.0574 33.1748 72.5917 33.1748 73.2493Z" fill="#2B6D87"/>
<path d="M80.2485 71.4326C80.027 72.8136 78.7798 73.9316 77.4505 73.9316H48.699C47.3697 73.9316 46.4753 72.8136 46.6887 71.4326L49.659 52.5337C49.8805 51.1527 51.1278 50.0347 52.457 50.0347H81.2003C82.5296 50.0347 83.424 51.1527 83.2107 52.5337L80.2485 71.4326Z" fill="#2B6D87"/>
<path d="M80.5031 71.9506C80.2897 73.3316 79.0343 74.4496 77.705 74.4496H48.9617C47.6325 74.4496 46.7299 73.3316 46.9514 71.9506L49.9217 53.0435C50.1351 51.6624 51.3905 50.5444 52.7198 50.5444H81.4631C82.7924 50.5444 83.6867 51.6624 83.4734 53.0435L80.5031 71.9506Z" fill="#37A0AB"/>
<path d="M60.9171 62.9246C60.63 64.5769 62.8454 65.8922 65.865 65.8511C68.8763 65.81 71.5513 64.4372 71.8302 62.7849C72.1174 61.1243 69.902 59.8173 66.8906 59.8584C63.8793 59.8912 61.2043 61.2723 60.9171 62.9246Z" fill="#2B6D87"/>
<path d="M95.3629 132.939L96.9302 132.955L93.7219 78.0011L87.6089 77.96L95.3629 132.939Z" fill="#213C53"/>
<path d="M81.0366 132.955H82.6038L79.2889 76.3733H73.1841L81.0366 132.955Z" fill="#213C53"/>
<path d="M10.9872 132.955H9.42822L12.2673 76.3733H18.3638L10.9872 132.955Z" fill="#213C53"/>
<path d="M25.3139 132.955H23.7549L27.0616 76.3733H33.1746L25.3139 132.955Z" fill="#213C53"/>
<path d="M7.70508 77.0967C7.70508 75.5183 8.32868 74.2441 9.09178 74.2441H97.6685C98.4316 74.2441 99.0552 75.5265 99.0552 77.0967C99.0552 78.675 98.4316 79.9574 97.6685 79.9574H9.09178C8.32048 79.9574 7.70508 78.675 7.70508 77.0967Z" fill="#213C53"/>
</svg>
