<svg width="120" height="147" fill="none" xmlns="http://www.w3.org/2000/svg"><path d="M41.358 146.346c.457 0 .808-1.961-.964-2.003-.408-.007-1.814-1.354-2.398-2.038-.464-.529-4.543-1.213-4.578.48-.021 1.064-.33 3.547.351 3.554 1.667 0 5.444.007 7.589.007z" fill="#4D909E"/><path d="M27.37 71.488a143.22 143.22 0 0 1-6.28-4.224 76.488 76.488 0 0 1-2.982-2.236c-.408-.317-.788-.642-1.175-.966l.106-.247c.295-.67.626-1.375.977-2.073.704-1.41 1.463-2.835 2.237-4.246a196.23 196.23 0 0 1 2.384-4.245c.809-1.41 1.631-2.82 2.454-4.203.05-.085.085-.148.127-.226.928-1.833.204-4.083-1.618-5.014a3.71 3.71 0 0 0-5 1.63 264.712 264.712 0 0 0-2.23 4.477 223.104 223.104 0 0 0-2.151 4.52 139.577 139.577 0 0 0-2.054 4.634c-.33.79-.654 1.6-.963 2.461-.155.437-.303.882-.45 1.39-.07.26-.14.521-.211.867a6.728 6.728 0 0 0-.092.606c-.02.219-.049.564.007 1.051l.036.261c.084.642.421 1.241.984 1.65l.9.656.886.585c.591.367 1.175.727 1.759 1.058 1.167.67 2.327 1.29 3.495 1.89 1.167.6 2.342 1.17 3.516 1.728 1.182.557 2.349 1.1 3.559 1.636a1.927 1.927 0 0 0 2.398-.733 1.955 1.955 0 0 0-.62-2.687z" fill="#FCAD95"/><path d="M24.543 43.194c-1.808-1.586-6.063-.014-8.777 5.162-1.702 3.252-4.037 7.892-4.037 7.892-.612 1.685 5.936 6.953 8.946 4.668 0 0 2.187-5.02 4.022-8.66 1.203-2.39 3.123-6.191-.154-9.062z" fill="#DD6441"/><path d="M90.466 54.04c-11.294 0-20.964-6.41-24.65-16.325-4.936-13.322 2.73-28.512 17.09-33.871a29.508 29.508 0 0 1 10.36-1.89c11.293 0 20.97 6.41 24.649 16.325 4.936 13.322-2.729 28.512-17.09 33.872a29.506 29.506 0 0 1-10.359 1.89zm2.8-48.744a26.2 26.2 0 0 0-9.2 1.679C71.43 11.693 64.642 24.958 68.94 36.558c3.193 8.597 11.64 14.154 21.527 14.154a26.2 26.2 0 0 0 9.199-1.678c12.644-4.718 19.431-17.983 15.127-29.584-3.186-8.604-11.639-14.154-21.527-14.154z" fill="#2B6D87"/><path opacity=".3" d="M82.758 3.449C69.235 8.49 62.02 22.694 66.653 35.176 71.281 47.651 86 53.674 99.524 48.632c13.524-5.043 20.739-19.246 16.105-31.728C110.994 4.43 96.282-1.6 82.759 3.45z" fill="#BECAD3"/><path d="M65.086 35.754C70.03 49.07 85.734 55.55 100.094 50.19c14.361-5.352 22.026-20.55 17.09-33.871C112.247 2.997 96.536-3.477 82.175 1.883c-14.36 5.353-22.026 20.55-17.09 33.871zm48.975-18.272c4.304 11.594-2.482 24.866-15.127 29.584s-26.429-.882-30.726-12.475c-4.304-11.6 2.483-24.866 15.127-29.584C95.98.29 109.764 5.89 114.061 17.482z" fill="#37A0AB"/><path d="M89.348 17.891a471.132 471.132 0 0 1-1.835-8.244 32.1 32.1 0 0 0-6.71 2.194 3460.61 3460.61 0 0 0 1.675 8.272 32.233 32.233 0 0 1 6.87-2.222zM106.95 16.41c-.429-2.122-.858-4.238-1.28-6.34C101.69 9.035 97.337 8.647 92.843 9c.429 2.101.85 4.217 1.28 6.34 4.494-.353 8.84.035 12.827 1.072z" fill="#fff"/><path d="M8.726 75.401c-2.067 1.093-4.473.6-5.366-1.107-.9-1.706.057-3.97 2.124-5.063l59.56-31.474c2.067-1.093 2.89-.134 3.783 1.566.893 1.7 1.52 3.505-.548 4.598L8.726 75.4z" fill="#37A0AB"/><path d="M8.15 77.58c-2.54 1.34-5.64.438-6.928-2.01l-.12-.218c-1.286-2.461-.273-5.536 2.265-6.876l34.109-18.025c2.538-1.34 5.64-.437 6.927 2.01l.12.226c1.286 2.447.274 5.528-2.265 6.861L8.15 77.581z" fill="#2B6D87"/><path d="M14.022 145.951c.394.225 1.652-1.319.126-2.215-.351-.211-.928-2.073-1.11-2.954-.148-.692-3.39-3.273-4.234-1.806-.535.924-2.005 2.948-1.414 3.272 1.463.826 4.761 2.666 6.632 3.703z" fill="#4D909E"/><path d="M34.41 90.373s-4.29 20.98-6.934 27.8c-1.266 3.265-7.722-.635-7.61-2.955.535-11.093 1.07-21.29.865-29.09.598-.593 13.679 4.245 13.679 4.245z" fill="#213C53"/><path d="M19.978 112.517c1.147-4.485 8.82.895 7.504 5.656-1.624 5.846-9.34 16.741-13.052 23.025-.394.67-6.787-1.686-5.887-3.618 2.532-5.388 9.037-15.691 11.435-25.063z" fill="#213C53"/><path d="M20.45 88.222c1.533 2.151 10.078 6.065 20.43 1.545L40.05 78.2l-19.664.31s-.253 6.051.064 9.712z" fill="#214F64"/><path d="M32.567 41.79c5.661.452 11.435 3.322 11.146 6.961-.14 1.806-1.364 5.05-2.074 14.366-.851 11.071 1.118 15.444-1.132 16.741-4.522 2.596-20.958 2.363-21.577-.924-.654-3.49-.197-31.762.07-34.139.387-3.293 7.905-3.455 13.567-3.004z" fill="#F88950"/><path d="M59.157 46.27c-1.027 1.797-4.22 11.156-5.085 10.923-1.99-.67-3.368-2.003-4.909-3.385-1.589-1.432-3.572-4.507-5.717-5.254-4.487-1.573-6.013 3.963-3.312 6.7 3.621 3.674 9.22 10 14.747 8.18 5.218-1.714 6.337-13.886 6.87-16.728.48-2.468-2.186-1.467-2.594-.437z" fill="#FCAD95"/><path d="M42.096 44.88c3.024 2.073 7.195 6.284 12.033 10.67 1.182 2.27-1.856 8.667-5.338 8.23-4.03-2.2-10.338-7.772-10.338-7.772-8.214-6.347-1.385-14.576 3.643-11.128z" fill="#F88950"/><path d="m27.947 41.84 4.95.204.043-6.466-4.6-.219-.393 6.481z" fill="#FFA58F"/><path d="M35.886 30.69s.12 3.11.022 4.557c-.155 2.228-.753 4.386-2.448 4.407-2.11.028-3.143-2.292-3.03-4.506l-.008-4.436 5.464-.021z" fill="#FFAE99"/><path d="M27.18 36.206c-.253-.804-.33-2.892-.69-3.837-.358-.945-2.334-5.26 2.547-6.107.844-.148 7.58-1.48 7.904 2.13.289 3.195-.485 2.856-1.434 3.209-.598.225-.5 1.03-2.237 1.142-.907.064-1.638-.26-1.94.79-.366 1.255-.24 2.743-.64 3.441-.45.776-2.772 1.622-3.51-.768z" fill="#213C53"/><path d="M31.906 34.097c.302.656.127 1.39-.394 1.629-.52.24-1.188-.099-1.49-.762-.31-.663-.127-1.389.393-1.629.527-.24 1.196.099 1.49.762z" fill="#FFAE99"/><path d="M24.76 90.02c6.161 6.263 7.997 17.151 9.755 24.471.823 3.449 8.91 3.548 8.924-1.022.035-11.241-1.835-20.592-2.841-27.7-.007 0-18.72 1.325-15.837 4.251z" fill="#214F64"/><path d="M43.411 113.201c-.316-6.58-9.874-4.196-8.995.663 1.083 6.008-1.188 20.549-1.526 27.855-.035.811 6.154 2.088 6.456 0 .605-4.16 4.311-23.405 4.065-28.518z" fill="#214F64"/><path d="M34.578 42.052a19.374 19.374 0 0 0-2.011-.261c-1.927-.155-4.058-.233-6.062-.148.52.712 1.66 1.756 3.931 1.756 2.187 0 3.481-.776 4.142-1.347z" fill="#FFA58F"/><path d="M30.429 43.68c-2.3 0-3.523-1.015-4.142-1.868a.275.275 0 0 1 .063-.388.273.273 0 0 1 .387.064c.541.747 1.624 1.643 3.692 1.643 2.053 0 3.291-.698 3.973-1.277a.284.284 0 0 1 .394.029.286.286 0 0 1-.028.395c-.76.634-2.117 1.396-4.34 1.403z" fill="#DD6441"/><path d="M58.447 43.356c.098-1.198.506-1.868.556-1.882.478-.156.21 1.84.717 1.784.767-.085 1.118-3.71 1.575-3.759.218-.021.162 2.25.162 2.25s.682-2.384 1.055-2.328c.767.12.274 2.828.274 2.828s.654-1.77.739-1.297c.295 1.6-.69 5.585-2.42 5.712-2.552.183-2.756-2.109-2.658-3.308z" fill="#FCAD95"/></svg>