<svg width="131" height="148" fill="none" xmlns="http://www.w3.org/2000/svg"><path d="M56.323 133.313c.033-.172.058-.475.058-.475l3.617.295s2.276 1.048 4.306 1.736c1.825.614 3.233.811 3.052 1.548-.392 1.638-2.488 2.073-4.296 2.015-1.662-.049-3.078-.565-4.502-.925-.982-.254-1.9.131-2.562-.729-.63-.795.098-2.884.327-3.465z" fill="#214F64"/><path d="M38.947 12.786c-1.572.237-3.013-.598-2.153-2.154.86-1.549 3.912-2.343 5.214-1.147 1.301 1.196.998 3.432 0 3.391-.999-.041-1.114-.385-3.062-.09z" fill="#B04844"/><path d="M9.874 57.183s-3.7 3.08-5.467 2.842c-1.76-.237-2.423-1-2.423-1l-1.416-.99L.83 56.7l1.137-.705s2.963-1.278 3.094-1.368c.131-.09-1.465-.86-1.555-1.18-.09-.327.074-.671.074-.671l4.387 1.335 1.907 3.072zM75.017 2.8c-.114-.999-.843-.351-.843-.351S73.847.769 73.372.58c-.376-.156-1.506.63-1.506.63l-.982 2.753s-1.007-1.704-1.162-.778c-.033.188.532 1.925.875 2.99a5.837 5.837 0 0 0-.09.63c-.073.746-.106 1.286-.106 1.286l2.554 1.172s.933-1.401 1.497-2.875c-.008-.009.835-1.123.565-3.588z" fill="#FCAD95"/><path d="m27.177 133.542-.27-1.908-4.043-.328-.917 2.023c-.025.041-1.383 2.138-1.392 3.334-.024 1.72 1.711 1.778 3.618 1.778 1.465 0 2.881-.828 3.266-1.737.45-1.106-.262-3.162-.262-3.162z" fill="#214F64"/><path d="M55.103 100.859c-2.349-.983-5.287.016-6.547 2.211-.557.959-.753 1.999-.483 2.917.794 2.727 5.713 22.771 7.35 27.195.188.499 6.015.254 5.82-.836 0 0-3.078-24.631-3.635-28.055-.221-1.442-.966-2.785-2.505-3.432z" fill="#DD6441"/><path d="m52.173 71.616-13.431 3.702s9.036 29.538 9.527 30.906c.786 2.179 3.348 3.293 5.852 2.458 2.079-.697 3.601-2.548 3.364-4.375-1.072-8.306-5.312-32.691-5.312-32.691z" fill="#DD6441"/><path d="M29.06 99.999c2.184-1.032 4.902-.099 6.072 2.088.524.951.696 1.999.45 2.933-.736 2.76-7.12 27.039-7.12 27.039-1.17.934-6.622.541-6.376-1.024.556-3.555 3.773-23.803 4.289-27.268.204-1.45 1.26-3.088 2.684-3.768z" fill="#F88950"/><path d="m31.196 70.207 13.472 3.645s-8.602 29.792-9.085 31.168c-.761 2.179-3.422 3.17-5.762 2.4-1.949-.639-3.618-2.22-3.373-4.047 1.105-8.29 4.748-33.166 4.748-33.166z" fill="#F88950"/><path d="M31.154 70.936c0-8.42 1.916-12.164 1.916-12.164l17.171-2.466s1.605 7.258 2.087 15.457l-9.51 6.152-11.664-6.979z" fill="#F88950"/><path d="M74.01 9.092c.123-.557-1.137-.451-2.128-.967-1.105-.582-1.956-1.72-2.21-.778-.065.246-.155.483-.229.72a128.446 128.446 0 0 1-1.645 4.612c-.982 2.58-2.07 5.103-3.503 7.463-.14.245-1.727 1.277-2.25 1.605-1.605 1.008-3.291 1.884-4.994 2.728-2.962 1.466-6 2.81-9.044 4.095-2.938 1.196-3.167 5.415-.352 6.898 2.595 1.367 5.844-1.106 8.07-2.286 3.364-1.77 6.704-3.653 9.798-5.873 1.817-1.302 3.601-2.752 4.55-4.817 1.564-3.407 2.538-7.11 3.356-10.755.14-.581.41-1.589.581-2.645z" fill="#214F64"/><path d="M40.936 28.21c5.762.09 6.67.205 6.973.467 0 0 1.44 3.89 3.274 9.264.573 1.688-.884 5.882-.884 5.882-1.94 3.776-.58 15.244-.696 15.563-4.395 5.144-15.935.328-17.892-.745l1.056-5.472c-.77-9.215-1.653-20.855-1.367-22.305.86-.614 5.353-2.72 9.536-2.654z" fill="#F7EACF"/><path d="M26.186 32.756c-2.242 4.899-3.347 11.69-5.189 13.491-3.683 2.843-10.272 5.988-13.48 7.692-.68.36.434 1.13.95 2.13.548 1.048.531 2.31 1.112 2.146 2.12-.598 4.306-.926 6.41-1.59 2.528-.794 8.34-2.285 13.16-9.722 1.63-2.507 1.834-3.785 3.209-6.43.974-1.9 2.283-3.998 2.57-6.144.4-2.4-1.596-4.612-4.035-4.431-2.128.172-3.454.114-4.707 2.858z" fill="#214F64"/><path d="M41.255 31.06c1.62-.09 2.504-.876 2.98-1.736l-.09-1.482s-4.486-.32-7.613.647l1.228 1.785c.933.492 2.112.86 3.495.787z" fill="#FCA38B"/><path d="M42.883 24.04c1.58-.712 4.944-2.342 3.913-3.996-.892-1.426.213-2.77-.336-4.252-.523-1.417-1.4-2.097-2.488-3.063-1.269-1.13-3.683-1.77-5.426-.778-.623.352-.893.868-1.547 1.138-.582.238-2.366.311-2.415 2.392-.025 1.106.336 1.442-.647 2.285-1.94 1.655-.785 2.892-.63 3.711.18.958 3.299 1.605 4.346 2.76l5.23-.196z" fill="#BF5A44"/><path d="m38.44 28.448 4.116.032-.613-4.25-2.996.122-.508 4.096z" fill="#FCA38B"/><path d="M40.936 26.097c.352.13 1.031.106 1.276.04l-.27-1.908-2.995.123s.368 1.122 1.989 1.745z" fill="#F78376"/><path d="M44.21 17.136v4.587c-.025 2.187-1.105 4.005-3.152 3.98-2.782-.032-4.28-1.883-4.264-4.07l.05-4.317 7.366-.18z" fill="#FCAD95"/><path d="M35.845 19.446c.892.72 3.56-1.295 4.87-2.343 1.031.737 3.004 2.392 3.814 2.211.393-.09.254-2.285.09-2.981-.54-2.36-4.24-2.244-4.24-2.244s-2.922-.279-4.035 1.67c-.36.64-1.007 3.277-.5 3.687z" fill="#BF5A44"/><path d="M36.573 28.054s2.005 7.848 2.292 16.408c.27 7.962 1.4 22.026.614 23.754-.745 1.63-10.608 1.63-10.608-1.4 0-4.096.188-12.28 0-16.367-.22-4.718-1.588-17.193-1.203-18.872.393-1.671 5.557-2.458 8.905-3.523zM44.16 27.62s6.72-.278 8.84-.606c.474.533.867 11.378 1.604 21.077.156 2.113.639 12.557.712 17.021.041 2.589-7.833 3.449-7.915 1.696-.319-7.225-.245-16.637-.417-21.347-.23-6.528-2.824-17.84-2.824-17.84z" fill="#214F64"/><path d="M100.538 147.541c-.532.008-.957-2.351 1.097-2.425.475-.016 2.095-1.662 2.775-2.482.532-.647 5.279-1.515 5.328.525.033 1.286.417 4.276-.377 4.284-1.939.024-6.335.073-8.823.098zM70.327 143.626c-.499-.189-.04-2.54 1.9-1.86.441.156 2.553-.786 3.486-1.31.729-.41 5.468.507 4.772 2.432-.434 1.205-1.162 4.137-1.899 3.859-1.817-.689-5.926-2.237-8.259-3.121z" fill="#4D909E"/><path d="M97.82 78.3s1.605 22.927 2.424 31.856c.384 4.202 9.903 4.39 9.952 1.589.238-13.385.622-28.555-.638-37.492-.647-.745-11.737 4.047-11.737 4.047z" fill="#BDDAE5"/><path d="M110.442 111.27c-1.163-5.456-10.313-7.061-10.199-1.106.123 6.373 1.875 23.083 2.701 31.856.09.934 7.727 2.121 7.727-.451.843-6.618 1.645-21.526-.229-30.299z" fill="#BDDAE5"/><path d="M110.196 79.2s-10.976 6.333-23.54 2.327l-.548-13.966 22.778-2.302 1.31 13.942z" fill="#DDEBF4"/><path d="M111.031 61.917a192.965 192.965 0 0 0 3.462-2.998 134 134 0 0 0 3.372-3.08 90.12 90.12 0 0 0 3.209-3.162c.442-.442.843-.9 1.244-1.351-.057-.09-.107-.18-.164-.279a57.784 57.784 0 0 0-1.506-2.326 143.6 143.6 0 0 0-3.372-4.71 270.49 270.49 0 0 0-3.544-4.685 351.706 351.706 0 0 0-3.626-4.629c-.074-.09-.131-.172-.188-.245a4.499 4.499 0 0 1 1.129-6.258 4.485 4.485 0 0 1 6.254 1.13 445.93 445.93 0 0 1 3.396 4.988 452.949 452.949 0 0 1 3.315 5.046c1.089 1.704 2.169 3.416 3.217 5.21a58.593 58.593 0 0 1 1.547 2.785c.253.492.507 1 .761 1.59.131.302.254.597.393.998.065.205.131.41.204.705.066.262.156.663.164 1.261v.312c0 .778-.303 1.556-.908 2.138l-.974.925-.966.844a45.694 45.694 0 0 1-1.932 1.548 87.863 87.863 0 0 1-3.888 2.826 131.91 131.91 0 0 1-3.928 2.638c-1.318.86-2.636 1.695-3.995 2.53-.965.59-2.242.41-2.987-.482-.81-.967-.688-2.433.311-3.269z" fill="#FCAD95"/><path d="M109.828 27.637c1.907-2.196 7.26-1.008 11.353 4.742a766.642 766.642 0 0 1 6.114 8.782c1.006 1.916-5.983 9.272-9.961 7.036 0 0-3.43-5.644-6.221-9.699-1.825-2.662-4.747-6.905-1.285-10.861z" fill="#F88950"/><path d="M98.148 24.278c-6.867.18-14.053 3.146-13.988 7.356.033 2.089.475 6.225.614 17.013.172 12.82-1.522 18.734 1.097 20.364 5.254 3.268 24.759 3.252 25.749-.5 1.056-3.989 2.808-37.197 2.66-39.949-.204-3.825-9.265-4.472-16.132-4.284z" fill="#FFAB4B"/><path d="M64.762 30.487c1.49 2.007 6.647 12.762 7.653 12.37 2.292-1.09 3.757-2.884 5.41-4.76 1.703-1.941 3.65-5.906 6.123-7.11 5.164-2.523 7.784 3.89 4.927 7.552-3.822 4.915-9.65 13.287-16.542 11.894-6.515-1.319-9.568-15.735-10.623-19.061-.917-2.883 2.422-2.064 3.052-.885z" fill="#FCAD95"/><path d="M84.324 28.169c-3.331 2.916-7.014 6.766-12.212 12.713-1.096 2.891 3.463 10.124 7.571 9.1 4.527-3.21 10.469-10.828 10.469-10.828 5.55-4.53-.278-15.826-5.828-10.985z" fill="#F88950"/><path d="m103.91 24.524-6.065-.098.393-7.905 5.639.066.033 7.937z" fill="#FFA58F"/><path d="M94.989 10.353s-.36 3.793-.344 5.562c.033 2.728.614 5.414 2.685 5.554 2.578.18 4.002-2.58 4.027-5.292l.319-5.414-6.687-.41z" fill="#FFAE99"/><path d="M105.244 17.7c.36-.966.606-3.505 1.113-4.627.5-1.13 1.294-3.465 1.015-4.49-.278-1.015-1.547-.917-1.907-1.367-.368-.443-1.064-1.294-2.087-1.507-1.031-.213-1.94.819-2.21.507-.581-.639-2.16-1.056-2.84-.229-.638.786-1.498.098-1.98-.123-1.613-.729-2.35 1.22-1.883 1.925.49.746.671 1.139.45 1.655-.147.336-.663 1.548.483 2.04.72.31.54 1.286 2.66 1.556 1.113.139 2.022-.197 2.324 1.106.361 1.556.099 3.366.549 4.25.466.967 3.241 2.172 4.313-.695z" fill="#AF683B"/><path d="M99.605 14.793c-.417.786-.253 1.687.369 2.015.614.327 1.457-.041 1.874-.828.426-.786.254-1.687-.368-2.023-.614-.32-1.457.05-1.875.836z" fill="#FFAE99"/><path d="M99.965 80.954s-7.26 20.896-9.6 29.644c-1.097 4.12-10.772 1.196-10.338-1.605 2.062-13.385 4.96-24.926 6.425-33.445l13.513 5.406z" fill="#DDEBF4"/><path d="M80.608 105.364c1.064-5.906 10.96-1.024 9.83 4.808-1.203 6.25-5.746 23.067-8.054 31.553-.245.901-8.561-.073-8.127-2.613.859-4.988 5.254-27.686 6.351-33.748z" fill="#DDEBF4"/><path d="M95.7 24.458a24.62 24.62 0 0 1 2.448-.18c2.333-.065 4.911-.024 7.317.197-.679.794-2.136 1.925-4.878 1.785-2.627-.13-4.133-1.105-4.886-1.802z" fill="#FFA58F"/><path d="M105.466 24.475c-.679.794-2.136 1.925-4.878 1.786-2.627-.131-4.133-1.106-4.895-1.802l9.773.016z" fill="#FFA58F"/><path d="M101.046 26.916c2.75 0 4.248-1.253 4.919-2.023l-.982-.844c-.672.778-1.965 1.695-4.355 1.564-2.373-.122-3.749-.95-4.485-1.63l-.876.95c.892.82 2.537 1.827 5.296 1.975.155.008.319.008.483.008z" fill="#F88950"/><path d="M65.204 26.891c-.286-1.425-.876-2.17-.933-2.179-.59-.114.008 2.236-.614 2.236-.933.009-1.866-4.284-2.422-4.275-.27 0 .122 2.72.122 2.72s-1.154-2.761-1.596-2.639c-.9.246.066 3.424.066 3.424s-1.04-2.03-1.072-1.45c-.132 1.958 1.62 6.586 3.715 6.496 3.11-.139 3.029-2.9 2.734-4.333z" fill="#FCAD95"/></svg>