<svg width="100" height="133" fill="none" xmlns="http://www.w3.org/2000/svg"><path d="m45.138 6.762-3.455-1.668 1.379-2.22 2.954 1.422-.878 2.466zM50.126 12.369l-2.158-3.173 2.298-1.242 1.846 2.721-1.986 1.694zM51.645 19.718l-.288-3.823 2.61.074.246 3.28-2.568.469zM49.298 26.853l1.657-3.46 2.224 1.372-1.428 2.968-2.453-.88zM43.702 31.851l3.16-2.162 1.238 2.302-2.708 1.85-1.69-1.99zM36.358 33.372l3.815-.288L40.1 35.7l-3.273.246-.468-2.573zM29.235 31.013l3.455 1.668-1.37 2.228-2.963-1.43.878-2.466zM24.255 25.415l2.158 3.164-2.306 1.242-1.846-2.713 1.994-1.693zM22.729 18.057l.287 3.823-2.61-.074-.245-3.28 2.568-.469zM25.084 10.922l-1.666 3.46-2.215-1.372 1.42-2.968 2.46.88zM30.68 5.924l-3.168 2.17-1.239-2.31 2.716-1.85 1.69 1.99zM38.016 4.403l-3.816.288.074-2.614 3.274-.247.468 2.573z" fill="#94C6C0"/><path d="M36.08 4.197c-8.1.609-14.171 7.686-13.556 15.8.607 8.114 7.672 14.197 15.77 13.58 8.1-.608 14.171-7.686 13.564-15.8-.615-8.113-7.68-14.196-15.779-13.58zm1.722 22.878a8.202 8.202 0 0 1-8.788-7.571c-.336-4.521 3.045-8.467 7.557-8.804 4.513-.345 8.452 3.05 8.788 7.57.345 4.522-3.044 8.468-7.557 8.805z" fill="#94C6C0"/><path d="M34.75 16.734a3.25 3.25 0 0 0 .295 4.595 3.236 3.236 0 0 0 4.587-.296 3.25 3.25 0 0 0-.295-4.595 3.251 3.251 0 0 0-4.587.296z" fill="#94C6C0"/><path d="m37.674 17.875-.976 2.038 9.216 4.433.977-2.038-9.217-4.433z" fill="#94C6C0"/><path d="m36.556 17.955-8.453 5.776 1.272 1.867 8.452-5.776-1.271-1.867z" fill="#94C6C0"/><path d="m37.547 8.584-2.25.17.768 10.214 2.25-.17-.768-10.214z" fill="#94C6C0"/><path d="M37.203 29.533c-.23 0-.46-.008-.69-.025a10.521 10.521 0 0 1-7.294-3.592 10.577 10.577 0 0 1-2.626-7.71c.378-5.813 5.416-10.318 11.283-9.94 2.83.181 5.424 1.464 7.294 3.593a10.57 10.57 0 0 1 2.618 7.71c-.353 5.59-5.005 9.964-10.585 9.964zm-.025-20.551c-5.194 0-9.526 4.069-9.862 9.273a9.833 9.833 0 0 0 2.445 7.176 9.837 9.837 0 0 0 6.794 3.346c5.473.353 10.158-3.84 10.503-9.248a9.85 9.85 0 0 0-2.437-7.177 9.805 9.805 0 0 0-6.794-3.346 8.708 8.708 0 0 0-.649-.024z" fill="#fff"/><path d="m36.44 20.45-.977-1.431.747-1.562 1.723-.132.977 1.43-.747 1.563-1.723.131z" fill="#37869D"/><path d="m72.552 14.974-2.15-1.447 1.14-1.356 1.838 1.241-.828 1.562zM75.35 19.216l-1.14-2.335 1.665-.6.968 1.998-1.493.937zM75.654 24.296l.18-2.598 1.74.313-.156 2.22-1.764.065zM73.38 28.834l1.445-2.146 1.354 1.135-1.24 1.85-1.558-.84zM69.147 31.637l2.33-1.134.6 1.66-1.995.979-.935-1.505zM64.076 31.941l2.593.181-.312 1.743-2.216-.156-.065-1.768zM59.546 29.664l2.142 1.455-1.132 1.357-1.846-1.25.836-1.562zM56.749 25.422l1.14 2.335-1.666.6-.976-1.997 1.502-.938zM56.445 20.35l-.18 2.59-1.74-.313.156-2.22 1.764-.057zM58.718 15.804l-1.453 2.146-1.353-1.134 1.247-1.842 1.559.83zM62.952 13.001l-2.33 1.143-.6-1.669 1.994-.97.936 1.496zM68.014 12.697l-2.584-.172.311-1.751 2.216.156.057 1.767z" fill="#FFBA51"/><path d="M66.743 12.377c-5.481-.387-10.24 3.756-10.626 9.256-.377 5.491 3.75 10.259 9.24 10.637 5.48.386 10.24-3.757 10.617-9.256.386-5.491-3.75-10.26-9.23-10.637zM65.66 27.864c-3.052-.214-5.358-2.869-5.145-5.935.214-3.058 2.864-5.368 5.916-5.154a5.545 5.545 0 0 1 5.145 5.935 5.54 5.54 0 0 1-5.916 5.154z" fill="#FFBA51"/><path d="M64.625 20.638a2.206 2.206 0 0 0-.254 3.108 2.196 2.196 0 0 0 3.102.255 2.206 2.206 0 0 0 .254-3.108 2.196 2.196 0 0 0-3.102-.255z" fill="#FFBA51"/><path d="m66.476 21.689-.854 1.267 5.739 3.882.854-1.267-5.74-3.883z" fill="#FFBA51"/><path d="m65.717 21.638-6.225 3.042.67 1.374 6.224-3.041-.67-1.375z" fill="#FFBA51"/><path d="m65.772 15.346-.48 6.921 1.523.106.48-6.921-1.523-.106z" fill="#FFBA51"/><path d="M66.053 29.525c-.5 0-1-.058-1.501-.157-3.881-.83-6.367-4.66-5.539-8.54.698-3.305 3.66-5.706 7.032-5.706.5 0 1.001.05 1.502.156 3.881.823 6.36 4.661 5.538 8.542-.705 3.304-3.66 5.705-7.031 5.705zm-.008-13.91c-3.142 0-5.891 2.237-6.54 5.32-.762 3.616 1.551 7.184 5.162 7.948.46.1.927.148 1.395.148 3.142 0 5.891-2.236 6.54-5.31.763-3.617-1.543-7.185-5.154-7.95a6.28 6.28 0 0 0-1.403-.155z" fill="#fff"/><path d="M52.473 7.6c-.032-.279-.049-.567-.032-.854a4.15 4.15 0 0 1 .139-.847l1.149.066c.098-.288.23-.56.385-.806l-.763-.863c.345-.452.78-.838 1.28-1.134l.763.863c.263-.132.55-.23.846-.296l.065-1.151c.28-.041.566-.058.862-.033.287.016.574.066.845.14l-.066 1.15c.288.091.558.23.804.395l.862-.764c.451.345.837.789 1.132 1.282l-.861.765c.131.263.23.55.295.846l1.149.066c.033.28.05.567.033.855a4.052 4.052 0 0 1-.14.847l-1.148-.066c-.099.288-.23.559-.386.806l.763.863a4.44 4.44 0 0 1-1.28 1.134l-.763-.863a3.04 3.04 0 0 1-.845.296l-.066 1.15a3.692 3.692 0 0 1-.853.034 4.038 4.038 0 0 1-.846-.14l.066-1.15a2.93 2.93 0 0 1-.804-.396l-.861.765a4.308 4.308 0 0 1-1.133-1.274l.862-.765a3.34 3.34 0 0 1-.296-.846L52.473 7.6zm4.3 1.415a2.011 2.011 0 0 0 2.125-1.891 2.004 2.004 0 0 0-1.879-2.121 2.011 2.011 0 0 0-2.125 1.89 1.998 1.998 0 0 0 1.879 2.122zM66.808 40.713a4.241 4.241 0 0 1 .107-1.702l1.149.066a3.17 3.17 0 0 1 .385-.806l-.763-.863c.345-.452.78-.838 1.28-1.134l.763.863c.263-.132.55-.23.846-.296l.065-1.151a4.277 4.277 0 0 1 1.707.107l-.066 1.15c.287.091.558.223.804.387l.862-.764c.451.345.837.78 1.132 1.274l-.861.764c.131.263.23.551.295.847l1.149.066c.033.28.05.567.033.855a4.052 4.052 0 0 1-.14.846l-1.149-.065a3.471 3.471 0 0 1-.385.805l.763.863c-.353.46-.78.847-1.272 1.135l-.763-.863c-.263.131-.55.238-.845.296l-.066 1.15a4.27 4.27 0 0 1-1.706-.106l.065-1.151a3.157 3.157 0 0 1-.804-.387l-.862.765a4.24 4.24 0 0 1-1.132-1.282l.862-.765a3.694 3.694 0 0 1-.296-.847l-1.157-.057zm4.3 1.414a2.011 2.011 0 0 0 2.125-1.891 2.012 2.012 0 0 0-1.887-2.13 2.011 2.011 0 0 0-2.125 1.892 2.018 2.018 0 0 0 1.887 2.129zM15.032 5.093A4.241 4.241 0 0 1 15 4.238a4.68 4.68 0 0 1 .13-.846l1.15.066c.098-.288.221-.56.385-.806l-.763-.863c.345-.452.78-.839 1.28-1.135l.763.863c.263-.131.55-.23.846-.295l.065-1.143c.28-.041.566-.058.862-.033.287.016.574.066.845.132l-.066 1.15c.287.099.558.23.804.387l.862-.765c.46.354.845.79 1.132 1.274l-.861.765c.13.263.23.55.295.847l1.149.065c.033.28.049.568.033.864a4.143 4.143 0 0 1-.14.846l-1.149-.065c-.098.287-.23.559-.385.805l.763.863c-.353.452-.78.847-1.28 1.135l-.763-.863a3.68 3.68 0 0 1-.845.295l-.066 1.151a4.274 4.274 0 0 1-1.707-.107l.066-1.15a3.485 3.485 0 0 1-.804-.395l-.862.765a4.412 4.412 0 0 1-1.132-1.275l.861-.764a3.05 3.05 0 0 1-.295-.847l-1.14-.066zm4.3 1.414a2.011 2.011 0 0 0 2.125-1.89 2.012 2.012 0 0 0-1.887-2.13 2.011 2.011 0 0 0-2.125 1.891 2.018 2.018 0 0 0 1.887 2.13z" fill="#C8E8DE"/><path d="m87.462 25.686-1.674-.6.672-1.505 1.428.518-.427 1.587zM89.825 27.585l-1.28-1.225 1.222-1.102 1.1 1.053-1.043 1.274zM91.22 30.281l-.673-1.644 1.567-.502.575 1.406-1.47.74zM91.392 33.314l.058-1.775 1.632.18-.049 1.513-1.64.082zM90.325 36.159l.763-1.603 1.428.83-.656 1.364-1.535-.591zM88.192 38.313l1.354-1.143.96 1.332-1.157.986-1.157-1.175zM85.37 39.422l1.698-.501.344 1.611-1.46.428-.583-1.538zM82.341 39.282l1.756.23-.344 1.612-1.502-.197.09-1.645zM79.633 37.918l1.51.929-.976 1.332-1.289-.798.755-1.463zM77.713 35.567l.993 1.463-1.42.822-.86-1.25 1.287-1.035zM76.91 32.64l.32 1.743-1.642.173-.27-1.496 1.591-.42zM77.368 29.64l-.418 1.718-1.567-.51.36-1.48 1.626.272zM79.002 27.083l-1.083 1.398-1.223-1.102.928-1.2 1.378.904zM81.537 25.414l-1.559.839-.673-1.513 1.338-.715.894 1.39zM84.524 24.921l-1.764.132V23.4l1.518-.116.246 1.636z" fill="#94C6C0"/><path d="M91.966 31.605c.32 4.307-2.896 8.056-7.196 8.384-4.3.33-8.04-2.901-8.37-7.209-.32-4.307 2.897-8.056 7.197-8.385 4.3-.32 8.041 2.91 8.37 7.21z" fill="#94C6C0"/><path d="M84.18 37.203c-2.331 0-4.382-1.66-4.883-3.946-.582-2.696 1.124-5.376 3.816-5.96a5.23 5.23 0 0 1 1.066-.115c2.33 0 4.382 1.66 4.882 3.946a4.972 4.972 0 0 1-.68 3.773 4.977 4.977 0 0 1-3.143 2.187 4.541 4.541 0 0 1-1.059.115zm.007-9.462c-.32 0-.64.033-.951.107a4.45 4.45 0 0 0-3.39 5.294c.444 2.03 2.266 3.502 4.333 3.502.32 0 .64-.033.952-.107a4.434 4.434 0 0 0 2.79-1.94 4.432 4.432 0 0 0 .599-3.354c-.435-2.022-2.265-3.502-4.332-3.502z" fill="#fff"/><path d="M84.179 36.15c-1.838 0-3.454-1.306-3.856-3.115-.46-2.13.894-4.242 3.019-4.702.279-.058.566-.09.845-.09a3.966 3.966 0 0 1 3.849 3.107 3.952 3.952 0 0 1-.534 2.976 3.91 3.91 0 0 1-2.478 1.726 3.651 3.651 0 0 1-.845.099zm.008-7.349c-.246 0-.484.025-.73.083a3.353 3.353 0 0 0-2.133 1.48 3.344 3.344 0 0 0-.46 2.556 3.413 3.413 0 0 0 3.307 2.672c.246 0 .484-.025.73-.083a3.316 3.316 0 0 0 2.125-1.48 3.343 3.343 0 0 0 .46-2.556 3.39 3.39 0 0 0-3.299-2.672z" fill="#fff"/><path d="m83.638 33.339-.714-1.052.55-1.135 1.263-.098.706 1.044-.542 1.142-1.263.099z" fill="#37869D"/><path d="m14.877 11.061-2.643-1.274 1.05-1.702L15.55 9.18l-.672 1.882zM17.518 14.333l-1.657-2.425 1.764-.945 1.411 2.08-1.518 1.29zM18.159 18.526l-.222-2.919 2.002.058.189 2.507-1.97.354zM16.657 22.488l1.272-2.64 1.698 1.053-1.083 2.26-1.887-.673zM13.391 25.135l2.42-1.653.944 1.76-2.067 1.422-1.297-1.53zM9.207 25.784l2.92-.222-.057 1.998-2.51.189-.353-1.965zM5.251 24.28l2.634 1.274-1.05 1.702-2.256-1.094.672-1.882zM2.61 21.008l1.648 2.417-1.755.953-1.42-2.08 1.526-1.29zM1.961 16.807l.222 2.927-1.994-.058L0 17.17l1.961-.362zM3.463 12.845 2.19 15.492.492 14.44l1.091-2.269 1.88.674zM6.737 10.206l-2.42 1.653-.944-1.768L5.44 8.677l1.297 1.53zM10.922 9.557 8 9.779l.058-1.998 2.503-.189.36 1.965z" fill="#FFBA51"/><path d="M9.428 9.22c-4.66.353-8.148 4.422-7.795 9.083.353 4.662 4.414 8.163 9.067 7.81 4.66-.354 8.148-4.423 7.795-9.084-.353-4.66-4.406-8.163-9.067-7.81z" fill="#FFBA51"/><path d="M10.068 24.518c-.148 0-.295-.008-.443-.016-3.766-.239-6.63-3.502-6.384-7.275.238-3.74 3.488-6.643 7.262-6.396 3.766.247 6.63 3.51 6.384 7.275-.23 3.6-3.225 6.412-6.819 6.412zm-.008-12.881c-3.167 0-5.801 2.482-6.006 5.647-.214 3.321 2.314 6.198 5.629 6.412 3.315.222 6.186-2.335 6.392-5.63.213-3.322-2.306-6.2-5.621-6.413-.132-.016-.263-.016-.394-.016z" fill="#fff"/><path d="m9.313 19.232-.977-1.43.755-1.562 1.723-.131.969 1.43-.747 1.562-1.723.131z" fill="#F48E39"/><path d="M20.202 91.967c-6.08-6.354-4.185-25.434-6.851-35.57-2.667-10.144-7.656-13.736-6.097-16.013 2.913-4.226 24.854-6.15 30.516-.551 9.337 9.223 8.69 51.97 5.3 52.282-3.405.32-22.868-.148-22.868-.148z" fill="#37A0AB"/><path d="M53.048 93.66c1.387-.55 6.655-5.22 2.495-7.069-7.599-3.362-34.709-1.455-36.416 1.036-1.706 2.49 2.035 5.754 3.791 5.894 1.748.148 30.13.14 30.13.14z" fill="#37A0AB"/><path d="M53.057 93.53H22.91v1.75h30.147v-1.75z" fill="#214F64"/><path d="M39.451 94.4h-2.929v30.975h2.93V94.401z" fill="#214F64"/><path d="M50.57 132.865h-2.715c0-3.428-4.522-6.322-9.871-6.322-5.35 0-9.872 2.894-9.872 6.322h-2.715c0-4.99 5.645-9.043 12.587-9.043 6.941 0 12.587 4.061 12.587 9.043z" fill="#214F64"/><path d="M31.287 35.649c.419 1.25.304 2.4-.377 3.51-.632 1.028-1.617 2.26-1.124 3.593.5 1.356 1.993 1.586 2.888 2.466 1.075 1.044.656 2.671 1.058 4.044.542 1.842 2.413 1.907 3.832 1.694.772-.116 1.526-.37 2.306-.354 1.091.033 2.248.502 3.216 1.028.952.518 2.208 1.266 3.258.592 1.017-.658.902-1.965 1.28-3.034.402-1.126 1.33-.929 2.224-1.15 1.239-.305 1.296-1.365 1.28-2.557-.017-1.43 1.075-2.195 1.575-3.436.492-1.233-.476-1.99-.919-2.985-.525-1.167-.033-2.326.033-3.55.221-4.029-3.135-6.881-5.801-8.755-1.797-1.267-3.783-2.088-5.908-1.34-2.61.92-4.144 3.107-6.146 4.998-.722.682-1.715.871-2.404 1.561-.936.921-.657 2.524-.27 3.675z" fill="#213C53"/><path d="M60.736 92.124a4.394 4.394 0 0 0-5.604 2.729c-.353 1.003-.353 2.072.04 2.968 1.174 2.671 9.74 21.554 11.677 26.001 1.592 3.633 5.678 2.302 4.43-1.693-.96-3.042-6.62-23.363-7.696-26.766-.443-1.414-1.345-2.713-2.847-3.24z" fill="#FCA887"/><path d="M64.338 76.077c.271-2.383-4.463-3.995-6.047-4.956-1.846-1.11-5.096-2.557-6.59-4.423-.721-5.13-.286-10.539-.204-15.701.04-2.516-2.347-4.472-4.809-3.897-3.479.814-3.02 4.48-2.888 7.226.18 3.839.443 7.703 1.067 11.492.312 1.866.656 3.765 2.125 5.056 2.585 2.285 6.162 3.625 9.313 4.9 1.666.673 7.606 4.02 8.033.303z" fill="#F48E39"/><path d="M53.36 93.792a4.39 4.39 0 0 0-6.015 1.628c-.533.92-.221 2.54 0 3.51.648 2.844 5.005 22.426 6.064 27.161.878 3.871 5.145 3.329 4.669-.822-.37-3.174-2.11-24.193-2.52-27.745-.172-1.48-.812-2.926-2.198-3.732z" fill="#FCA887"/><path d="M60.268 84.183c-2.724-.937-5.9.427-7.09 3.033-.532 1.135-.64 2.343-.253 3.37 1.157 3.05 10.035 25.172 11.93 30.252l6.712-1.414c-.861-3.469-6.86-28.665-7.82-32.545-.402-1.611-1.698-2.08-3.479-2.696z" fill="#DD6441"/><path d="m40.445 77.828.008 14.23s19.652 1.611 20.587 1.62c1.477.008 2.757-2.048 2.872-4.711.09-2.22-.64-4.25-1.772-4.71-7.434-3.01-21.695-6.429-21.695-6.429z" fill="#DD6441"/><path d="M54.656 87.191c-2.585-1.48-6.04-.69-7.705 1.76-.738 1.068-1.067 2.277-.853 3.411.615 3.346 3.938 26.059 4.948 31.624l7.171-.139c-.246-3.716-.763-28.09-1.042-32.25-.123-1.734-.829-3.444-2.52-4.406z" fill="#F88950"/><path d="M27.644 79.39s-5.645 11.994 1.953 12.742c6.72 1.25 17.92 1.85 23.623 2.244 1.764.123 3.274-1.85 3.38-4.3.083-2.038-.803-3.97-2.174-4.348-6.203-1.767-26.782-6.338-26.782-6.338z" fill="#F88950"/><path d="M45.343 80.327 41.265 87.8l-14.253.485 2.109-7.547 16.222-.41z" fill="#F88950"/><path d="M74.702 127.891c-1.543.526-2.347-.066-3.783.09-.992.107-1.698.773-2.6.214-.994-.617-.887-3.485-.887-3.485l3.438-.872s2.659 1.825 5.276 1.209c1.838-.436 3.077.633 3.077.633.082.6-2.839 1.644-4.521 2.211z" fill="#214F64"/><path d="m70.304 127.135.394 2.12-1.034.354-1.65-2.31 2.29-.164z" fill="#214F64"/><path d="M67.44 124.948c-.008-.139-.123-.526-.123-.526l3.43-.97s3.323 1.241 5.391 1.595c-.287.658-1.633.871-3.282 1.044-2.15-.633-4.43-1.488-5.415-1.143z" fill="#FCA887"/><path d="M60.162 130.859c-1.79.164-2.487-.674-4.07-.88-1.092-.139-2.019.387-2.84-.444-.902-.904-.049-3.954-.049-3.954l3.906-.049s2.38 2.639 5.334 2.655c2.076.008 3.126 1.472 3.126 1.472-.058.657-3.455 1.019-5.407 1.2z" fill="#214F64"/><path d="m55.649 128.911-.115 2.367-1.198.107-1.173-2.885 2.486.411z" fill="#214F64"/><path d="M53.154 125.836c.033-.156.008-.6.008-.6l3.915-.156s3.24 2.178 5.366 3.099c-.476.625-1.97.51-3.783.279-2.15-1.233-4.373-2.737-5.506-2.622z" fill="#FCA887"/><path d="M41.642 45.596c5.81 1.159 6.712 1.455 6.975 1.8 0 0 .23 3.617.213 10.177-.008 2.014-.467 7.25-.467 7.25-2.15 3.173-3.381 14.033-3.93 15.134-1.076 1.266-13.523 1.562-15.312 0 0 0 .59-10.769 1.23-14.558-.385-9.717.633-17 1.183-18.578.976-.535 5.89-2.072 10.108-1.225z" fill="#F7EACF"/><path d="M45.327 46.36c-.936-.205-2.134-.452-3.685-.764-1.468-.296-3.02-.296-4.472-.156.23.715 3.135 3.954 6.22 4.167 1.674.115 2.043-1.693 1.937-3.247z" fill="#FCA38B"/><path d="M45.343 46.114s.837 5.656.337 13.58c-.493 7.925-2.815 22.417-2.815 22.417s5.317.19 5.965-.69c.173-1.217-.32-12.282.312-16.59 1.518-10.34.632-17.353.632-17.353l-4.43-1.364zM30.54 47.1s1.609-2.088 7.123-2.063c2.018 4.99 3.57 25.401-.476 37.56-5.342.205-11.545-.486-11.545-.486s.099-8.138 0-11.278c-.73-22.401 4.899-23.733 4.899-23.733z" fill="#FFBA51"/><path d="m38.713 46.229 4.833.871.156-5.434-3.545-.452-1.444 5.015z" fill="#FCA38B"/><path d="M42.135 43.795c.385.239 1.198.346 1.493.313l.074-2.442-3.545-.444c0-.008.205 1.464 1.978 2.573z" fill="#F78376"/><path d="m47.993 33.076-.738 5.952c-.493 2.737-2.257 4.776-4.866 4.307-2.61-.468-5.071-3.272-4.579-6.009l.969-5.393 9.214 1.143z" fill="#FCAD95"/><path d="M37.08 36.117s4.16.56 5.933-1.438c1.772-2.006 1.994-3.1 1.994-3.1l-6.482-1.98-1.444 6.518z" fill="#213C53"/><path d="M47.977 37.161s-3.397-2.194-3.734-5.055c-.336-2.86 3.89-.255 3.89-.255l-.156 5.31z" fill="#213C53"/><path d="M39.296 36.693c.27.871-.066 1.743-.747 1.965-.69.213-1.469-.313-1.74-1.184-.278-.871.058-1.751.747-1.965.69-.222 1.469.304 1.74 1.184z" fill="#FCAD95"/><path d="M51.234 71.49c-.385-.008-5.875-.682-8.23-1.2-1.985-.436-5.784-.97-7.04-2.82-.853-1.266-.632-3.855-.582-5.277.13-3.798.689-7.571 1.132-11.336.566-4.67-6.433-6.01-7.656-1.48-.984 3.642-.705 8.336-.558 12.06.173 4.455.903 9.585 5.178 11.927 4.218 2.31 9.551 2.524 14.253 2.64.935.024 2.076.114 3.208.147a97.36 97.36 0 0 1 .295-4.66z" fill="#F48E39"/><path d="M33.175 73.25c0 .657.533 1.191 1.19 1.191h42.872a1.192 1.192 0 0 0 0-2.384H34.365c-.657 0-1.19.535-1.19 1.192z" fill="#2B6D87"/><path d="M80.249 71.433c-.222 1.38-1.47 2.499-2.798 2.499H48.699c-1.33 0-2.224-1.118-2.01-2.5l2.97-18.898c.221-1.381 1.469-2.5 2.798-2.5H81.2c1.33 0 2.224 1.119 2.01 2.5L80.25 71.433z" fill="#2B6D87"/><path d="M80.503 71.95c-.213 1.382-1.469 2.5-2.798 2.5H48.962c-1.33 0-2.232-1.118-2.01-2.5l2.97-18.907c.213-1.38 1.469-2.499 2.798-2.499h28.743c1.33 0 2.224 1.118 2.01 2.5l-2.97 18.907z" fill="#37A0AB"/><path d="M60.917 62.925c-.287 1.652 1.928 2.967 4.948 2.926 3.011-.041 5.686-1.414 5.965-3.066.287-1.66-1.928-2.968-4.94-2.927-3.01.033-5.686 1.414-5.973 3.067z" fill="#2B6D87"/><path d="m95.363 132.939 1.567.016-3.208-54.954-6.113-.041 7.754 54.979zM81.037 132.955h1.567l-3.315-56.582h-6.105l7.853 56.582zM10.987 132.955H9.428l2.84-56.582h6.096l-7.377 56.582zM25.314 132.955h-1.56l3.308-56.582h6.113l-7.861 56.582z" fill="#213C53"/><path d="M7.705 77.097c0-1.579.624-2.853 1.387-2.853h88.576c.764 0 1.387 1.282 1.387 2.853 0 1.578-.623 2.86-1.387 2.86H9.093c-.772 0-1.387-1.282-1.387-2.86z" fill="#213C53"/></svg>