<svg width="154" height="137" viewBox="0 0 154 137" fill="none" xmlns="http://www.w3.org/2000/svg">
<path d="M115.257 97.612C112.681 95.4606 111.361 93.4696 111.122 93.0922L120.182 87.3776C120.182 87.3776 120.169 87.3565 120.143 87.3176C120.15 87.3286 120.905 88.4372 122.413 89.6329C124.339 91.1586 126.578 92.133 129.067 92.529C132.235 93.0331 135.505 91.9776 137.689 91.0041C140.125 89.9191 141.757 88.7024 141.773 88.6905L149.806 90.2408L148.296 97.1797C145.157 99.5844 140.167 101.961 135.543 102.878C127.871 104.399 120.545 102.029 115.257 97.612Z" fill="#B75742"/>
<path d="M132.526 22.2068L134.653 21.1066L136.766 22.2312C137.007 22.3596 137.29 22.1561 137.246 21.8876L136.854 19.5285L138.579 17.8693C138.775 17.6802 138.67 17.3483 138.4 17.3078L136.032 16.9498L134.984 14.7992C134.865 14.5543 134.516 14.5527 134.394 14.7958L133.322 16.9346L130.95 17.2647C130.68 17.3027 130.571 17.6329 130.764 17.8245L132.47 19.504L132.051 21.8589C132.003 22.1257 132.284 22.3326 132.526 22.2068Z" fill="#86B1F2"/>
<path d="M123.906 65.5273H19.2861V76.4626H123.906V65.5273Z" fill="#F47257"/>
<path d="M96.0793 104.232C72.4867 91.7761 46.8623 84.1084 20.5537 81.6345C21.5287 70.2356 22.5028 58.8368 23.4777 47.438C53.8958 50.2987 83.5241 59.1636 110.802 73.5658C105.895 83.7876 100.987 94.0102 96.0793 104.232Z" fill="#3C8F7C"/>
<path d="M22.873 75.3818C23.5377 68.2723 24.2015 61.1636 24.8661 54.055C27.6311 54.3379 30.1078 52.5563 30.4089 50.0029C55.7678 53.1836 80.4833 60.5785 103.625 71.9098C102.596 74.2453 103.804 77.1296 106.295 78.4189C103.282 84.8251 100.269 91.2321 97.2562 97.6382C94.9639 96.4519 92.2512 97.433 91.223 99.7668C70.9012 89.8161 49.1977 83.323 26.9276 80.5298C27.2278 77.9773 25.4174 75.6427 22.873 75.3818Z" fill="#96D9C9"/>
<path d="M77.3134 76.5558C75.1868 82.6706 68.6293 85.7863 62.5462 83.9194C56.4673 82.0382 52.5616 75.6971 53.9281 69.3484C55.2911 63.0106 62.0389 59.2118 68.8788 61.3244C75.7212 63.4286 79.4375 70.4519 77.3134 76.5558Z" fill="#50BFA5"/>
<path d="M62.4956 81.7666C62.6656 81.0844 62.8355 80.4013 63.0055 79.719C62.0897 79.4218 61.2213 79.003 60.5263 78.5597C59.947 78.1899 59.7357 77.441 60.0494 76.844C60.062 76.8204 60.0747 76.7959 60.0874 76.7722C60.4324 76.1145 61.2814 75.9042 61.9215 76.3256C62.5734 76.7545 63.3404 77.1378 64.1944 77.3759C65.4366 77.723 66.4081 77.4992 66.6331 76.6397C66.8453 75.824 66.2796 75.0996 64.7762 74.1041C62.603 72.6703 61.2154 71.175 61.6949 69.0717C62.1278 67.1668 63.8883 66.0269 66.4538 66.2507C66.6221 65.5676 66.7895 64.8845 66.9569 64.2014C67.7112 64.41 68.4646 64.6227 69.2171 64.8389C69.0556 65.4705 68.895 66.1012 68.7335 66.7328C69.5554 67.0072 70.2099 67.3129 70.7409 67.6261C71.3911 68.0095 71.6195 68.8082 71.2643 69.4103C70.8965 70.0326 70.0526 70.2116 69.3981 69.8046C68.9068 69.4998 68.2811 69.189 67.482 68.9619C66.0099 68.544 65.385 69.0219 65.2378 69.6256C65.0628 70.3391 65.7443 71.0027 67.4651 72.2372C69.8877 73.9115 70.6124 75.4263 70.0805 77.3481C69.5503 79.2538 67.7416 80.4494 65.1575 80.1665C64.9681 80.8978 64.7787 81.6281 64.5893 82.3593C63.8925 82.1567 63.1949 81.96 62.4956 81.7666Z" fill="#3C8F7C"/>
<path d="M50.3266 69.1103C44.3137 67.7247 38.2424 66.5958 32.1289 65.7286C32.2701 64.6326 32.4113 63.5367 32.5534 62.4407C38.7532 63.3205 44.909 64.4646 51.0065 65.8696C50.779 66.9504 50.5524 68.0303 50.3266 69.1103Z" fill="#50BFA5"/>
<path d="M97.2133 85.7354C91.6173 83.0031 85.924 80.5148 80.147 78.2764C80.5123 77.2387 80.8784 76.2018 81.2437 75.1641C87.101 77.4337 92.8747 79.9566 98.5485 82.727C98.1037 83.7301 97.659 84.7323 97.2133 85.7354Z" fill="#50BFA5"/>
<path d="M107.103 65.1072C82.7614 70.1852 59.5832 80.3614 38.7878 95.1005C33.1689 85.4191 27.55 75.7377 21.9312 66.0563C45.9752 49.0146 72.7751 37.2485 100.919 31.3777C102.98 42.6212 105.042 53.8638 107.103 65.1072Z" fill="#3C8F7C"/>
<path d="M37.0232 88.6571C33.5606 82.5836 30.0979 76.5093 26.6353 70.4358C28.8338 68.905 29.6709 65.916 28.4735 63.6945C48.9611 50.1197 71.3174 40.3049 94.7003 34.6182C95.2397 37.1284 97.7342 38.655 100.29 38.0986C101.628 45.1051 102.966 52.1116 104.304 59.118C101.953 59.6306 100.496 62.1333 101.035 64.6418C80.5004 69.6354 60.8686 78.2546 42.8772 90.1752C41.6807 87.9546 39.0458 87.2487 37.0232 88.6571Z" fill="#96D9C9"/>
<path d="M77.862 55.0193C79.6927 61.2312 76.5835 67.8721 71.0559 70.2506C65.5224 72.6148 59.1138 70.0547 56.5923 64.1383C54.0741 58.2337 56.9432 50.9292 63.1667 48.2652C69.3876 45.5945 76.0356 48.8183 77.862 55.0193Z" fill="#50BFA5"/>
<path d="M69.8216 68.5715C69.5679 67.9205 69.3134 67.2704 69.0589 66.6202C68.2167 66.9656 67.3432 67.1834 66.5839 67.2729C65.9505 67.3472 65.3781 66.8854 65.2774 66.2116C65.2732 66.1845 65.269 66.1575 65.2656 66.1305C65.1548 65.3892 65.6639 64.6824 66.3708 64.6107C67.0904 64.5372 67.87 64.3557 68.6327 64.0027C69.743 63.4894 70.3357 62.6948 70.0237 61.8682C69.7269 61.0855 68.9067 60.8685 67.2434 61.0314C64.842 61.2721 62.9868 60.9639 62.1699 58.9872C61.43 57.198 62.0964 55.1733 64.1139 53.7227C63.8577 53.0734 63.6015 52.4232 63.3453 51.7739C64.0184 51.4606 64.6923 51.1516 65.3688 50.8459C65.6005 51.4505 65.833 52.0542 66.0647 52.6588C66.824 52.3548 67.4768 52.1826 68.0433 52.0939C68.7359 51.9858 69.3489 52.4756 69.4216 53.1798C69.4961 53.9084 68.9726 54.5856 68.264 54.6785C67.7322 54.7477 67.0971 54.898 66.3809 55.2248C65.0618 55.8277 64.8665 56.6045 65.0931 57.1769C65.3603 57.8558 66.233 57.9504 68.1888 57.8389C70.9082 57.6312 72.2856 58.3759 72.9612 60.242C73.6293 62.0936 72.9596 64.1927 70.8946 65.6087C71.1618 66.3104 71.4282 67.0112 71.6946 67.7128C71.0688 67.9949 70.4448 68.2819 69.8216 68.5715Z" fill="#3C8F7C"/>
<path d="M53.8009 66.2376C48.5913 68.9539 43.4823 71.9117 38.4875 75.105C37.9826 74.1441 37.477 73.1824 36.9722 72.2215C42.0372 68.9843 47.2181 65.9851 52.5004 63.23C52.9342 64.2322 53.368 65.2353 53.8009 66.2376Z" fill="#50BFA5"/>
<path d="M97.6561 49.6813C92.0059 51.0619 86.42 52.6999 80.9111 54.5888C80.6041 53.5316 80.2972 52.4753 79.9902 51.4182C85.5761 49.5032 91.2407 47.8423 96.9695 46.4424C97.1978 47.5215 97.427 48.6014 97.6561 49.6813Z" fill="#50BFA5"/>
<path d="M110.987 86.3545C85.6725 84.8228 60.3203 88.5329 36.2677 97.2897C32.9564 86.4322 29.6443 75.5746 26.333 64.717C54.1442 54.5923 83.4562 50.3021 112.725 52.0736C112.145 63.5002 111.566 74.9278 110.987 86.3545Z" fill="#3C8F7C"/>
<path d="M36.0217 90.5862C34.0058 83.7908 31.99 76.9962 29.9741 70.2008C32.51 69.3016 34.038 66.6309 33.3691 64.1637C56.8458 56.4521 81.2975 52.8738 105.804 53.5628C105.752 56.1355 107.87 58.2726 110.533 58.4111C110.226 65.5459 109.918 72.6815 109.61 79.8164C107.159 79.6897 105.131 81.7255 105.08 84.2957C83.5594 83.6903 62.0876 86.833 41.4715 93.6047C40.8026 91.14 38.3555 89.7587 36.0217 90.5862Z" fill="#96D9C9"/>
<path d="M84.3518 68.8475C84.718 75.344 80.0867 80.948 74.0518 81.7856C68.0152 82.608 62.2585 78.4327 61.1398 72.04C60.0211 65.6584 64.5686 59.3493 71.3595 58.4197C78.1495 57.4816 83.9882 62.3628 84.3518 68.8475Z" fill="#50BFA5"/>
<path d="M73.2195 79.8345C73.1197 79.1379 73.0191 78.4405 72.9193 77.7439C72.0044 77.8554 71.0877 77.8351 70.314 77.7203C69.6689 77.624 69.2089 77.0254 69.2664 76.3473C69.2689 76.3203 69.2706 76.2924 69.2731 76.2654C69.3365 75.5182 70.0054 74.9693 70.7233 75.0867C71.4539 75.2066 72.269 75.237 73.107 75.0977C74.3272 74.895 75.1 74.2829 74.9833 73.4005C74.8717 72.5638 74.109 72.1374 72.4221 71.8545C69.9851 71.4509 68.2178 70.6614 67.8695 68.5328C67.5532 66.6051 68.6863 64.8227 71.0252 63.953C70.9229 63.2564 70.8205 62.5598 70.7182 61.8632C71.4581 61.7382 72.1988 61.6175 72.9404 61.501C73.0292 62.1469 73.118 62.7937 73.2076 63.4396C74.0312 63.3467 74.7187 63.3527 75.3004 63.4168C76.0124 63.4954 76.5062 64.132 76.4132 64.8328C76.3177 65.5573 75.6404 66.0749 74.9157 65.9761C74.372 65.9018 73.7082 65.8798 72.9218 66.0065C71.4733 66.2404 71.0987 66.9403 71.1901 67.555C71.2966 68.2829 72.1388 68.6054 74.1048 69.0149C76.8487 69.5342 78.041 70.6192 78.2752 72.6043C78.5052 74.5733 77.3518 76.4275 74.974 77.2508C75.0747 78.0006 75.1761 78.7495 75.2768 79.4993C74.591 79.6066 73.9052 79.7189 73.2195 79.8345Z" fill="#3C8F7C"/>
<path d="M57.8832 73.3326C52.0851 74.5823 46.3309 76.092 40.6342 77.8584C40.3577 76.7945 40.0812 75.7306 39.8047 74.6667C45.5809 72.875 51.4162 71.3442 57.2955 70.0776C57.4909 71.1626 57.687 72.2476 57.8832 73.3326Z" fill="#50BFA5"/>
<path d="M105.219 68.9232C99.2958 68.7636 93.3759 68.8692 87.4746 69.2373C87.4171 68.1329 87.3588 67.0293 87.3013 65.9249C93.2854 65.5508 99.2873 65.4436 105.294 65.6057C105.27 66.7118 105.244 67.8179 105.219 68.9232Z" fill="#50BFA5"/>
<path d="M123.906 65.5273H19.2861V111.505H123.906V65.5273Z" fill="#F47257"/>
<path d="M123.906 99.7659H98.0179C96.8705 99.7659 95.9395 100.739 95.9395 101.939C95.9395 103.139 96.8696 104.113 98.0179 104.113H94.661C93.5135 104.113 92.5825 105.085 92.5825 106.286C92.5825 107.486 93.5127 108.459 94.661 108.459H95.2427C94.0944 108.459 93.1643 109.432 93.1643 110.633C93.1643 110.943 93.2268 111.238 93.3393 111.505H123.906V99.7659Z" fill="#B75742"/>
<path d="M118.38 67.7913H23.1416V71.3621H118.38V67.7913Z" fill="#B75742"/>
<path d="M64.6286 110.934H21.6494C19.7079 110.934 18.1343 109.363 18.1343 107.424V85.8891C18.1343 83.9505 19.7079 82.3792 21.6494 82.3792H64.6277C66.5692 82.3792 68.1428 83.9505 68.1428 85.8891V107.424C68.1436 109.363 66.5692 110.934 64.6286 110.934Z" fill="#3C8F7C"/>
<path d="M33.6656 88.0583H21.3506V95.2075H33.6656V88.0583Z" fill="#F7CC7F"/>
<path d="M64.9784 86.2473H43.1396V87.5822H64.9784V86.2473Z" fill="#F7CC7F"/>
<path d="M63.3545 101.5H23.1641V103.149H63.3545V101.5Z" fill="#F7CC7F"/>
<path d="M63.3545 105.382H23.1641V107.031H63.3545V105.382Z" fill="#F7CC7F"/>
<path d="M68.7576 77.2659H24.3511V78.4514H68.7576V77.2659Z" fill="#B75742"/>
<path d="M94.1751 69.6108C99.6371 69.6108 104.065 65.1894 104.065 59.7352C104.065 54.2811 99.6371 49.8596 94.1751 49.8596C88.713 49.8596 84.2852 54.2811 84.2852 59.7352C84.2852 65.1894 88.713 69.6108 94.1751 69.6108Z" fill="#FFF4B3"/>
<path d="M100.968 54.9748C103.601 58.7212 102.694 63.8886 98.9431 66.518C95.1912 69.1473 90.0163 68.2413 87.3832 64.4957C84.75 60.7493 85.6573 55.5819 89.4083 52.9525C93.1593 50.3232 98.3351 51.2283 100.968 54.9748Z" fill="#FFE55A"/>
<path d="M95.1335 65.5641L94.7716 64.2283C94.1602 64.3642 93.5362 64.4107 93.0051 64.3837C92.5612 64.3609 92.212 63.9978 92.2061 63.5536L92.2052 63.5005C92.1985 63.0116 92.6094 62.6173 93.0982 62.6493C93.5962 62.6823 94.1458 62.6485 94.6963 62.4999C95.4988 62.2829 95.9638 61.8252 95.8116 61.2638C95.667 60.7293 95.125 60.514 93.9877 60.4439C92.3447 60.3451 91.1263 59.9195 90.7567 58.5559C90.4219 57.3189 91.0316 56.1132 92.4581 55.4115L92.0961 54.0757L93.4761 53.7034L93.811 54.9404C94.3293 54.8247 94.7682 54.7799 95.1453 54.7782C95.6061 54.7766 95.9816 55.1489 95.9875 55.6091C95.9934 56.0853 95.6036 56.4729 95.1276 56.4619C94.7699 56.4534 94.3403 56.4864 93.8431 56.6206C92.9282 56.868 92.7388 57.3409 92.8462 57.7352C92.9722 58.1987 93.5446 58.3608 94.8629 58.4875C96.6978 58.6251 97.5831 59.2162 97.9256 60.481C98.2647 61.7324 97.6668 63.0403 96.1245 63.758L96.5126 65.1917L95.1335 65.5641Z" fill="#FFF4B3"/>
<path d="M110.496 98.3241C114.358 94.4675 114.358 88.2146 110.496 84.358C106.634 80.5014 100.372 80.5014 96.5097 84.358C92.6475 88.2146 92.6475 94.4675 96.5097 98.3241C100.372 102.181 106.634 102.181 110.496 98.3241Z" fill="#FFF4B3"/>
<path d="M110.297 86.5802C112.931 90.3267 112.023 95.4941 108.272 98.1235C104.52 100.753 99.3454 99.8468 96.7123 96.1012C94.0791 92.3548 94.9864 87.1873 98.7374 84.558C102.488 81.9287 107.664 82.8347 110.297 86.5802Z" fill="#FFE55A"/>
<path d="M104.463 97.17L104.101 95.8342C103.489 95.9702 102.865 96.0166 102.334 95.9896C101.89 95.9668 101.541 95.6037 101.535 95.1596L101.534 95.1064C101.529 94.6175 101.939 94.2232 102.427 94.2553C102.925 94.2882 103.474 94.2544 104.026 94.1058C104.828 93.8888 105.293 93.4312 105.141 92.8697C104.996 92.3352 104.454 92.1199 103.318 92.0498C101.674 91.9502 100.456 91.5255 100.087 90.1618C99.752 88.9249 100.362 87.7191 101.788 87.0175L101.426 85.6817L102.806 85.3093L103.141 86.5463C103.659 86.4306 104.098 86.3859 104.475 86.3842C104.936 86.3825 105.312 86.7549 105.318 87.215C105.324 87.6913 104.934 88.078 104.458 88.0678C104.1 88.0594 103.67 88.0923 103.173 88.2266C102.258 88.474 102.069 88.9468 102.175 89.3403C102.301 89.8038 102.874 89.9659 104.192 90.0926C106.027 90.2302 106.912 90.8213 107.255 92.0861C107.594 93.3375 106.996 94.6454 105.454 95.3631L105.842 96.7968L104.463 97.17Z" fill="white"/>
<path d="M84.458 88.8499C89.9195 88.7588 94.273 84.264 94.1818 78.8104C94.0906 73.3568 89.5892 69.0096 84.1277 69.1007C78.6662 69.1918 74.3127 73.6866 74.4039 79.1402C74.4951 84.5938 78.9965 88.941 84.458 88.8499Z" fill="#FFF4B3"/>
<path d="M87.6581 86.552C91.8448 84.6903 93.7274 79.7919 91.8629 75.6113C89.9985 71.4306 85.0931 69.5508 80.9064 71.4125C76.7197 73.2742 74.8371 78.1725 76.7015 82.3532C78.566 86.5338 83.4714 88.4137 87.6581 86.552Z" fill="#FFE55A"/>
<path d="M81.7154 84.2978L82.1872 82.9975C81.608 82.7586 81.071 82.4386 80.6516 82.1109C80.3015 81.8374 80.2246 81.3401 80.4749 80.9728L80.5053 80.9288C80.781 80.5252 81.345 80.4374 81.7263 80.7439C82.1153 81.0563 82.5838 81.3443 83.1207 81.5385C83.902 81.8213 84.5464 81.7141 84.7451 81.1661C84.9336 80.646 84.6149 80.1588 83.7245 79.4487C82.4366 78.4245 81.6841 77.3775 82.166 76.0502C82.6032 74.8453 83.7963 74.2086 85.3674 74.4527L85.8393 73.1523L87.1829 73.6387L86.7457 74.8436C87.2362 75.0462 87.6218 75.2615 87.9312 75.4768C88.3092 75.7403 88.4022 76.2604 88.1426 76.6404C87.8737 77.0338 87.3317 77.1267 86.9478 76.8447C86.6603 76.6328 86.2891 76.4132 85.8054 76.2385C84.9142 75.9159 84.4872 76.1946 84.3477 76.5779C84.1836 77.0296 84.5591 77.4906 85.5653 78.351C86.9876 79.5171 87.3723 80.5075 86.925 81.7403C86.4828 82.9587 85.2406 83.6865 83.5646 83.3893L83.0573 84.7859L81.7154 84.2978Z" fill="#FFF4B3"/>
<path d="M118.38 84.6716H73.5884V108.642H118.38V84.6716Z" fill="#F48C7F"/>
<path d="M95.94 101.94C95.94 103.14 96.8701 104.113 98.0184 104.113H94.6614C93.514 104.113 92.583 105.086 92.583 106.287C92.583 107.486 93.5131 108.46 94.6614 108.46H95.2432C94.9464 108.46 94.664 108.526 94.4078 108.643H118.379V99.7673H98.0184C96.8701 99.7665 95.94 100.74 95.94 101.94Z" fill="#B75742"/>
<path d="M25.1689 110.804C25.1689 111.191 25.3849 111.504 25.651 111.504H145.881C146.147 111.504 146.363 111.191 146.363 110.804C146.363 110.417 146.147 110.103 145.881 110.103H25.6516C25.3849 110.103 25.1689 110.417 25.1689 110.804Z" fill="#13375B"/>
<path d="M124.169 112.805H97.4345C96.3615 112.805 95.4922 111.937 95.4922 110.866C95.4922 109.795 96.3615 108.927 97.4345 108.927H124.169C125.242 108.927 126.112 109.795 126.112 110.866C126.112 111.937 125.242 112.805 124.169 112.805Z" fill="#FFE55A"/>
<path d="M123.626 108.927H96.892C95.819 108.927 94.9497 108.059 94.9497 106.987C94.9497 105.916 95.819 105.048 96.892 105.048H123.626C124.699 105.048 125.568 105.916 125.568 106.987C125.568 108.058 124.699 108.927 123.626 108.927Z" fill="#FFF091"/>
<path d="M126.763 105.047H100.028C98.9552 105.047 98.0859 104.179 98.0859 103.108C98.0859 102.036 98.9552 101.168 100.028 101.168H126.763C127.836 101.168 128.705 102.036 128.705 103.108C128.705 104.179 127.836 105.047 126.763 105.047Z" fill="#FFE55A"/>
<path d="M92.7594 21.0627L93.0993 23.3602L89.4574 24.3152L89.5394 27.7365L86.9316 28.8958L87.5193 30.2147L91.0082 28.6636L90.9296 25.4213L94.7186 24.4283L94.207 20.9707L92.7594 21.0627Z" fill="#466EB6"/>
<path d="M147.84 60.127L147.603 59.2717C147.211 59.362 146.811 59.3941 146.47 59.3789C146.185 59.3662 145.959 59.1349 145.953 58.8503L145.952 58.8157C145.946 58.5016 146.207 58.2475 146.521 58.266C146.841 58.2846 147.193 58.261 147.546 58.163C148.06 58.0203 148.356 57.7248 148.256 57.3651C148.162 57.0231 147.812 56.8872 147.083 56.8467C146.028 56.7901 145.245 56.5224 145.002 55.6494C144.781 54.8574 145.167 54.0814 146.079 53.6246L145.841 52.7693L146.725 52.5244L146.946 53.3164C147.277 53.2404 147.559 53.2092 147.801 53.2067C148.097 53.2033 148.339 53.4405 148.345 53.7361C148.351 54.0417 148.102 54.2917 147.797 54.2866C147.568 54.2832 147.292 54.306 146.974 54.3938C146.388 54.5559 146.269 54.8607 146.339 55.1132C146.422 55.4104 146.79 55.5117 147.636 55.5869C148.814 55.6671 149.384 56.0429 149.61 56.8526C149.833 57.6539 149.455 58.4949 148.469 58.9626L148.724 59.8805L147.84 60.127Z" fill="#96D9C9"/>
<path d="M71.3049 14.388L73.0045 14.9478C73.0045 14.9478 75.7002 14.0756 75.9649 13.5268C76.2304 12.978 76.3056 11.6472 76.6887 11.6109C77.0717 11.5746 77.8133 11.6987 77.99 12.6098C78.1185 13.2709 77.1487 15.1817 77.3 15.3852C77.3947 15.5127 78.3629 15.8623 79.0741 16.1063C79.5417 16.2667 79.879 16.6779 79.9509 17.1736V17.1753C79.9991 17.5105 79.8097 17.8364 79.4952 17.958L79.0064 18.1463L79.1628 18.6503C79.2787 19.0261 79.0732 19.4288 78.702 19.5538L78.324 19.6805L78.4449 19.9878C78.6005 20.383 78.3815 20.8322 77.974 20.9504L77.6433 21.0466L77.6569 21.1353C77.7135 21.5026 77.4835 21.8555 77.1267 21.9492L76.7986 22.0354L72.2714 20.5434C71.8469 20.4032 71.4571 20.1769 71.1239 19.878L69.6205 19.086C69.459 19.0008 69.3846 18.8082 69.4454 18.6326L70.839 14.6244C70.9058 14.4302 71.1138 14.3255 71.3049 14.388Z" fill="#FAE0B2"/>
<path d="M124.047 95.0691C124.047 95.0691 123.83 97.7668 124.006 98.6441C124.101 99.1135 124.625 100.08 124.385 100.522C124.144 100.964 123.869 101.074 123.869 101.074L117.629 101.173C117.289 101.178 117.514 100.964 117.788 100.766C118.237 100.442 118.599 100.228 120.032 99.5476C120.125 99.5028 120.466 99.2909 120.589 99.2174C120.9 99.0308 121.213 98.737 121.482 98.4431C121.93 97.9534 121.969 95.5774 121.969 95.5774L124.047 95.0691Z" fill="#FCAD95"/>
<path d="M119.169 59.2077C119.169 59.2077 116.487 57.8871 117.002 60.7588C117.518 63.6305 121.448 95.9263 121.448 95.9263L125.129 96.1298C125.129 96.1298 125.599 85.3625 125.496 83.8165C125.393 82.2705 124.783 79.8784 124.783 79.8784L124.471 70.3262L120.999 58.5322L119.169 59.2077Z" fill="#355389"/>
<path d="M120.588 99.2156C122.238 99.6311 123.459 99.349 124.141 99.0789C124.317 99.5686 124.55 100.183 124.427 100.538C124.275 100.972 124.078 101.164 123.887 101.169C122.38 101.208 118.347 101.166 117.197 101.181C117.036 101.183 116.948 100.999 117.052 100.878C117.336 100.543 120.464 99.2891 120.588 99.2156Z" fill="#3C8F7C"/>
<path d="M117.002 39.7982C117.002 39.7982 114.735 35.4404 114.383 33.8412C114.031 32.2412 112.813 24.186 112.915 23.6667C113.017 23.1483 114.944 21.8995 114.707 21.4587C114.469 21.018 112.633 21.0171 112.213 21.0543C111.793 21.0923 110.948 21.3363 110.587 21.6344C110.225 21.9324 110.994 31.5859 111.223 33.6639C111.452 35.7427 114.27 42.143 114.27 42.143L117.002 39.7982Z" fill="#FCAD95"/>
<path d="M134.673 73.7583C134.673 73.7583 136.544 71.7994 136.961 71.0082C137.184 70.5844 137.386 69.5036 137.851 69.3119C138.317 69.1203 138.6 69.2081 138.6 69.2081L143.509 73.0575C143.776 73.2669 143.467 73.2931 143.128 73.2736C142.575 73.2432 142.159 73.1816 140.617 72.8084C140.516 72.7839 140.118 72.7349 139.976 72.7147C139.617 72.664 139.189 72.6953 138.794 72.7544C138.137 72.8531 136.607 74.6736 136.607 74.6736L134.673 73.7583Z" fill="#FCAD95"/>
<path d="M139.975 72.7148C138.956 71.3537 137.83 70.8057 137.13 70.5862C137.302 70.0948 137.491 69.4531 137.811 69.2555C138.202 69.014 138.472 69.0638 138.623 69.1803C139.819 70.099 142.947 72.611 143.849 73.3228C143.975 73.4224 143.928 73.6208 143.771 73.6504C143.338 73.7297 140.117 72.7342 139.975 72.7148Z" fill="#3C8F7C"/>
<path d="M134.717 38.4717C133.553 36.0332 130.973 34.6907 128.474 35.34C127.578 34.1283 126.191 33.2806 124.748 33.0771C121.902 32.6744 118.23 34.0532 118.604 37.0194C117.706 39.0949 117.925 41.9538 119.722 43.3555C119.392 46.0828 122.131 48.5027 125.372 48.1759C126.676 49.9736 128.943 51.0282 131.063 50.617C131.572 50.5182 132.345 50.3333 132.478 50.3561C132.312 50.3375 136.175 52.8638 138.839 48.3651C141.559 43.7751 138.882 38.644 134.717 38.4717Z" fill="#FF391D"/>
<path d="M118.089 60.2478C118.089 60.2478 124.105 57.5771 124.2 57.8819C124.954 60.3077 127.3 59.525 128.693 63.7975C129.276 65.5867 129.875 77.4879 129.875 77.4879C129.875 77.4879 132.247 75.5222 135.637 72.0874C135.897 71.8239 138.446 74.2438 138.446 74.2438C131.718 83.3215 128.815 83.7952 127.692 83.2869C125.348 82.2264 120.403 67.3851 120.41 67.3868C119.818 66.2317 118.089 60.2478 118.089 60.2478Z" fill="#466EB6"/>
<path d="M128.062 43.4831C128.062 43.4831 136.758 43.4721 138.62 43.3649C140.305 43.2678 146.987 43.4375 147.249 43.4071C147.51 43.3767 149.237 40.4561 149.524 40.7694C149.812 41.0826 148.563 42.2183 148.949 42.5121C149.336 42.8068 153.482 42.1473 153.427 42.453C153.324 43.0263 150.905 42.9529 150.908 43.2298C150.91 43.5059 153.44 43.0745 153.612 43.5338C153.783 43.9931 151.178 43.7212 151.074 43.9256C150.97 44.1307 153.491 44.5056 153.233 44.9329C153.092 45.1651 151 44.5453 151.01 44.862C151.02 45.1777 152.547 45.8971 152.36 46.1488C152.172 46.4004 151.162 45.3762 150.276 45.3635C149.39 45.3508 148.756 44.889 147.341 45.2765C146.642 45.4682 141.311 46.1184 136.806 46.5034C132.187 46.8977 128.402 47.0227 128.402 47.0227L128.062 43.4831Z" fill="#FCAD95"/>
<path d="M115.169 49.6208C115.054 48.2267 115.329 47.1527 115.392 46.6908C114.97 45.2428 114.071 42.1533 113.748 41.5462C113.748 41.5462 115.262 38.6407 116.812 38.661C116.812 38.661 118.395 42.2233 119.618 42.8608C119.636 42.8566 120.051 43.0457 120.234 43.0441C121.415 43.0356 125.544 42.9106 126.314 42.8971L125.88 48.746C122.889 54.6016 123.699 57.6751 124.837 58.8116C125.372 59.3461 117.371 61.5161 117.003 60.7587C116.569 59.8662 115.403 52.4392 115.169 49.6208Z" fill="#FFE55A"/>
<path d="M124.216 43.1183C124.978 42.7552 130.488 42.9367 130.488 42.9367C130.488 42.9367 131.259 46.7684 130.636 47.6896C130.636 47.6896 125.709 48.4217 125.849 48.8253L124.216 43.1183Z" fill="#FFE55A"/>
<path d="M122.771 40.6555C122.771 40.6555 122.675 42.7453 122.772 43.6158C122.87 44.4864 121.878 46.5272 120.03 46.5627C118.183 46.5981 119.759 44.6046 119.921 43.7476C120.083 42.8905 120.277 39.5376 120.277 39.5376L122.771 40.6555Z" fill="#FCAD95"/>
<path d="M120.277 39.5383C120.277 39.5383 120.232 40.3168 120.167 41.2195C120.75 41.9135 121.645 42.2682 122.734 41.846C122.746 41.1992 122.771 40.6563 122.771 40.6563L120.277 39.5383Z" fill="#F47458"/>
<path d="M122.924 34.4282C122.924 34.4282 123.97 34.7406 124.558 35.7859C125.145 36.8312 125.392 39.8059 123.136 41.031C120.88 42.2562 119.334 40.1968 119.437 38.2995C119.539 36.4014 120.121 33.8987 122.924 34.4282Z" fill="#FCAD95"/>
<path d="M118.983 37.6714C119.136 38.1417 119.482 38.4507 119.757 38.362C120.031 38.2734 120.129 37.82 119.976 37.3497C119.823 36.8793 119.477 36.5703 119.204 36.659C118.928 36.7485 118.83 37.201 118.983 37.6714Z" fill="#FCAD95"/>
<path d="M122.61 34.3438C122.61 34.3438 123.756 37.4712 124.927 37.8242C126.099 38.1771 125.976 39.7029 125.976 39.7029C125.976 39.7029 126.193 36.1752 125.133 35.2894C124.074 34.4045 122.61 34.3438 122.61 34.3438Z" fill="#FF391D"/>
<path d="M124.411 38.4229C124.221 38.905 124.33 39.3998 124.656 39.529C124.982 39.6573 125.401 39.3711 125.592 38.889C125.782 38.4068 125.673 37.912 125.347 37.7829C125.021 37.6545 124.601 37.9408 124.411 38.4229Z" fill="#FCAD95"/>
<path d="M110.261 22.3792C110.261 22.3792 112.809 22.4907 113.108 22.4907C113.407 22.4907 114.277 21.5923 114.277 21.5923L110.261 22.3792Z" fill="#F47458"/>
<path d="M112.675 22.2497C118.004 21.0504 121.349 15.7649 120.148 10.4444C118.947 5.12389 113.654 1.78304 108.326 2.98241C102.998 4.18177 99.6519 9.46719 100.853 14.7877C102.054 20.1082 107.347 23.4491 112.675 22.2497Z" fill="#FFF4B3"/>
<path d="M117.296 7.85366C119.929 11.6001 119.022 16.7675 115.271 19.3969C111.519 22.0262 106.344 21.1202 103.711 17.3746C101.078 13.6282 101.985 8.46075 105.736 5.83142C109.487 3.2021 114.663 4.10725 117.296 7.85366Z" fill="#FFE55A"/>
<path d="M111.461 18.4425L111.1 17.1067C110.488 17.2426 109.864 17.2891 109.332 17.2621C108.888 17.2393 108.539 16.8762 108.533 16.4321L108.532 16.3789C108.526 15.89 108.937 15.4957 109.425 15.5278C109.923 15.5607 110.472 15.5269 111.023 15.3783C111.826 15.1613 112.291 14.7037 112.139 14.1422C111.994 13.6077 111.452 13.3924 110.315 13.3223C108.672 13.2227 107.453 12.7979 107.084 11.4343C106.749 10.1973 107.359 8.99158 108.785 8.28992L108.423 6.95415L109.803 6.58179L110.138 7.81877C110.656 7.70309 111.095 7.65834 111.472 7.65665C111.933 7.65497 112.309 8.02733 112.315 8.4875C112.321 8.96372 111.931 9.35044 111.455 9.3403C111.097 9.33186 110.667 9.36479 110.17 9.49904C109.255 9.74644 109.066 10.2193 109.172 10.6127C109.298 11.0763 109.871 11.2384 111.189 11.3651C113.024 11.5027 113.909 12.0938 114.252 13.3586C114.591 14.6099 113.993 15.9178 112.451 16.6356L112.839 18.0693L111.461 18.4425Z" fill="#FFF4B3"/>
<path d="M113.107 22.4897L114.159 21.5457C114.159 21.5457 113.662 20.953 113.869 20.8398C114.204 20.6549 114.779 21.3709 114.727 21.544C114.675 21.718 114.059 22.2786 114.059 22.2786L113.107 22.4897Z" fill="#FCAD95"/>
<path d="M62.1384 56.3259L81.5174 81.8534L58.6851 90.1703L62.1384 56.3259Z" fill="#F88950"/>
<path d="M43.8865 42.725C43.8865 42.725 56.9482 51.1095 61.8467 56.0008C66.7443 60.8922 66.3621 91.8286 66.3621 91.8286L61.708 136.932H15.8006C15.8006 136.932 7.1503 52.6234 11.6987 48.0816C14.643 45.1416 21.4964 42.9817 25.9653 41.8249C28.5316 41.1604 31.202 41.0076 33.8292 41.3631L43.8865 42.725Z" fill="#FFAB4B"/>
<path d="M43.1132 59.2954C43.4345 58.4071 44.9388 61.5734 44.9388 61.5734C46.7466 71.417 49.2496 120.292 47.6751 126.482C46.1006 132.672 44.8678 134.735 44.0636 134.993C43.2595 135.25 41.1929 128.287 40.4183 125.966C39.6437 123.646 40.9806 65.1822 43.1132 59.2954Z" fill="#FF391D"/>
<path d="M46.0802 55.4697C46.3812 59.0371 44.9868 61.8396 44.9868 61.8396C43.179 62.0549 42.6175 61.669 42.6175 61.669C39.9852 58.0855 41.0007 54.253 41.0007 54.253C44.6596 52.4604 45.09 52.5466 45.09 52.5466C46.2958 54.4818 46.0802 55.4697 46.0802 55.4697Z" fill="#FF391D"/>
<path d="M12.0707 47.7347C12.1384 47.6747 12.2069 47.6139 12.2779 47.5548C12.3168 47.5219 12.3574 47.4898 12.3971 47.4577C12.4631 47.4045 12.5282 47.3505 12.5967 47.2981C12.6407 47.2635 12.6872 47.2297 12.7328 47.196C12.7996 47.1461 12.8656 47.0955 12.9349 47.0457C12.984 47.0102 13.0338 46.9756 13.0837 46.9401C13.1514 46.8928 13.219 46.8447 13.2892 46.7974C13.3425 46.762 13.3966 46.7257 13.4499 46.6902C13.5192 46.6446 13.5885 46.599 13.6587 46.5543C13.7154 46.5179 13.7729 46.4825 13.8304 46.4462C13.9014 46.4023 13.9724 46.3584 14.0443 46.3153C14.1035 46.2798 14.1635 46.2435 14.2244 46.2081C14.2971 46.1658 14.3699 46.1228 14.4443 46.0814C14.5068 46.046 14.5694 46.0105 14.6337 45.975C14.7073 45.9345 14.7817 45.8931 14.8561 45.8526C14.922 45.8171 14.9871 45.7817 15.0539 45.7462C15.1292 45.7065 15.2053 45.6668 15.2814 45.628C15.349 45.5934 15.4167 45.5579 15.4852 45.5233C15.5621 45.4845 15.6408 45.4456 15.7186 45.4068C15.7871 45.373 15.8564 45.3384 15.9257 45.3046C16.0061 45.2658 16.0864 45.2278 16.1676 45.1898C16.2369 45.1568 16.3062 45.1239 16.3756 45.0918C16.4593 45.053 16.5439 45.015 16.6276 44.977C16.6961 44.9458 16.7645 44.9145 16.8339 44.8833C16.9261 44.8427 17.0182 44.8022 17.1112 44.7617C17.1738 44.7347 17.2355 44.7068 17.299 44.6798C17.4427 44.6181 17.5865 44.5573 17.7319 44.4974C17.7446 44.4923 17.7564 44.4873 17.7691 44.4822H17.7699C17.7716 44.4839 17.7725 44.4856 17.7725 44.4856C17.7725 44.4856 21.4846 42.4524 24.8551 56.3252C28.2255 70.198 23.9461 87.0758 25.4385 88.567C26.9327 90.0581 59.742 88.3677 59.742 88.3677C59.742 88.3677 30.5179 105.139 26.6249 112.363L19.7368 136.932H15.8006C15.8006 136.932 7.1503 52.6235 11.6987 48.0817C11.7883 47.9922 11.8813 47.9035 11.9777 47.8157C12.0082 47.7887 12.0403 47.7617 12.0707 47.7347Z" fill="#F88950"/>
<path d="M94.678 77.113L78.2035 108.197C77.8162 108.927 77.0451 109.364 76.2274 109.315L56.6556 108.163C55.2528 108.08 54.3226 106.656 54.7987 105.319L64.8924 76.9433C65.1773 76.142 65.9071 75.5906 66.7476 75.5399L92.7001 73.9846C94.3423 73.8867 95.455 75.6472 94.678 77.113Z" fill="#271798"/>
<path d="M53.2482 105.164L63.4704 77.0523C63.7587 76.2586 64.4978 75.7115 65.3484 75.6616L66.3623 75.6025C65.7729 75.8128 65.2943 76.2772 65.0761 76.8843L54.8539 105.261C54.4142 106.482 55.16 107.773 56.3734 108.053L55.1296 107.981C53.7082 107.899 52.767 106.489 53.2482 105.164Z" fill="#161052"/>
<path d="M16.3632 85.8913L17.9182 91.475C17.9182 91.475 51.0388 82.9403 54.9259 81.0768C58.0715 79.5696 70.5725 76.231 75.2283 76.5552C75.9859 76.6076 76.084 77.6757 75.3458 77.853C72.4159 78.5572 66.5882 80.0306 66.5882 80.6115C66.5882 81.3883 72.4548 82.5316 72.0303 83.484C71.1746 85.4058 68.2988 86.5119 67.7542 88.2977C67.2105 90.0835 61.2559 88.6853 59.2181 88.6853C57.1802 88.6853 19.3938 111.588 7.96575 106.154C-3.46396 100.719 3.45627 76.6126 3.45627 76.6126L16.3632 85.8913Z" fill="#FCAD95"/>
<path d="M78.4711 97.8471C79.2288 97.0897 79.1899 95.227 80.0651 94.3531C80.9394 93.4801 81.8924 95.2464 82.1257 93.2664C82.3591 91.2864 80.9588 88.2197 82.3202 88.3751C83.6808 88.5313 85.547 94.1209 85.547 94.1209C86.527 96.4015 82.1257 104.913 79.797 104.333C77.4691 103.752 76.5669 100.992 76.5669 99.7106C76.566 98.4288 77.7127 98.6036 78.4711 97.8471Z" fill="#FCAD95"/>
<path d="M51.4671 47.8341C52.0024 49.9779 52.5317 53.5985 52.1089 55.8833C51.5255 59.0277 50.3011 60.0173 48.5516 59.3182C46.8029 58.6199 43.517 53.9641 42.7695 54.2242C42.0212 54.4851 36.9485 60.8321 34.498 59.8425C32.8517 59.1772 27.9126 48.3804 25.4385 41.9624C25.6177 41.9151 25.7936 41.8687 25.9653 41.8239C28.5316 41.1594 31.202 41.0066 33.8292 41.3621L43.8865 42.724C43.9093 42.7392 47.6155 45.1313 51.4671 47.8341Z" fill="white"/>
<path d="M51.4674 36.9015L49.2511 47.9651C49.2511 47.9651 47.1524 54.2539 43.0699 54.2539C38.9883 54.2539 32.3623 41.1647 32.3623 41.1647L41.9148 28.6335L51.4674 36.9015Z" fill="#FCAD95"/>
<path d="M51.4674 36.9013L49.2511 47.9649C49.2511 47.9649 47.1524 54.2537 43.0699 54.2537C38.9883 54.2537 32.3623 41.1644 32.3623 41.1644L39.6969 31.4256L41.2122 28.1985L51.4674 36.9013Z" fill="#FCAD95"/>
<path opacity="0.4" d="M39.5894 31.6848L41.2137 28.1985L51.4672 36.9021L50.2724 42.8658C45.1397 41.8897 40.4332 37.6426 39.5894 31.6848Z" fill="#F26E5A"/>
<path d="M61.4962 12.1549C61.4962 12.1549 63.3624 37.3674 56.0143 39.6379C48.6671 41.9092 39.4536 36.4935 39.4536 27.9925C39.4545 19.4916 42.7201 2.43047 61.4962 12.1549Z" fill="#FCAD95"/>
<path d="M54.7329 6.44877C54.7329 6.44877 68.6106 3.59569 69.0774 7.61398C69.5441 11.6314 64.8359 14.1932 61.709 14.1932C58.5812 14.1932 50.6801 13.1158 48.0266 15.7654C45.3732 18.415 39.7577 31.4637 39.7577 31.4637L37.2531 34.6748C37.2269 34.7086 36.9081 34.2003 36.8675 33.6565C36.7973 32.7184 36.5301 27.4682 33.6239 23.2768C30.4749 18.735 33.0641 11.5918 36.8548 6.87517C40.6456 2.15859 51.6423 6.44877 54.7329 6.44877Z" fill="#AF683B"/>
<path d="M44.6871 22.412C44.6871 22.412 43.6936 18.8185 41.742 19.1528C37.3137 19.9111 39.842 27.8793 41.2473 28.2102C44.1037 28.8824 45.4668 26.7014 44.6871 22.412Z" fill="#FCAD95"/>
<path d="M23.9755 58.7992C24.0947 65.7136 20.9872 83.8834 19.9556 89.7002C19.7696 90.7497 18.8428 91.5029 17.7765 91.4716C13.2527 91.3365 1.93037 90.8882 0.813355 89.7728C-0.586081 88.3754 3.89972 51.498 11.5911 46.3306C20.7775 40.1583 23.836 50.8074 23.9755 58.7992Z" fill="#FFAB4B"/>
</svg>
