<svg width="154" height="137" fill="none" xmlns="http://www.w3.org/2000/svg"><path d="M115.257 97.612c-2.576-2.151-3.896-4.142-4.135-4.52l9.06-5.714s-.013-.022-.039-.06c.007.01.762 1.12 2.27 2.315 1.926 1.526 4.165 2.5 6.654 2.896 3.168.504 6.438-.551 8.622-1.525 2.436-1.085 4.068-2.302 4.084-2.314l8.033 1.55-1.51 6.94c-3.139 2.404-8.129 4.781-12.753 5.698-7.672 1.521-14.998-.849-20.286-5.266z" fill="#B75742"/><path d="m132.526 22.207 2.127-1.1 2.113 1.124a.33.33 0 0 0 .48-.343l-.392-2.36 1.725-1.659a.328.328 0 0 0-.179-.561l-2.368-.358-1.048-2.15a.33.33 0 0 0-.59-.004l-1.072 2.139-2.372.33a.33.33 0 0 0-.186.56l1.706 1.679-.419 2.355a.328.328 0 0 0 .475.348z" fill="#86B1F2"/><path d="M123.906 65.527H19.286v10.936h104.62V65.527z" fill="#F47257"/><path d="M96.08 104.232C72.486 91.776 46.861 84.108 20.553 81.635l2.924-34.197c30.418 2.86 60.046 11.726 87.324 26.128l-14.723 30.666z" fill="#3C8F7C"/><path d="m22.873 75.382 1.993-21.327c2.765.283 5.242-1.499 5.543-4.052 25.359 3.18 50.074 10.575 73.216 21.907-1.029 2.335.179 5.22 2.67 6.509l-9.039 19.22c-2.292-1.187-5.005-.206-6.033 2.128-20.322-9.95-42.025-16.444-64.295-19.237.3-2.553-1.51-4.887-4.055-5.148z" fill="#96D9C9"/><path d="M77.313 76.556c-2.126 6.115-8.684 9.23-14.767 7.363-6.079-1.88-9.984-8.222-8.618-14.57 1.363-6.338 8.11-10.137 14.95-8.025 6.843 2.105 10.56 9.128 8.435 15.232z" fill="#50BFA5"/><path d="m62.496 81.767.51-2.048a11.08 11.08 0 0 1-2.48-1.16c-.579-.37-.79-1.118-.477-1.715l.038-.072c.345-.657 1.194-.868 1.834-.446a8.141 8.141 0 0 0 2.273 1.05c1.243.347 2.214.123 2.44-.736.211-.816-.354-1.54-1.858-2.536-2.173-1.434-3.56-2.929-3.081-5.032.433-1.905 2.193-3.045 4.759-2.821l.503-2.05c.754.209 1.508.422 2.26.638l-.483 1.894c.821.274 1.476.58 2.007.893.65.383.879 1.182.523 1.784-.367.623-1.211.802-1.866.395a7.465 7.465 0 0 0-1.916-.843c-1.472-.418-2.097.06-2.244.664-.175.713.506 1.377 2.227 2.611 2.423 1.675 3.147 3.19 2.615 5.111-.53 1.906-2.338 3.101-4.922 2.819l-.569 2.192c-.697-.202-1.394-.399-2.093-.592z" fill="#3C8F7C"/><path d="M50.327 69.11a216.36 216.36 0 0 0-18.198-3.381l.424-3.288c6.2.88 12.356 2.024 18.454 3.429-.228 1.08-.455 2.16-.68 3.24zM97.213 85.735a220.328 220.328 0 0 0-17.066-7.459l1.097-3.112a223.41 223.41 0 0 1 17.305 7.563l-1.336 3.008z" fill="#50BFA5"/><path d="M107.103 65.107C82.761 70.185 59.583 80.361 38.788 95.1c-5.62-9.68-11.238-19.362-16.857-29.044C45.975 49.015 72.775 37.25 100.92 31.378l6.184 33.73z" fill="#3C8F7C"/><path d="M37.023 88.657 26.635 70.436c2.199-1.531 3.036-4.52 1.838-6.742C48.962 50.12 71.317 40.304 94.7 34.618c.54 2.51 3.034 4.037 5.59 3.48l4.014 21.02c-2.351.513-3.808 3.015-3.269 5.524C80.5 69.635 60.869 78.255 42.877 90.175c-1.196-2.22-3.831-2.926-5.854-1.518z" fill="#96D9C9"/><path d="M77.862 55.02c1.83 6.211-1.278 12.852-6.806 15.23-5.534 2.365-11.942-.195-14.464-6.112-2.518-5.904.351-13.209 6.575-15.873 6.22-2.67 12.869.553 14.695 6.754z" fill="#50BFA5"/><path d="m69.822 68.572-.763-1.952a9.675 9.675 0 0 1-2.475.653c-.633.074-1.206-.388-1.307-1.061l-.011-.082c-.111-.74.398-1.448 1.105-1.52.72-.073 1.499-.254 2.262-.607 1.11-.514 1.703-1.308 1.39-2.135-.296-.782-1.116-1-2.78-.837-2.401.241-4.256-.067-5.073-2.044-.74-1.789-.074-3.814 1.944-5.264l-.769-1.95c.673-.312 1.347-.621 2.024-.927.231.605.464 1.208.696 1.813a9.115 9.115 0 0 1 1.978-.565c.693-.108 1.306.382 1.379 1.086.074.728-.45 1.406-1.158 1.498-.532.07-1.167.22-1.883.547-1.32.603-1.514 1.38-1.288 1.952.267.679 1.14.773 3.096.662 2.72-.208 4.097.537 4.772 2.403.668 1.852-.001 3.95-2.066 5.367l.8 2.104c-.626.282-1.25.569-1.873.859z" fill="#3C8F7C"/><path d="M53.8 66.238a200.657 200.657 0 0 0-15.313 8.867l-1.515-2.883A204.1 204.1 0 0 1 52.5 63.23c.434 1.002.868 2.005 1.3 3.008zM97.656 49.681a192.494 192.494 0 0 0-16.745 4.908l-.92-3.17a195.333 195.333 0 0 1 16.978-4.977l.687 3.24z" fill="#50BFA5"/><path d="M110.987 86.355c-25.314-1.532-50.667 2.178-74.72 10.935-3.31-10.858-6.623-21.715-9.934-32.573 27.811-10.125 57.123-14.415 86.392-12.643l-1.738 34.28z" fill="#3C8F7C"/><path d="m36.022 90.586-6.048-20.385c2.536-.9 4.064-3.57 3.395-6.037 23.477-7.712 47.928-11.29 72.435-10.601-.052 2.572 2.066 4.71 4.729 4.848l-.923 21.405c-2.451-.126-4.479 1.91-4.53 4.48-21.52-.606-42.992 2.537-63.608 9.309-.67-2.465-3.117-3.846-5.45-3.019z" fill="#96D9C9"/><path d="M84.352 68.847c.366 6.497-4.265 12.101-10.3 12.939-6.037.822-11.794-3.353-12.912-9.746-1.119-6.382 3.429-12.69 10.22-13.62 6.79-.938 12.628 3.943 12.992 10.427z" fill="#50BFA5"/><path d="m73.22 79.835-.3-2.091a9.97 9.97 0 0 1-2.606-.024c-.645-.096-1.105-.695-1.048-1.373l.007-.082c.064-.747.732-1.296 1.45-1.178.73.12 1.546.15 2.384.01 1.22-.202 1.993-.814 1.876-1.697-.111-.836-.874-1.263-2.56-1.546-2.438-.403-4.205-1.193-4.553-3.321-.317-1.928.816-3.71 3.155-4.58l-.307-2.09c.74-.125 1.48-.245 2.222-.362l.268 1.939a9.417 9.417 0 0 1 2.092-.023 1.253 1.253 0 0 1 1.113 1.416 1.336 1.336 0 0 1-1.497 1.143 6.7 6.7 0 0 0-1.994.03c-1.449.234-1.823.934-1.732 1.549.107.728.949 1.05 2.915 1.46 2.744.52 3.936 1.604 4.17 3.59.23 1.968-.923 3.822-3.301 4.646.1.75.202 1.498.303 2.248-.686.108-1.372.22-2.058.336z" fill="#3C8F7C"/><path d="M57.883 73.333a201.811 201.811 0 0 0-17.249 4.525l-.83-3.191a204.184 204.184 0 0 1 17.491-4.59l.588 3.256zM105.219 68.923a198.937 198.937 0 0 0-17.744.314l-.174-3.312a201.3 201.3 0 0 1 17.993-.32c-.024 1.107-.05 2.213-.075 3.318z" fill="#50BFA5"/><path d="M123.906 65.527H19.286v45.978h104.62V65.527z" fill="#F47257"/><path d="M123.906 99.766H98.018c-1.147 0-2.079.973-2.079 2.173 0 1.2.93 2.174 2.079 2.174H94.66c-1.148 0-2.079.972-2.079 2.173 0 1.2.93 2.173 2.079 2.173h.582c-1.149 0-2.079.973-2.079 2.174 0 .31.063.605.175.872h30.567v-11.74zM118.38 67.791H23.142v3.571h95.238v-3.57z" fill="#B75742"/><path d="M64.629 110.934h-42.98a3.512 3.512 0 0 1-3.515-3.51V85.889a3.512 3.512 0 0 1 3.515-3.51h42.979a3.512 3.512 0 0 1 3.515 3.51v21.535a3.511 3.511 0 0 1-3.514 3.51z" fill="#3C8F7C"/><path d="M33.666 88.058H21.35v7.15h12.315v-7.15zM64.978 86.247H43.14v1.335h21.838v-1.335zM63.355 101.5h-40.19v1.649h40.19V101.5zM63.355 105.382h-40.19v1.649h40.19v-1.649z" fill="#F7CC7F"/><path d="M68.758 77.266H24.35v1.185h44.407v-1.185z" fill="#B75742"/><path d="M94.175 69.61c5.462 0 9.89-4.42 9.89-9.875 0-5.454-4.428-9.875-9.89-9.875-5.462 0-9.89 4.421-9.89 9.875s4.428 9.876 9.89 9.876z" fill="#FFF4B3"/><path d="M100.968 54.975a8.28 8.28 0 0 1-2.025 11.543c-3.752 2.63-8.927 1.723-11.56-2.022a8.28 8.28 0 0 1 2.025-11.543c3.751-2.63 8.927-1.725 11.56 2.022z" fill="#FFE55A"/><path d="m95.133 65.564-.361-1.336a6.77 6.77 0 0 1-1.767.156.842.842 0 0 1-.799-.83V63.5a.84.84 0 0 1 .892-.852 4.91 4.91 0 0 0 1.598-.15c.803-.216 1.268-.674 1.116-1.235-.145-.535-.687-.75-1.824-.82-1.643-.099-2.862-.525-3.231-1.888-.335-1.237.275-2.443 1.701-3.145l-.362-1.335 1.38-.373.335 1.237c.518-.115.957-.16 1.334-.162a.841.841 0 1 1-.017 1.684 4.471 4.471 0 0 0-1.285.159c-.915.247-1.104.72-.997 1.114.126.464.699.626 2.017.752 1.835.138 2.72.73 3.063 1.994.339 1.251-.26 2.56-1.802 3.277l.389 1.434-1.38.372zM110.496 98.324a9.866 9.866 0 0 0 0-13.966c-3.862-3.857-10.124-3.857-13.986 0a9.865 9.865 0 0 0 0 13.966c3.862 3.857 10.124 3.857 13.986 0z" fill="#FFF4B3"/><path d="M110.297 86.58a8.278 8.278 0 0 1-2.025 11.544c-3.752 2.629-8.927 1.723-11.56-2.023a8.28 8.28 0 0 1 2.025-11.543c3.751-2.63 8.927-1.723 11.56 2.022z" fill="#FFE55A"/><path d="m104.463 97.17-.362-1.336a6.773 6.773 0 0 1-1.767.156.842.842 0 0 1-.799-.83l-.001-.054a.842.842 0 0 1 .893-.85c.498.032 1.047-.002 1.599-.15.802-.217 1.267-.675 1.115-1.236-.145-.535-.687-.75-1.823-.82-1.644-.1-2.862-.525-3.231-1.888-.335-1.237.275-2.443 1.701-3.145l-.362-1.335 1.38-.373.335 1.237c.518-.115.957-.16 1.334-.162a.842.842 0 1 1-.017 1.684 4.473 4.473 0 0 0-1.285.159c-.915.247-1.104.72-.998 1.113.126.464.699.626 2.017.753 1.835.137 2.72.728 3.063 1.993.339 1.252-.259 2.56-1.801 3.277l.388 1.434-1.379.373z" fill="#fff"/><path d="M84.458 88.85c5.462-.091 9.815-4.586 9.724-10.04-.091-5.453-4.593-9.8-10.054-9.71-5.462.092-9.815 4.587-9.724 10.04.091 5.454 4.593 9.801 10.054 9.71z" fill="#FFF4B3"/><path d="M87.658 86.552c4.187-1.862 6.07-6.76 4.205-10.94-1.864-4.181-6.77-6.061-10.957-4.2-4.186 1.862-6.069 6.76-4.205 10.941 1.865 4.18 6.77 6.06 10.957 4.199z" fill="#FFE55A"/><path d="m81.715 84.298.472-1.3a6.703 6.703 0 0 1-1.535-.887.842.842 0 0 1-.177-1.138l.03-.044a.843.843 0 0 1 1.221-.185c.39.312.858.6 1.395.794.781.283 1.425.176 1.624-.372.189-.52-.13-1.007-1.02-1.717-1.288-1.025-2.04-2.072-1.559-3.399.437-1.205 1.63-1.841 3.201-1.597l.472-1.3 1.344.486-.437 1.205c.49.202.876.418 1.185.633a.843.843 0 1 1-.983 1.368 4.454 4.454 0 0 0-1.143-.606c-.89-.323-1.318-.044-1.457.339-.164.452.211.913 1.217 1.773 1.423 1.166 1.807 2.156 1.36 3.39-.442 1.218-1.684 1.945-3.36 1.648l-.508 1.397-1.342-.488z" fill="#FFF4B3"/><path d="M118.38 84.672H73.588v23.97h44.792v-23.97z" fill="#F48C7F"/><path d="M95.94 101.94c0 1.2.93 2.173 2.078 2.173h-3.357c-1.147 0-2.078.973-2.078 2.174 0 1.199.93 2.173 2.078 2.173h.582c-.297 0-.579.066-.835.183h23.971v-8.876h-20.36c-1.149 0-2.079.973-2.079 2.173z" fill="#B75742"/><path d="M25.169 110.804c0 .387.216.7.482.7h120.23c.266 0 .482-.313.482-.7 0-.387-.216-.701-.482-.701H25.651c-.266 0-.482.314-.482.701z" fill="#13375B"/><path d="M124.169 112.805H97.435a1.94 1.94 0 0 1-1.943-1.939 1.94 1.94 0 0 1 1.942-1.939h26.735c1.073 0 1.943.868 1.943 1.939 0 1.071-.87 1.939-1.943 1.939z" fill="#FFE55A"/><path d="M123.626 108.927H96.892a1.94 1.94 0 1 1 0-3.879h26.734a1.94 1.94 0 1 1 0 3.879z" fill="#FFF091"/><path d="M126.763 105.047h-26.735a1.94 1.94 0 1 1 0-3.879h26.735a1.94 1.94 0 1 1 0 3.879z" fill="#FFE55A"/><path d="m92.76 21.063.34 2.297-3.643.955.082 3.421-2.607 1.16.587 1.319 3.49-1.551-.08-3.243 3.79-.993-.512-3.457-1.448.092z" fill="#466EB6"/><path d="m147.84 60.127-.237-.855a4.32 4.32 0 0 1-1.133.107.54.54 0 0 1-.517-.529l-.001-.034a.539.539 0 0 1 .569-.55c.32.019.672-.005 1.025-.103.514-.143.81-.438.71-.798-.094-.342-.444-.478-1.173-.518-1.055-.057-1.838-.325-2.081-1.198-.221-.792.165-1.568 1.077-2.024l-.238-.856.884-.245.221.792c.331-.076.613-.107.855-.11a.54.54 0 1 1-.004 1.08 2.9 2.9 0 0 0-.823.108c-.586.162-.705.467-.635.72.083.296.451.398 1.297.473 1.178.08 1.748.456 1.974 1.266.223.8-.155 1.642-1.141 2.11l.255.917-.884.247z" fill="#96D9C9"/><path d="m71.305 14.388 1.7.56s2.695-.872 2.96-1.421c.265-.549.34-1.88.724-1.916.383-.036 1.124.088 1.301.999.129.66-.841 2.572-.69 2.775.095.128 1.063.477 1.774.721.468.16.805.572.877 1.068v.001a.729.729 0 0 1-.456.783l-.489.188.157.504a.729.729 0 0 1-.461.904l-.378.127.12.307a.728.728 0 0 1-.47.962l-.33.097.013.088a.727.727 0 0 1-.53.814l-.328.086-4.528-1.492a3.238 3.238 0 0 1-1.147-.665l-1.503-.792a.373.373 0 0 1-.176-.453l1.394-4.009a.373.373 0 0 1 .466-.236z" fill="#FAE0B2"/><path d="M124.047 95.07s-.217 2.697-.041 3.574c.095.47.619 1.436.379 1.878-.241.442-.516.552-.516.552l-6.24.099c-.34.005-.115-.209.159-.407.449-.324.811-.538 2.244-1.218.093-.045.434-.257.557-.33.311-.187.624-.481.893-.775.448-.49.487-2.866.487-2.866l2.078-.508z" fill="#FCAD95"/><path d="M119.169 59.208s-2.682-1.32-2.167 1.55c.516 2.872 4.446 35.168 4.446 35.168l3.681.204s.47-10.767.367-12.313c-.103-1.546-.713-3.939-.713-3.939l-.312-9.552-3.472-11.794-1.83.676z" fill="#355389"/><path d="M120.588 99.216c1.65.415 2.871.133 3.553-.137.176.49.409 1.104.286 1.459-.152.434-.349.626-.54.631-1.507.039-5.54-.003-6.69.012a.184.184 0 0 1-.145-.303c.284-.335 3.412-1.589 3.536-1.662z" fill="#3C8F7C"/><path d="M117.002 39.798s-2.267-4.358-2.619-5.957c-.352-1.6-1.57-9.655-1.468-10.174.102-.519 2.029-1.768 1.792-2.208-.238-.441-2.074-.442-2.494-.405-.42.038-1.265.282-1.626.58-.362.298.407 9.952.636 12.03.229 2.079 3.047 8.479 3.047 8.479l2.732-2.345zM134.673 73.758s1.871-1.959 2.288-2.75c.223-.424.425-1.504.89-1.696.466-.192.749-.104.749-.104l4.909 3.85c.267.209-.042.235-.381.216-.553-.03-.969-.092-2.511-.466-.101-.024-.499-.073-.641-.093-.359-.051-.787-.02-1.182.04-.657.098-2.187 1.919-2.187 1.919l-1.934-.916z" fill="#FCAD95"/><path d="M139.975 72.715c-1.019-1.361-2.145-1.91-2.845-2.129.172-.491.361-1.133.681-1.33.391-.242.661-.192.812-.076 1.196.919 4.324 3.431 5.226 4.143.126.1.079.298-.078.327-.433.08-3.654-.916-3.796-.935z" fill="#3C8F7C"/><path d="M134.717 38.472c-1.164-2.439-3.744-3.781-6.243-3.132-.896-1.212-2.283-2.06-3.726-2.263-2.846-.403-6.518.976-6.144 3.942-.898 2.076-.679 4.935 1.118 6.337-.33 2.727 2.409 5.147 5.65 4.82 1.304 1.798 3.571 2.852 5.691 2.441.509-.099 1.282-.284 1.415-.26-.166-.02 3.697 2.507 6.361-1.992 2.72-4.59.043-9.721-4.122-9.893z" fill="#FF391D"/><path d="M118.089 60.248s6.016-2.67 6.111-2.366c.754 2.426 3.1 1.643 4.493 5.916.583 1.789 1.182 13.69 1.182 13.69s2.372-1.966 5.762-5.4c.26-.264 2.809 2.156 2.809 2.156-6.728 9.078-9.631 9.551-10.754 9.043-2.344-1.06-7.289-15.902-7.282-15.9-.592-1.155-2.321-7.14-2.321-7.14z" fill="#466EB6"/><path d="M128.062 43.483s8.696-.01 10.558-.118c1.685-.097 8.367.072 8.629.042.261-.03 1.988-2.95 2.275-2.638.288.314-.961 1.45-.575 1.743.387.295 4.533-.365 4.478-.059-.103.573-2.522.5-2.519.777.002.276 2.532-.155 2.704.304.171.46-2.434.187-2.538.392-.104.205 2.417.58 2.159 1.007-.141.232-2.233-.388-2.223-.071.01.316 1.537 1.035 1.35 1.287-.188.251-1.198-.773-2.084-.785-.886-.013-1.52-.475-2.935-.087-.699.191-6.03.841-10.535 1.226-4.619.395-8.404.52-8.404.52l-.34-3.54z" fill="#FCAD95"/><path d="M115.169 49.62c-.115-1.393.16-2.467.223-2.93-.422-1.447-1.321-4.537-1.644-5.144 0 0 1.514-2.905 3.064-2.885 0 0 1.583 3.562 2.806 4.2.018-.004.433.185.616.183 1.181-.008 5.31-.133 6.08-.147l-.434 5.849c-2.991 5.856-2.181 8.93-1.043 10.066.535.534-7.466 2.704-7.834 1.947-.434-.893-1.6-8.32-1.834-11.138z" fill="#FFE55A"/><path d="M124.216 43.118c.762-.363 6.272-.181 6.272-.181s.771 3.831.148 4.753c0 0-4.927.732-4.787 1.135l-1.633-5.707z" fill="#FFE55A"/><path d="M122.771 40.656s-.096 2.09.001 2.96c.098.87-.894 2.911-2.742 2.947-1.847.035-.271-1.958-.109-2.815.162-.857.356-4.21.356-4.21l2.494 1.118z" fill="#FCAD95"/><path d="M120.277 39.538s-.045.779-.11 1.681c.583.694 1.478 1.05 2.567.627.012-.647.037-1.19.037-1.19l-2.494-1.118z" fill="#F47458"/><path d="M122.924 34.428s1.046.313 1.634 1.358c.587 1.045.834 4.02-1.422 5.245-2.256 1.225-3.802-.834-3.699-2.731.102-1.899.684-4.401 3.487-3.872z" fill="#FCAD95"/><path d="M118.983 37.671c.153.47.499.78.774.691.274-.089.372-.542.219-1.012s-.499-.78-.772-.691c-.276.09-.374.542-.221 1.012z" fill="#FCAD95"/><path d="M122.61 34.344s1.146 3.127 2.317 3.48c1.172.353 1.049 1.879 1.049 1.879s.217-3.528-.843-4.414c-1.059-.885-2.523-.945-2.523-.945z" fill="#FF391D"/><path d="M124.411 38.423c-.19.482-.081.977.245 1.106.326.128.745-.158.936-.64.19-.482.081-.977-.245-1.106-.326-.129-.746.158-.936.64z" fill="#FCAD95"/><path d="M110.261 22.38s2.548.11 2.847.11c.299 0 1.169-.898 1.169-.898l-4.016.787z" fill="#F47458"/><path d="M112.675 22.25c5.329-1.2 8.674-6.485 7.473-11.806-1.201-5.32-6.494-8.661-11.822-7.462-5.328 1.2-8.674 6.485-7.473 11.806 1.201 5.32 6.494 8.661 11.822 7.462z" fill="#FFF4B3"/><path d="M117.296 7.854a8.28 8.28 0 0 1-2.025 11.543c-3.752 2.63-8.927 1.723-11.56-2.022a8.28 8.28 0 0 1 2.025-11.544c3.751-2.629 8.927-1.724 11.56 2.023z" fill="#FFE55A"/><path d="m111.461 18.442-.361-1.335a6.78 6.78 0 0 1-1.768.155.842.842 0 0 1-.799-.83l-.001-.053a.841.841 0 0 1 .893-.851c.498.033 1.047-.001 1.598-.15.803-.217 1.268-.674 1.116-1.236-.145-.534-.687-.75-1.824-.82-1.643-.1-2.862-.524-3.231-1.888-.335-1.237.275-2.442 1.701-3.144l-.362-1.336 1.38-.372.335 1.237c.518-.116.957-.16 1.334-.162a.842.842 0 1 1-.017 1.683 4.473 4.473 0 0 0-1.285.159c-.915.247-1.104.72-.998 1.114.126.463.699.625 2.017.752 1.835.138 2.72.729 3.063 1.994.339 1.25-.259 2.559-1.801 3.277l.388 1.433-1.378.373z" fill="#FFF4B3"/><path d="m113.107 22.49 1.052-.944s-.497-.593-.29-.706c.335-.185.91.53.858.704-.052.174-.668.735-.668.735l-.952.21z" fill="#FCAD95"/><path d="m62.138 56.326 19.38 25.527-22.833 8.317 3.453-33.844z" fill="#F88950"/><path d="M43.886 42.725s13.062 8.384 17.96 13.276c4.898 4.891 4.516 35.828 4.516 35.828l-4.654 45.103H15.801s-8.65-84.309-4.102-88.85c2.944-2.94 9.797-5.1 14.266-6.257a20.435 20.435 0 0 1 7.864-.462l10.057 1.362z" fill="#FFAB4B"/><path d="M43.113 59.295c.322-.888 1.826 2.278 1.826 2.278 1.808 9.844 4.31 58.719 2.736 64.909-1.574 6.19-2.807 8.253-3.611 8.511-.804.257-2.871-6.706-3.646-9.027-.774-2.32.563-60.784 2.695-66.67z" fill="#FF391D"/><path d="M46.08 55.47c.301 3.567-1.093 6.37-1.093 6.37-1.808.215-2.37-.171-2.37-.171-2.632-3.583-1.616-7.416-1.616-7.416 3.659-1.793 4.089-1.706 4.089-1.706 1.206 1.935.99 2.923.99 2.923z" fill="#FF391D"/><path d="M12.07 47.735c.068-.06.137-.121.208-.18.039-.033.08-.065.12-.097.065-.053.13-.108.199-.16.044-.035.09-.068.136-.102l.202-.15.149-.106.205-.143c.053-.035.108-.071.16-.107l.21-.136.171-.108c.071-.044.142-.088.214-.13l.18-.108.22-.127.19-.106.222-.122.198-.107c.075-.04.151-.08.227-.118l.204-.105.234-.116c.068-.034.137-.069.207-.102a22.424 22.424 0 0 1 .45-.213c.083-.039.168-.077.252-.115l.206-.094.277-.121.188-.082c.144-.062.288-.123.433-.183l.037-.015a.016.016 0 0 1 .004.004s3.712-2.034 7.082 11.84c3.37 13.872-.909 30.75.584 32.241 1.494 1.491 34.303-.2 34.303-.2s-29.224 16.772-33.117 23.996l-6.888 24.569H15.8s-8.65-84.308-4.102-88.85c.09-.09.182-.178.279-.266l.093-.081z" fill="#F88950"/><path d="m94.678 77.113-16.474 31.084a2.098 2.098 0 0 1-1.977 1.118l-19.571-1.152c-1.403-.083-2.333-1.507-1.857-2.844l10.093-28.376a2.107 2.107 0 0 1 1.856-1.403L92.7 73.985c1.642-.098 2.755 1.662 1.978 3.128z" fill="#271798"/><path d="M53.248 105.164 63.47 77.052a2.127 2.127 0 0 1 1.878-1.39l1.014-.06c-.59.21-1.068.675-1.286 1.282l-10.222 28.377a2.127 2.127 0 0 0 1.52 2.792l-1.244-.072c-1.422-.082-2.363-1.492-1.882-2.817z" fill="#161052"/><path d="m16.363 85.891 1.555 5.584s33.12-8.535 37.008-10.398c3.145-1.507 15.647-4.846 20.302-4.522.758.053.856 1.12.118 1.298-2.93.704-8.758 2.178-8.758 2.759 0 .776 5.867 1.92 5.442 2.872-.855 1.922-3.731 3.028-4.276 4.814-.544 1.785-6.498.387-8.536.387-2.038 0-39.824 22.903-51.252 17.469-11.43-5.435-4.51-29.541-4.51-29.541l12.907 9.278zM78.471 97.847c.758-.757.719-2.62 1.594-3.494.874-.873 1.827.893 2.06-1.087.234-1.98-1.166-5.046.195-4.89 1.36.155 3.227 5.745 3.227 5.745.98 2.28-3.421 10.792-5.75 10.212-2.328-.581-3.23-3.341-3.23-4.622-.001-1.282 1.146-1.107 1.904-1.864z" fill="#FCAD95"/><path d="M51.467 47.834c.535 2.144 1.065 5.764.642 8.05-.584 3.144-1.808 4.133-3.557 3.434-1.75-.698-5.035-5.354-5.782-5.094-.749.261-5.822 6.608-8.272 5.619-1.646-.666-6.585-11.463-9.06-17.88l.527-.14a20.435 20.435 0 0 1 7.864-.46l10.057 1.361c.023.015 3.73 2.407 7.581 5.11z" fill="#fff"/><path d="m51.467 36.901-2.216 11.064s-2.099 6.289-6.181 6.289-10.708-13.09-10.708-13.09l9.553-12.53 9.552 8.267z" fill="#FCAD95"/><path d="m51.467 36.901-2.216 11.064s-2.099 6.289-6.181 6.289-10.708-13.09-10.708-13.09l7.335-9.738 1.515-3.227L51.467 36.9z" fill="#FCAD95"/><path opacity=".4" d="m39.59 31.685 1.624-3.486 10.253 8.703-1.195 5.964c-5.132-.976-9.839-5.223-10.683-11.181z" fill="#F26E5A"/><path d="M61.496 12.155s1.866 25.212-5.482 27.483c-7.347 2.271-16.56-3.145-16.56-11.645 0-8.501 3.266-25.563 22.042-15.838z" fill="#FCAD95"/><path d="M54.733 6.449S68.61 3.596 69.077 7.614c.467 4.017-4.241 6.58-7.368 6.58-3.128 0-11.029-1.078-13.682 1.571-2.654 2.65-8.27 15.699-8.27 15.699l-2.504 3.21c-.026.035-.345-.474-.386-1.017-.07-.939-.337-6.189-3.243-10.38-3.15-4.542-.56-11.685 3.23-16.402 3.792-4.716 14.788-.426 17.879-.426z" fill="#AF683B"/><path d="M44.687 22.412s-.993-3.593-2.945-3.26c-4.428.76-1.9 8.727-.495 9.058 2.857.672 4.22-1.509 3.44-5.798z" fill="#FCAD95"/><path d="M23.976 58.8c.119 6.914-2.989 25.083-4.02 30.9a2.147 2.147 0 0 1-2.18 1.772c-4.523-.135-15.846-.584-16.963-1.7-1.4-1.397 3.087-38.274 10.778-43.441 9.187-6.173 12.245 4.476 12.385 12.468z" fill="#FFAB4B"/></svg>