<svg width="74" height="74" fill="none" xmlns="http://www.w3.org/2000/svg"><g clip-path="url(#a)"><path d="M36.884 73.767C16.544 73.767 0 57.22 0 36.884 0 16.547 16.544 0 36.884 0 57.22 0 73.767 16.544 73.767 36.884S57.22 73.767 36.884 73.767zm0-72.354c-19.56 0-35.472 15.911-35.472 35.47 0 19.56 15.912 35.472 35.472 35.472 19.56 0 35.47-15.912 35.47-35.471 0-19.56-15.91-35.471-35.47-35.471z" fill="#45C8DA"/><path d="m27.321 32.713-4.35-7.723L51.966 8.652l8.803 15.625-4.45 2.507-10.523 5.93" stroke="#000" stroke-width="1.521" stroke-miterlimit="10" stroke-linejoin="round"/><path d="m40.005 32.805.466-.261 12.406-6.988 1.896-1.07a1.868 1.868 0 0 1 .71-2.543l-4.26-7.56a1.869 1.869 0 0 1-2.542-.71L28.967 24.779a1.868 1.868 0 0 1-.71 2.542l3.037 5.389" stroke="#000" stroke-width="1.521" stroke-miterlimit="10" stroke-linejoin="round"/><path d="m34.482 28.797 2.222-1.253M47.032 21.724l2.225-1.253" stroke="#000" stroke-width="1.521" stroke-miterlimit="10"/><path d="M43.138 26.883c1.174-.662 1.558-2.206.857-3.45-.7-1.244-2.22-1.716-3.395-1.054-1.174.662-1.557 2.206-.857 3.45.701 1.243 2.221 1.715 3.395 1.054zM12.998 57.266V32.908h41.256v24.358M13 32.907c0-1.709 1.61-3.093 3.598-3.093h6.374" stroke="#000" stroke-width="1.521" stroke-miterlimit="10" stroke-linejoin="round"/><path d="M54.253 57.266c0 1.709-1.61 3.093-3.598 3.093H16.593c-1.988 0-3.598-1.384-3.598-3.093M54.253 41.22H38.377v7.733h15.876V41.22z" stroke="#000" stroke-width="1.521" stroke-miterlimit="10" stroke-linejoin="round"/><path d="M18.133 36.93v2.118" stroke="#000" stroke-width="1.521" stroke-linejoin="round"/><path d="M18.132 44.105v7.585" stroke="#000" stroke-width="1.521" stroke-linejoin="round" stroke-dasharray="10.89 10.89"/><path d="M18.132 54.218v2.12" stroke="#000" stroke-width="1.521" stroke-linejoin="round"/></g><defs><clipPath id="a"><path fill="#fff" d="M0 0h73.767v73.767H0z"/></clipPath></defs></svg>