<svg width="74" height="74" fill="none" xmlns="http://www.w3.org/2000/svg"><g clip-path="url(#a)"><path d="M36.884 73.767C16.544 73.767 0 57.22 0 36.884 0 16.547 16.544 0 36.884 0s36.883 16.547 36.883 36.884c0 20.336-16.547 36.883-36.883 36.883zm0-72.355c-19.56 0-35.472 15.912-35.472 35.472 0 19.56 15.912 35.47 35.472 35.47 19.56 0 35.47-15.91 35.47-35.47S56.445 1.412 36.885 1.412z" fill="#45C8DA"/><path d="M22.604 40.68c-3.299-9.104-2.578-17.346-2.546-17.692a.71.71 0 0 1 .614-.635c.102-.015 10.392-1.342 16.466-5.52a.707.707 0 0 1 .802 0c1.292.887 2.874 1.716 4.707 2.462l-.533 1.31c-1.745-.71-3.28-1.494-4.577-2.338-5.583 3.637-13.842 5.07-16.113 5.406-.099 1.992-.208 9.047 2.5 16.526l-1.32.48zM37.544 58.498a.718.718 0 0 1-.35-.092 31.863 31.863 0 0 1-7.5-5.925l1.035-.964a30.477 30.477 0 0 0 6.818 5.46C47.982 50.827 51.73 40.605 53.032 33.07l1.391.24c-1.37 7.917-5.346 18.694-16.523 25.093a.74.74 0 0 1-.356.095z" fill="#000"/><path d="m44.373 49.89-1.045-.954c1.85-2.027 3.394-4.4 4.587-7.056l1.29.58c-1.255 2.79-2.879 5.29-4.832 7.43zM41.22 52.82l-.876-1.109a25.244 25.244 0 0 0 1.882-1.642l.982 1.017a25.884 25.884 0 0 1-1.988 1.734zM22.85 29.87c-.176-2.672-.02-4.4-.014-4.474a.71.71 0 0 1 .615-.635c.046-.007 4.65-.597 9.079-2.267l.498 1.32c-3.701 1.399-7.416 2.052-8.821 2.268-.032.695-.06 2.002.05 3.697l-1.406.092zM17.631 55.023l-1.123-.854 14.556-19.104a.704.704 0 0 1 .989-.134l3.934 2.998 10.275-13.49-2.793-2.129a.705.705 0 0 1-.272-.656.715.715 0 0 1 .435-.562l12.797-5.18a.707.707 0 0 1 .692.091.7.7 0 0 1 .272.643l-1.59 13.723a.705.705 0 0 1-1.126.48l-2.793-2.13-14.128 18.546a.709.709 0 0 1-.99.135l-3.933-2.998-6.402 8.404-1.123-.855 6.826-8.965a.709.709 0 0 1 .989-.135l3.934 2.998 14.128-18.546a.709.709 0 0 1 .989-.134l2.37 1.805 1.313-11.3-10.544 4.269 2.369 1.804c.31.237.37.678.134.99l-11.13 14.611a.709.709 0 0 1-.989.135l-3.934-2.998-14.132 18.538z" fill="#000"/></g><defs><clipPath id="a"><path fill="#fff" d="M0 0h73.767v73.767H0z"/></clipPath></defs></svg>