<svg width="74" height="74" fill="none" xmlns="http://www.w3.org/2000/svg"><g clip-path="url(#a)"><path d="M36.884 73.767C16.544 73.767 0 57.22 0 36.884 0 16.544 16.544 0 36.884 0 57.22 0 73.767 16.544 73.767 36.884c0 20.336-16.547 36.883-36.883 36.883zm0-72.355c-19.56 0-35.472 15.912-35.472 35.472 0 19.56 15.912 35.47 35.472 35.47 19.56 0 35.47-15.91 35.47-35.47S56.445 1.412 36.885 1.412z" fill="#45C8DA"/><path d="M14.66 36.495h-1.732c0-13.21 10.746-23.955 23.955-23.955a23.955 23.955 0 0 1 21.064 12.538l-1.524.827A22.23 22.23 0 0 0 36.879 14.27c-12.252 0-22.219 9.971-22.219 22.224zM36.883 60.454a23.939 23.939 0 0 1-12.006-3.22l.87-1.499a22.224 22.224 0 0 0 11.136 2.988c12.253 0 22.224-9.971 22.224-22.224h1.732c0 13.21-10.746 23.955-23.956 23.955z" fill="#000"/><path d="m49.504 48.033-1.277-1.169a15.328 15.328 0 0 0 4.022-10.365c0-3.2-1.009-6.33-2.853-8.923l-13.08 13.075a.868.868 0 0 1-1.225 0l-5.429-5.43 1.225-1.224 4.82 4.819 13.144-13.14a.868.868 0 0 1 1.334.074 17.145 17.145 0 0 1 3.8 10.75 17.068 17.068 0 0 1-4.48 11.533z" fill="#000"/><path d="M36.883 53.596c-9.43 0-17.101-7.671-17.101-17.101s7.672-17.102 17.101-17.102v1.732c-8.473 0-15.37 6.893-15.37 15.37 0 8.473 6.893 15.37 15.37 15.37 1.758 0 3.486-.295 5.127-.875l.575 1.632c-1.827.65-3.745.974-5.702.974z" fill="#000"/><path d="M36.883 47.102c-5.849 0-10.607-4.758-10.607-10.607 0-5.85 4.758-10.607 10.607-10.607a10.5 10.5 0 0 1 6.226 2.021l-1.017 1.403a8.805 8.805 0 0 0-5.209-1.688c-4.892 0-8.875 3.978-8.875 8.875 0 4.892 3.979 8.876 8.875 8.876 4.893 0 8.876-3.98 8.876-8.876a8.851 8.851 0 0 0-.576-3.148l1.62-.614c.454 1.199.683 2.463.683 3.758 0 5.853-4.754 10.607-10.603 10.607z" fill="#000"/></g><defs><clipPath id="a"><path fill="#fff" d="M0 0h73.767v73.767H0z"/></clipPath></defs></svg>