<svg width="74" height="74" fill="none" xmlns="http://www.w3.org/2000/svg"><path d="M36.884 73.767C16.544 73.767 0 57.22 0 36.884 0 16.544 16.544 0 36.884 0s36.883 16.544 36.883 36.884c0 20.336-16.547 36.883-36.883 36.883zm0-72.355c-19.56 0-35.472 15.912-35.472 35.472 0 19.56 15.912 35.47 35.472 35.47 19.56 0 35.47-15.91 35.47-35.47S56.44 1.412 36.885 1.412z" fill="#45C8DA"/><path d="M45.045 17.73h-6.06a.708.708 0 0 1-.706-.706v-2.373c0-.388.318-.706.706-.706h6.06c.388 0 .706.318.706.706v2.373a.706.706 0 0 1-.706.706zm-5.354-1.412h4.647v-.96h-4.647v.96zM42.015 48.046a14.103 14.103 0 0 1-11.7-6.219l1.17-.79a12.688 12.688 0 0 0 10.526 5.596c7 0 12.695-5.696 12.695-12.694 0-6.519-5.081-12.074-11.568-12.642a.71.71 0 0 1-.646-.703V18.24h1.412v1.723c7.006.932 12.215 6.83 12.215 13.977.003 7.779-6.325 14.107-14.104 14.107z" fill="#000"/><path d="m30.468 28.66-1.286-.59a14.14 14.14 0 0 1 10.94-8.111v-1.724h1.412v2.356c0 .367-.279.67-.646.702a12.723 12.723 0 0 0-10.42 7.366zM51.732 21.462l-1.55 1.83 1.077.913 1.55-1.83-1.077-.913z" fill="#000"/><path d="m51.47 20.31-.914 1.077 2.524 2.14.913-1.078-2.523-2.14zM42.015 45.239v-1.413c5.452 0 9.89-4.435 9.89-9.89h1.413c0 6.232-5.07 11.303-11.303 11.303zM46.152 25.968l-3.648 5.849 1.198.747 3.648-5.849-1.198-.747zM40.33 35.31l-1.507 2.414 1.199.748 1.506-2.415-1.198-.748z" fill="#000"/><path d="M42.014 36.704a2.767 2.767 0 0 1-2.765-2.765 2.767 2.767 0 0 1 2.765-2.765 2.767 2.767 0 0 1 2.765 2.765 2.77 2.77 0 0 1-2.765 2.765zm0-4.121c-.745 0-1.352.607-1.352 1.352 0 .745.607 1.353 1.352 1.353.745 0 1.353-.608 1.353-1.353s-.607-1.352-1.352-1.352zM31.537 48.66l-1.387-.254c1.366-7.483-1.642-11.928-1.67-11.97a.71.71 0 0 1-.011-.792c1.049-1.603.978-8.22.173-8.937-.473-.343-1.169-.417-1.727-.188-.314.131-.706.417-.802 1.032-.137.882-.558 2.136-1.045 3.587-.537 1.6-1.147 3.412-1.434 4.955-.53 2.842-.47 5.597-.47 5.625a.707.707 0 0 1-.18.487l-2.736 3.062-1.052-.94 2.553-2.856c-.004-.798.035-3.154.494-5.633.304-1.638.933-3.503 1.483-5.145.449-1.33.869-2.588.986-3.35a2.694 2.694 0 0 1 1.649-2.12c1.006-.42 2.224-.285 3.1.347 1.653 1.193 1.434 8.04.4 10.43.755 1.272 2.937 5.74 1.676 12.66zM30.16 55.299l-1.017-.978 2.645-2.747.374.07c.025.004 2.737.488 5.05-.67 2.408-1.205 3.64-2.088 4.124-3.86l1.363.37c-.617 2.264-2.182 3.415-4.855 4.75-2.21 1.105-4.626.964-5.555.85L30.16 55.3z" fill="#000"/><path d="m28.518 59.614-1-1 2.511-2.513-11.515-11.516L16 47.096l-1-1 3.013-3.011a.708.708 0 0 1 .999 0l12.515 12.514a.708.708 0 0 1 0 1l-3.009 3.015z" fill="#000"/><path d="m25.277 52.87-.999.999 2.585 2.584.998-.998-2.584-2.585z" fill="#000"/></svg>