<svg width="74" height="74" fill="none" xmlns="http://www.w3.org/2000/svg"><g clip-path="url(#a)" fill="#171714"><path d="M38.703 51.792h-3.19a.66.66 0 0 1-.66-.658V48.38h-2.774a.66.66 0 0 1-.66-.658v-3.182a.66.66 0 0 1 .66-.658h2.76v-2.752a.66.66 0 0 1 .66-.658h3.19a.66.66 0 0 1 .66.658v2.752h2.76a.66.66 0 0 1 .66.658v3.182a.66.66 0 0 1-.66.658h-2.76v2.753a.64.64 0 0 1-.646.658zm-2.518-1.33h1.858V47.71a.66.66 0 0 1 .66-.658h2.76v-1.853h-2.76a.66.66 0 0 1-.66-.658V41.79h-1.858v2.752a.66.66 0 0 1-.66.658h-2.773v1.853h2.76a.66.66 0 0 1 .66.658v2.752h.013zM45.165 24.857H29.049a.66.66 0 0 1-.66-.658V17.35c-.013-.363.297-.658.66-.658h16.116a.66.66 0 0 1 .66.658v6.834a.663.663 0 0 1-.66.672zm-15.456-1.33h14.783v-5.505H29.709v5.505zM43.926 38.956H30.288a.66.66 0 0 1-.66-.658.66.66 0 0 1 .66-.658h13.638a.66.66 0 0 1 .66.658.66.66 0 0 1-.66.657z"/><path d="M56.541 38.955h-3.77a.66.66 0 0 1-.659-.658.66.66 0 0 1 .66-.658h3.096V24.857H18.333v12.782h3.096a.66.66 0 0 1 .66.658.66.66 0 0 1-.66.658h-3.77a.66.66 0 0 1-.659-.658V24.185a.66.66 0 0 1 .66-.658H56.54a.66.66 0 0 1 .66.658v14.112a.643.643 0 0 1-.66.658z"/><path d="M25.59 24.857h-5.238a.663.663 0 0 1-.66-.672V21.93c0-.376.297-.672.66-.672h5.237a.66.66 0 0 1 .66.658v2.256a.658.658 0 0 1-.66.685zm-4.565-1.33h3.905v-.94h-3.905v.94zM53.849 24.857H48.61a.66.66 0 0 1-.66-.658v-2.27a.66.66 0 0 1 .66-.657h5.238a.66.66 0 0 1 .66.657v2.256a.646.646 0 0 1-.66.672zm-4.564-1.33h3.904v-.94h-3.904v.94zM28.538 42.728H23.38a.66.66 0 0 1-.66-.657v-7.157a.66.66 0 0 1 .66-.658h5.17a.66.66 0 0 1 .66.658v7.157a.663.663 0 0 1-.673.657zM24.04 41.4h3.837v-5.827h-3.837v5.827zM50.834 42.728h-5.17a.66.66 0 0 1-.66-.657v-7.157a.66.66 0 0 1 .66-.658h5.17a.66.66 0 0 1 .66.658v7.157c.013.362-.297.657-.66.657zM46.337 41.4h3.837v-5.827h-3.837v5.827z"/><path d="M55.263 56.908h-36.31a.66.66 0 0 1-.66-.658V38.298a.66.66 0 0 1 1.319 0v17.294h34.977V38.298a.66.66 0 0 1 1.32 0V56.25a.64.64 0 0 1-.646.658z"/></g><path d="M36.8 73.6C16.506 73.6 0 57.09 0 36.8 0 16.506 16.506 0 36.8 0c20.29 0 36.8 16.506 36.8 36.8 0 20.29-16.51 36.8-36.8 36.8zm0-72.19C17.285 1.41 1.41 17.284 1.41 36.8S17.284 72.191 36.8 72.191s35.391-15.876 35.391-35.39c0-19.516-15.876-35.392-35.39-35.392z" fill="#45C8DA"/><defs><clipPath id="a"><path fill="#fff" transform="translate(17 16.693)" d="M0 0h40.215v40.215H0z"/></clipPath></defs></svg>