<svg width="74" height="74" fill="none" xmlns="http://www.w3.org/2000/svg"><path d="M36.8 73.6C16.506 73.6 0 57.09 0 36.8 0 16.506 16.506 0 36.8 0c20.294 0 36.8 16.506 36.8 36.8 0 20.29-16.51 36.8-36.8 36.8zm0-72.19C17.285 1.41 1.41 17.284 1.41 36.8S17.284 72.191 36.8 72.191s35.391-15.876 35.391-35.39c0-19.516-15.88-35.392-35.39-35.392z" fill="#45C8DA"/><g clip-path="url(#a)" fill="#000"><path d="M18 53.953c0 1.211.985 2.196 2.195 2.196h21.276c1.21 0 2.196-.985 2.196-2.196V32.701a5.485 5.485 0 0 0-5.48-5.48h-1.846v-3.64h2.632a.62.62 0 0 0 .62-.62v-4.889a.62.62 0 0 0-.62-.62H22.69a.62.62 0 0 0-.621.62v4.885c0 .345.28.621.62.621h2.637v3.64h-1.847A5.493 5.493 0 0 0 18 32.7v21.252zm18.34-35.256h2.012v3.64h-2.011v-3.64zm-3.256 0h2.012v3.64h-2.012v-3.64zm-3.257 0h2.012v3.64h-2.011v-3.64zm-3.256 0h2.011v3.64h-2.011v-3.64zm0 4.885h8.525v3.64H26.57v-3.64zm-3.257-1.245v-3.64h2.012v3.64h-2.012zm-4.069 14.272h13.41v13.41h-13.41v-13.41zm0 14.655h14.03a.62.62 0 0 0 .622-.621V35.984a.62.62 0 0 0-.621-.62h-14.03v-2.012H35.72a.62.62 0 1 0 0-1.241H19.28l.046-.23a4.242 4.242 0 0 1 4.153-3.41h14.709c2.337 0 4.233 1.9 4.233 4.233v21.25a.95.95 0 0 1-.95.95H20.195a.95.95 0 0 1-.95-.95v-2.69z"/><path d="M24.322 48.007h3.257a.62.62 0 0 0 .62-.62v-1.82h1.82a.62.62 0 0 0 .621-.621v-3.257a.624.624 0 0 0-.62-.625H28.2v-1.82a.62.62 0 0 0-.621-.62h-3.257a.62.62 0 0 0-.62.62v1.82h-1.82c-.345 0-.621.28-.621.625v3.257c0 .344.28.62.62.62h1.82v1.82a.618.618 0 0 0 .621.62zm-1.82-3.69v-2.011h1.82c.345 0 .625-.28.625-.62v-1.82h2.011v1.82c0 .344.28.62.62.62h1.82v2.011h-1.82c-.344 0-.62.28-.62.625v1.82h-2.011v-1.82a.625.625 0 0 0-.625-.625h-1.82zM50.628 17.452a3.869 3.869 0 0 0-2.965 1.379 3.876 3.876 0 0 0-.862 3.153l.923 5.418c.092.548.146.843.153 1.007l.02-.003 1.095 6.421a3.867 3.867 0 0 0 3.82 3.226c1.15 0 2.23-.502 2.97-1.38a3.87 3.87 0 0 0 .858-3.153l-2.192-12.842a3.867 3.867 0 0 0-3.82-3.226zm-2.601 4.321a2.636 2.636 0 0 1 5.195-.885l.992 5.809-5.191.885-.996-5.809zm6.8 14.1a2.635 2.635 0 0 1-4.609-1.257l-.992-5.808 5.191-.885.993 5.808a2.623 2.623 0 0 1-.583 2.142zM51.188 45.133a5.515 5.515 0 0 0-5.51 5.506 5.52 5.52 0 0 0 5.51 5.51 5.518 5.518 0 0 0 5.51-5.51 5.512 5.512 0 0 0-5.51-5.506zm-.62 9.732-.23-.046a4.273 4.273 0 0 1-3.41-4.176 4.273 4.273 0 0 1 3.41-4.176l.23-.05v8.448zm1.474-.05-.23.046v-8.444l.23.046a4.276 4.276 0 0 1 3.41 4.176 4.273 4.273 0 0 1-3.41 4.176zM43.862 22.337a2.257 2.257 0 0 0-2.253 2.253 2.257 2.257 0 0 0 2.253 2.252 2.257 2.257 0 0 0 2.253-2.252 2.257 2.257 0 0 0-2.253-2.253zm0 3.256a1.005 1.005 0 1 1 1.004-1.007c0 .551-.448 1.007-1.004 1.007zM47.931 38.62a2.256 2.256 0 0 0-2.253 2.25 2.257 2.257 0 0 0 2.253 2.252 2.256 2.256 0 0 0 2.253-2.253 2.253 2.253 0 0 0-2.253-2.249zm0 3.257a1.006 1.006 0 0 1 0-2.012c.552 0 1.004.452 1.004 1.004a1.003 1.003 0 0 1-1.004 1.008z"/></g><defs><clipPath id="a"><path fill="#fff" transform="translate(18 17.452)" d="M0 0h38.697v38.697H0z"/></clipPath></defs></svg>