<svg width="74" height="74" fill="none" xmlns="http://www.w3.org/2000/svg"><path d="M36.8 73.6C16.506 73.6 0 57.09 0 36.8 0 16.51 16.506 0 36.8 0c20.294 0 36.8 16.51 36.8 36.8 0 20.29-16.51 36.8-36.8 36.8zm0-72.19C17.285 1.41 1.41 17.284 1.41 36.8S17.284 72.191 36.8 72.191s35.391-15.876 35.391-35.39c0-19.516-15.876-35.392-35.39-35.392z" fill="#45C8DA"/><g clip-path="url(#a)" stroke="#000" stroke-width="1.518" stroke-miterlimit="10" stroke-linecap="round" stroke-linejoin="round"><path d="M55.787 56.475c-3.426 0-6.2-2.747-6.2-6.14V38.012c0-3.394 2.774-6.14 6.2-6.14 3.427 0 6.2 2.746 6.2 6.14v12.321c0 3.394-2.773 6.14-6.2 6.14z"/><path d="M53.544 36.504a2.644 2.644 0 0 1 2.284-1.306M61.987 44.173H49.581M26.616 51.519c-.897.135-1.85.209-2.821.209-6.044 0-10.945-2.815-10.945-6.282 0-1.091.482-2.114 1.332-3.01 1.856-1.953 5.466-3.272 9.613-3.272.952 0 1.876.067 2.753.202M19.349 47.998l7.267-4.175"/><path d="M12.85 45.446v5.676c0 3.15 4.901 5.703 10.945 5.703 1.856 0 3.603-.243 5.132-.667M30.94 53.283v-19.97c0-.72.231-1.421.653-1.966l2.902-3.771c.442-.572.524-1.394.204-2.06l-1.264-2.673a4.569 4.569 0 0 1-.252-3.178l2.448-8.558c.326-1.145 1.271-1.919 2.331-1.919 1.068 0 2.006.774 2.332 1.919l2.44 8.564a4.57 4.57 0 0 1-.25 3.178l-1.265 2.673a2.022 2.022 0 0 0 .204 2.06l2.903 3.771c.421.546.652 1.246.652 1.966v19.964c0 1.764-1.264 3.198-2.828 3.198h-8.375c-1.564-.007-2.835-1.434-2.835-3.198zM41.307 39.797v7.54m-5.588-15.344 1.196-1.549-1.196 1.549zM30.939 35.858h14.038"/></g><defs><clipPath id="a"><path fill="#fff" transform="translate(12 8.346)" d="M0 0h50.837v49.32H0z"/></clipPath></defs></svg>