<?xml version="1.0" encoding="utf-8"?><svg viewBox="0 0 1000 1000" xmlns="http://www.w3.org/2000/svg" xmlns:xlink="http://www.w3.org/1999/xlink"><style>:root>svg{display:none}:root>svg:target{display:block}</style><svg fill="none" viewBox="0 0 65 46" id="dots" xmlns="http://www.w3.org/2000/svg"><path d="M8.261 26.845C4.326 24.22 2.36 20.552 2.36 15.83c0-4.714 1.398-8.443 4.202-11.188C9.366 1.897 12.887.524 17.124.524c4.237 0 7.758 1.313 10.562 3.937 2.805 2.624 4.203 6.025 4.203 10.203 0 4.178-1.312 8.296-3.935 12.353L14.889 46H.21l8.051-19.155zm33.112 0c-3.935-2.625-5.903-6.293-5.903-11.015 0-4.714 1.398-8.443 4.203-11.188C42.477 1.897 45.998.524 50.235.524c4.237 0 7.758 1.313 10.563 3.937C63.602 7.085 65 10.486 65 14.664c0 4.178-1.312 8.296-3.935 12.353L48 46H33.321l8.052-19.155z" fill="#45C8DA"/></svg><svg fill="none" viewBox="0 0 100 133" id="how-to--1" xmlns="http://www.w3.org/2000/svg"><path d="M45.138 6.762l-3.455-1.668 1.379-2.22 2.954 1.422-.878 2.466zm4.988 5.607l-2.158-3.173 2.298-1.242 1.846 2.721-1.986 1.694zm1.519 7.349l-.288-3.823 2.61.074.246 3.28-2.568.469zm-2.347 7.135l1.657-3.46 2.224 1.372-1.428 2.968-2.453-.88zm-5.596 4.998l3.16-2.162 1.238 2.302-2.708 1.85-1.69-1.99zm-7.344 1.521l3.815-.288L40.1 35.7l-3.273.246-.468-2.573zm-7.123-2.359l3.455 1.668-1.37 2.228-2.963-1.43.878-2.466zm-4.98-5.598l2.158 3.164-2.306 1.242-1.846-2.713 1.994-1.693zm-1.526-7.358l.287 3.823-2.61-.074-.245-3.28 2.568-.469zm2.355-7.135l-1.666 3.46-2.215-1.372 1.42-2.968 2.46.88zm5.596-4.998l-3.168 2.17-1.239-2.31 2.716-1.85 1.69 1.99zm7.336-1.521l-3.816.288.074-2.614 3.274-.247.468 2.573z" fill="#94C6C0"/><path d="M36.08 4.197c-8.1.609-14.171 7.686-13.556 15.8.607 8.114 7.672 14.197 15.77 13.58 8.1-.608 14.171-7.686 13.564-15.8-.615-8.113-7.68-14.196-15.779-13.58zm1.722 22.878a8.202 8.202 0 01-8.788-7.571c-.336-4.521 3.045-8.467 7.557-8.804 4.513-.345 8.452 3.05 8.788 7.57.345 4.522-3.044 8.468-7.557 8.805z" fill="#94C6C0"/><path d="M34.75 16.734a3.25 3.25 0 00.295 4.595 3.236 3.236 0 004.587-.296 3.25 3.25 0 00-.295-4.595 3.251 3.251 0 00-4.587.296z" fill="#94C6C0"/><path d="M37.674 17.875l-.976 2.038 9.216 4.433.977-2.038-9.217-4.433z" fill="#94C6C0"/><path d="M36.556 17.955l-8.453 5.776 1.272 1.867 8.452-5.776-1.271-1.867z" fill="#94C6C0"/><path d="M37.547 8.584l-2.25.17.768 10.214 2.25-.17-.768-10.214z" fill="#94C6C0"/><path d="M37.203 29.533c-.23 0-.46-.008-.69-.025a10.521 10.521 0 01-7.294-3.592 10.577 10.577 0 01-2.626-7.71c.378-5.813 5.416-10.318 11.283-9.94a10.555 10.555 0 017.294 3.593 10.57 10.57 0 012.618 7.71c-.353 5.59-5.005 9.964-10.585 9.964zm-.025-20.551c-5.194 0-9.526 4.069-9.862 9.273a9.833 9.833 0 002.445 7.176 9.837 9.837 0 006.794 3.346c5.473.353 10.158-3.84 10.503-9.248a9.85 9.85 0 00-2.437-7.177 9.805 9.805 0 00-6.794-3.346 8.708 8.708 0 00-.649-.024z" fill="#fff"/><path d="M36.44 20.45l-.977-1.431.747-1.562 1.723-.132.977 1.43-.747 1.563-1.723.131z" fill="#37869D"/><path d="M72.552 14.974l-2.15-1.447 1.14-1.356 1.838 1.241-.828 1.562zm2.798 4.242l-1.14-2.335 1.665-.6.968 1.998-1.493.937zm.304 5.08l.18-2.598 1.74.313-.156 2.22-1.764.065zm-2.274 4.538l1.445-2.146 1.354 1.135-1.24 1.85-1.558-.84zm-4.233 2.803l2.33-1.134.6 1.66-1.995.979-.935-1.505zm-5.071.304l2.593.181-.312 1.743-2.216-.156-.065-1.768zm-4.53-2.277l2.142 1.455-1.132 1.357-1.846-1.25.836-1.562zm-2.797-4.242l1.14 2.335-1.666.6-.976-1.997 1.502-.938zm-.304-5.072l-.18 2.59-1.74-.313.156-2.22 1.764-.057zm2.273-4.546l-1.453 2.146-1.353-1.134 1.247-1.842 1.559.83zm4.234-2.803l-2.33 1.143-.6-1.669 1.994-.97.936 1.496zm5.062-.304l-2.584-.172.311-1.751 2.216.156.057 1.767z" fill="#FFBA51"/><path d="M66.743 12.377c-5.481-.387-10.24 3.756-10.626 9.256-.377 5.491 3.75 10.259 9.24 10.637 5.48.386 10.24-3.757 10.617-9.256.386-5.491-3.75-10.26-9.23-10.637zM65.66 27.864c-3.052-.214-5.358-2.869-5.145-5.935.214-3.058 2.864-5.368 5.916-5.154a5.545 5.545 0 015.145 5.935 5.54 5.54 0 01-5.916 5.154z" fill="#FFBA51"/><path d="M64.625 20.638a2.206 2.206 0 00-.254 3.108 2.196 2.196 0 003.102.255 2.206 2.206 0 00.254-3.108 2.196 2.196 0 00-3.102-.255z" fill="#FFBA51"/><path d="M66.476 21.689l-.854 1.267 5.739 3.882.854-1.267-5.74-3.883z" fill="#FFBA51"/><path d="M65.717 21.638l-6.225 3.042.67 1.374 6.224-3.041-.67-1.375z" fill="#FFBA51"/><path d="M65.772 15.346l-.48 6.921 1.523.106.48-6.921-1.523-.106z" fill="#FFBA51"/><path d="M66.053 29.525c-.5 0-1-.058-1.501-.157-3.881-.83-6.367-4.66-5.539-8.54.698-3.305 3.66-5.706 7.032-5.706.5 0 1.001.05 1.502.156 3.881.823 6.36 4.661 5.538 8.542-.705 3.304-3.66 5.705-7.031 5.705zm-.008-13.91c-3.142 0-5.891 2.237-6.54 5.32-.762 3.616 1.551 7.184 5.162 7.948.46.1.927.148 1.395.148 3.142 0 5.891-2.236 6.54-5.31.763-3.617-1.543-7.185-5.154-7.95a6.28 6.28 0 00-1.403-.155z" fill="#fff"/><path d="M52.473 7.6a4.95 4.95 0 01-.032-.854 4.15 4.15 0 01.139-.847l1.149.066c.098-.288.23-.56.385-.806l-.763-.863a4.48 4.48 0 011.28-1.134l.763.863c.263-.132.55-.23.846-.296l.065-1.151c.28-.041.566-.058.862-.033.287.016.574.066.845.14l-.066 1.15c.288.091.558.23.804.395l.862-.764c.451.345.837.789 1.132 1.282l-.861.765c.131.263.23.55.295.846l1.149.066c.033.28.05.567.033.855a4.052 4.052 0 01-.14.847l-1.148-.066c-.099.288-.23.559-.386.806l.763.863a4.44 4.44 0 01-1.28 1.134l-.763-.863a3.04 3.04 0 01-.845.296l-.066 1.15a3.692 3.692 0 01-.853.034 4.038 4.038 0 01-.846-.14l.066-1.15a2.93 2.93 0 01-.804-.396l-.861.765a4.308 4.308 0 01-1.133-1.274l.862-.765a3.34 3.34 0 01-.296-.846L52.473 7.6zm4.3 1.415a2.011 2.011 0 002.125-1.891 2.004 2.004 0 00-1.879-2.121 2.011 2.011 0 00-2.125 1.89 1.998 1.998 0 001.879 2.122zm10.035 31.698a4.241 4.241 0 01.107-1.702l1.149.066a3.17 3.17 0 01.385-.806l-.763-.863a4.48 4.48 0 011.28-1.134l.763.863c.263-.132.55-.23.846-.296l.065-1.151a4.277 4.277 0 011.707.107l-.066 1.15c.287.091.558.223.804.387l.862-.764c.451.345.837.78 1.132 1.274l-.861.764c.131.263.23.551.295.847l1.149.066c.033.28.05.567.033.855a4.052 4.052 0 01-.14.846l-1.149-.065a3.471 3.471 0 01-.385.805l.763.863c-.353.46-.78.847-1.272 1.135l-.763-.863c-.263.131-.55.238-.845.296l-.066 1.15a4.27 4.27 0 01-1.706-.106l.065-1.151a3.157 3.157 0 01-.804-.387l-.862.765a4.24 4.24 0 01-1.132-1.282l.862-.765a3.694 3.694 0 01-.296-.847l-1.157-.057zm4.3 1.414a2.011 2.011 0 002.125-1.891 2.012 2.012 0 00-1.887-2.13 2.011 2.011 0 00-2.125 1.892 2.018 2.018 0 001.887 2.129zM15.032 5.093A4.241 4.241 0 0115 4.238a4.68 4.68 0 01.13-.846l1.15.066a3.44 3.44 0 01.385-.806l-.763-.863c.345-.452.78-.839 1.28-1.135l.763.863c.263-.131.55-.23.846-.295l.065-1.143c.28-.041.566-.058.862-.033.287.016.574.066.845.132l-.066 1.15c.287.099.558.23.804.387l.862-.765c.46.354.845.79 1.132 1.274l-.861.765c.13.263.23.55.295.847l1.149.065c.033.28.049.568.033.864a4.143 4.143 0 01-.14.846l-1.149-.065c-.098.287-.23.559-.385.805l.763.863a4.47 4.47 0 01-1.28 1.135l-.763-.863a3.68 3.68 0 01-.845.295l-.066 1.151a4.274 4.274 0 01-1.707-.107l.066-1.15a3.485 3.485 0 01-.804-.395l-.862.765a4.412 4.412 0 01-1.132-1.275l.861-.764a3.05 3.05 0 01-.295-.847l-1.14-.066zm4.3 1.414a2.011 2.011 0 002.125-1.89 2.012 2.012 0 00-1.887-2.13 2.011 2.011 0 00-2.125 1.891 2.018 2.018 0 001.887 2.13z" fill="#C8E8DE"/><path d="M87.462 25.686l-1.674-.6.672-1.505 1.428.518-.427 1.587zm2.363 1.899l-1.28-1.225 1.222-1.102 1.1 1.053-1.043 1.274zm1.395 2.696l-.673-1.644 1.567-.502.575 1.406-1.47.74zm.172 3.033l.058-1.775 1.632.18-.049 1.513-1.64.082zm-1.067 2.845l.763-1.603 1.428.83-.656 1.364-1.535-.591zm-2.133 2.154l1.354-1.143.96 1.332-1.157.986-1.157-1.175zm-2.822 1.109l1.698-.501.344 1.611-1.46.428-.583-1.538zm-3.029-.14l1.756.23-.344 1.612-1.502-.197.09-1.645zm-2.708-1.364l1.51.929-.976 1.332-1.289-.798.755-1.463zm-1.92-2.351l.993 1.463-1.42.822-.86-1.25 1.287-1.035zm-.803-2.927l.32 1.743-1.642.173-.27-1.496 1.591-.42zm.458-3l-.418 1.718-1.567-.51.36-1.48 1.626.272zm1.634-2.557l-1.083 1.398-1.223-1.102.928-1.2 1.378.904zm2.535-1.669l-1.559.839-.673-1.513 1.338-.715.894 1.39zm2.987-.493l-1.764.132V23.4l1.518-.116.246 1.636z" fill="#94C6C0"/><path d="M91.966 31.605c.32 4.307-2.896 8.056-7.196 8.384-4.3.33-8.04-2.901-8.37-7.209-.32-4.307 2.897-8.056 7.197-8.385 4.3-.32 8.041 2.91 8.37 7.21z" fill="#94C6C0"/><path d="M84.18 37.203c-2.331 0-4.382-1.66-4.883-3.946-.582-2.696 1.124-5.376 3.816-5.96a5.23 5.23 0 011.066-.115c2.33 0 4.382 1.66 4.882 3.946a4.972 4.972 0 01-.68 3.773 4.977 4.977 0 01-3.143 2.187 4.541 4.541 0 01-1.059.115zm.007-9.462c-.32 0-.64.033-.951.107a4.45 4.45 0 00-3.39 5.294c.444 2.03 2.266 3.502 4.333 3.502.32 0 .64-.033.952-.107a4.434 4.434 0 002.79-1.94 4.432 4.432 0 00.599-3.354c-.435-2.022-2.265-3.502-4.332-3.502z" fill="#fff"/><path d="M84.179 36.15c-1.838 0-3.454-1.306-3.856-3.115-.46-2.13.894-4.242 3.019-4.702.279-.058.566-.09.845-.09a3.966 3.966 0 013.849 3.107 3.952 3.952 0 01-.534 2.976 3.91 3.91 0 01-2.478 1.726 3.651 3.651 0 01-.845.099zm.008-7.349c-.246 0-.484.025-.73.083a3.353 3.353 0 00-2.133 1.48 3.344 3.344 0 00-.46 2.556 3.413 3.413 0 003.307 2.672c.246 0 .484-.025.73-.083a3.316 3.316 0 002.125-1.48 3.343 3.343 0 00.46-2.556 3.39 3.39 0 00-3.299-2.672z" fill="#fff"/><path d="M83.638 33.339l-.714-1.052.55-1.135 1.263-.098.706 1.044-.542 1.142-1.263.099z" fill="#37869D"/><path d="M14.877 11.061l-2.643-1.274 1.05-1.702L15.55 9.18l-.672 1.882zm2.641 3.272l-1.657-2.425 1.764-.945 1.411 2.08-1.518 1.29zm.641 4.193l-.222-2.919 2.002.058.189 2.507-1.97.354zm-1.502 3.962l1.272-2.64 1.698 1.053-1.083 2.26-1.887-.673zm-3.266 2.647l2.42-1.653.944 1.76-2.067 1.422-1.297-1.53zm-4.184.649l2.92-.222-.057 1.998-2.51.189-.353-1.965zM5.251 24.28l2.634 1.274-1.05 1.702-2.256-1.094.672-1.882zM2.61 21.008l1.648 2.417-1.755.953-1.42-2.08 1.526-1.29zm-.649-4.201l.222 2.927-1.994-.058L0 17.17l1.961-.362zm1.502-3.962L2.19 15.492.492 14.44l1.091-2.269 1.88.674zm3.274-2.639l-2.42 1.653-.944-1.768L5.44 8.677l1.297 1.53zm4.185-.649L8 9.779l.058-1.998 2.503-.189.36 1.965z" fill="#FFBA51"/><path d="M9.428 9.22c-4.66.353-8.148 4.422-7.795 9.083.353 4.662 4.414 8.163 9.067 7.81 4.66-.354 8.148-4.423 7.795-9.084-.353-4.66-4.406-8.163-9.067-7.81z" fill="#FFBA51"/><path d="M10.068 24.518c-.148 0-.295-.008-.443-.016-3.766-.239-6.63-3.502-6.384-7.275.238-3.74 3.488-6.643 7.262-6.396 3.766.247 6.63 3.51 6.384 7.275-.23 3.6-3.225 6.412-6.819 6.412zm-.008-12.881c-3.167 0-5.801 2.482-6.006 5.647-.214 3.321 2.314 6.198 5.629 6.412 3.315.222 6.186-2.335 6.392-5.63.213-3.322-2.306-6.2-5.621-6.413-.132-.016-.263-.016-.394-.016z" fill="#fff"/><path d="M9.313 19.232l-.977-1.43.755-1.562 1.723-.131.969 1.43-.747 1.562-1.723.131z" fill="#F48E39"/><path d="M20.202 91.967c-6.08-6.354-4.185-25.434-6.851-35.57-2.667-10.144-7.656-13.736-6.097-16.013 2.913-4.226 24.854-6.15 30.516-.551 9.337 9.223 8.69 51.97 5.3 52.282-3.405.32-22.868-.148-22.868-.148z" fill="#37A0AB"/><path d="M53.048 93.66c1.387-.55 6.655-5.22 2.495-7.069-7.599-3.362-34.709-1.455-36.416 1.036-1.706 2.49 2.035 5.754 3.791 5.894 1.748.148 30.13.14 30.13.14z" fill="#37A0AB"/><path d="M53.057 93.53H22.91v1.75h30.147v-1.75z" fill="#214F64"/><path d="M39.451 94.4h-2.929v30.975h2.93V94.401z" fill="#214F64"/><path d="M50.57 132.865h-2.715c0-3.428-4.522-6.322-9.871-6.322-5.35 0-9.872 2.894-9.872 6.322h-2.715c0-4.99 5.645-9.043 12.587-9.043 6.941 0 12.587 4.061 12.587 9.043z" fill="#214F64"/><path d="M31.287 35.649c.419 1.25.304 2.4-.377 3.51-.632 1.028-1.617 2.26-1.124 3.593.5 1.356 1.993 1.586 2.888 2.466 1.075 1.044.656 2.671 1.058 4.044.542 1.842 2.413 1.907 3.832 1.694.772-.116 1.526-.37 2.306-.354 1.091.033 2.248.502 3.216 1.028.952.518 2.208 1.266 3.258.592 1.017-.658.902-1.965 1.28-3.034.402-1.126 1.33-.929 2.224-1.15 1.239-.305 1.296-1.365 1.28-2.557-.017-1.43 1.075-2.195 1.575-3.436.492-1.233-.476-1.99-.919-2.985-.525-1.167-.033-2.326.033-3.55.221-4.029-3.135-6.881-5.801-8.755-1.797-1.267-3.783-2.088-5.908-1.34-2.61.92-4.144 3.107-6.146 4.998-.722.682-1.715.871-2.404 1.561-.936.921-.657 2.524-.27 3.675z" fill="#213C53"/><path d="M60.736 92.124a4.394 4.394 0 00-5.604 2.729c-.353 1.003-.353 2.072.04 2.968 1.174 2.671 9.74 21.554 11.677 26.001 1.592 3.633 5.678 2.302 4.43-1.693-.96-3.042-6.62-23.363-7.696-26.766-.443-1.414-1.345-2.713-2.847-3.24z" fill="#FCA887"/><path d="M64.338 76.077c.271-2.383-4.463-3.995-6.047-4.956-1.846-1.11-5.096-2.557-6.59-4.423-.721-5.13-.286-10.539-.204-15.701.04-2.516-2.347-4.472-4.809-3.897-3.479.814-3.02 4.48-2.888 7.226.18 3.839.443 7.703 1.067 11.492.312 1.866.656 3.765 2.125 5.056 2.585 2.285 6.162 3.625 9.313 4.9 1.666.673 7.606 4.02 8.033.303z" fill="#F48E39"/><path d="M53.36 93.792a4.39 4.39 0 00-6.015 1.628c-.533.92-.221 2.54 0 3.51.648 2.844 5.005 22.426 6.064 27.161.878 3.871 5.145 3.329 4.669-.822-.37-3.174-2.11-24.193-2.52-27.745-.172-1.48-.812-2.926-2.198-3.732z" fill="#FCA887"/><path d="M60.268 84.183c-2.724-.937-5.9.427-7.09 3.033-.532 1.135-.64 2.343-.253 3.37 1.157 3.05 10.035 25.172 11.93 30.252l6.712-1.414c-.861-3.469-6.86-28.665-7.82-32.545-.402-1.611-1.698-2.08-3.479-2.696z" fill="#DD6441"/><path d="M40.445 77.828l.008 14.23s19.652 1.611 20.587 1.62c1.477.008 2.757-2.048 2.872-4.711.09-2.22-.64-4.25-1.772-4.71-7.434-3.01-21.695-6.429-21.695-6.429z" fill="#DD6441"/><path d="M54.656 87.191c-2.585-1.48-6.04-.69-7.705 1.76-.738 1.068-1.067 2.277-.853 3.411.615 3.346 3.938 26.059 4.948 31.624l7.171-.139c-.246-3.716-.763-28.09-1.042-32.25-.123-1.734-.829-3.444-2.52-4.406z" fill="#F88950"/><path d="M27.644 79.39s-5.645 11.994 1.953 12.742c6.72 1.25 17.92 1.85 23.623 2.244 1.764.123 3.274-1.85 3.38-4.3.083-2.038-.803-3.97-2.174-4.348-6.203-1.767-26.782-6.338-26.782-6.338z" fill="#F88950"/><path d="M45.343 80.327L41.265 87.8l-14.253.485 2.109-7.547 16.222-.41z" fill="#F88950"/><path d="M74.702 127.891c-1.543.526-2.347-.066-3.783.09-.992.107-1.698.773-2.6.214-.994-.617-.887-3.485-.887-3.485l3.438-.872s2.659 1.825 5.276 1.209c1.838-.436 3.077.633 3.077.633.082.6-2.839 1.644-4.521 2.211z" fill="#214F64"/><path d="M70.304 127.135l.394 2.12-1.034.354-1.65-2.31 2.29-.164z" fill="#214F64"/><path d="M67.44 124.948c-.008-.139-.123-.526-.123-.526l3.43-.97s3.323 1.241 5.391 1.595c-.287.658-1.633.871-3.282 1.044-2.15-.633-4.43-1.488-5.415-1.143z" fill="#FCA887"/><path d="M60.162 130.859c-1.79.164-2.487-.674-4.07-.88-1.092-.139-2.019.387-2.84-.444-.902-.904-.049-3.954-.049-3.954l3.906-.049s2.38 2.639 5.334 2.655c2.076.008 3.126 1.472 3.126 1.472-.058.657-3.455 1.019-5.407 1.2z" fill="#214F64"/><path d="M55.649 128.911l-.115 2.367-1.198.107-1.173-2.885 2.486.411z" fill="#214F64"/><path d="M53.154 125.836c.033-.156.008-.6.008-.6l3.915-.156s3.24 2.178 5.366 3.099c-.476.625-1.97.51-3.783.279-2.15-1.233-4.373-2.737-5.506-2.622z" fill="#FCA887"/><path d="M41.642 45.596c5.81 1.159 6.712 1.455 6.975 1.8 0 0 .23 3.617.213 10.177-.008 2.014-.467 7.25-.467 7.25-2.15 3.173-3.381 14.033-3.93 15.134-1.076 1.266-13.523 1.562-15.312 0 0 0 .59-10.769 1.23-14.558-.385-9.717.633-17 1.183-18.578.976-.535 5.89-2.072 10.108-1.225z" fill="#F7EACF"/><path d="M45.327 46.36c-.936-.205-2.134-.452-3.685-.764-1.468-.296-3.02-.296-4.472-.156.23.715 3.135 3.954 6.22 4.167 1.674.115 2.043-1.693 1.937-3.247z" fill="#FCA38B"/><path d="M45.343 46.114s.837 5.656.337 13.58c-.493 7.925-2.815 22.417-2.815 22.417s5.317.19 5.965-.69c.173-1.217-.32-12.282.312-16.59 1.518-10.34.632-17.353.632-17.353l-4.43-1.364zM30.54 47.1s1.609-2.088 7.123-2.063c2.018 4.99 3.57 25.401-.476 37.56-5.342.205-11.545-.486-11.545-.486s.099-8.138 0-11.278c-.73-22.401 4.899-23.733 4.899-23.733z" fill="#FFBA51"/><path d="M38.713 46.229l4.833.871.156-5.434-3.545-.452-1.444 5.015z" fill="#FCA38B"/><path d="M42.135 43.795c.385.239 1.198.346 1.493.313l.074-2.442-3.545-.444c0-.008.205 1.464 1.978 2.573z" fill="#F78376"/><path d="M47.993 33.076l-.738 5.952c-.493 2.737-2.257 4.776-4.866 4.307-2.61-.468-5.071-3.272-4.579-6.009l.969-5.393 9.214 1.143z" fill="#FCAD95"/><path d="M37.08 36.117s4.16.56 5.933-1.438c1.772-2.006 1.994-3.1 1.994-3.1l-6.482-1.98-1.444 6.518z" fill="#213C53"/><path d="M47.977 37.161s-3.397-2.194-3.734-5.055c-.336-2.86 3.89-.255 3.89-.255l-.156 5.31z" fill="#213C53"/><path d="M39.296 36.693c.27.871-.066 1.743-.747 1.965-.69.213-1.469-.313-1.74-1.184-.278-.871.058-1.751.747-1.965.69-.222 1.469.304 1.74 1.184z" fill="#FCAD95"/><path d="M51.234 71.49c-.385-.008-5.875-.682-8.23-1.2-1.985-.436-5.784-.97-7.04-2.82-.853-1.266-.632-3.855-.582-5.277.13-3.798.689-7.571 1.132-11.336.566-4.67-6.433-6.01-7.656-1.48-.984 3.642-.705 8.336-.558 12.06.173 4.455.903 9.585 5.178 11.927 4.218 2.31 9.551 2.524 14.253 2.64.935.024 2.076.114 3.208.147a97.36 97.36 0 01.295-4.66z" fill="#F48E39"/><path d="M33.175 73.25c0 .657.533 1.191 1.19 1.191h42.872a1.192 1.192 0 000-2.384H34.365c-.657 0-1.19.535-1.19 1.192z" fill="#2B6D87"/><path d="M80.249 71.433c-.222 1.38-1.47 2.499-2.798 2.499H48.699c-1.33 0-2.224-1.118-2.01-2.5l2.97-18.898c.221-1.381 1.469-2.5 2.798-2.5H81.2c1.33 0 2.224 1.119 2.01 2.5l-2.96 18.899z" fill="#2B6D87"/><path d="M80.503 71.95c-.213 1.382-1.469 2.5-2.798 2.5H48.962c-1.33 0-2.232-1.118-2.01-2.5l2.97-18.907c.213-1.38 1.469-2.499 2.798-2.499h28.743c1.33 0 2.224 1.118 2.01 2.5l-2.97 18.907z" fill="#37A0AB"/><path d="M60.917 62.925c-.287 1.652 1.928 2.967 4.948 2.926 3.011-.041 5.686-1.414 5.965-3.066.287-1.66-1.928-2.968-4.94-2.927-3.01.033-5.686 1.414-5.973 3.067z" fill="#2B6D87"/><path d="M95.363 132.939l1.567.016-3.208-54.954-6.113-.041 7.754 54.979zm-14.326.016h1.567l-3.315-56.582h-6.105l7.853 56.582zm-70.05 0H9.428l2.84-56.582h6.096l-7.377 56.582zm14.327 0h-1.56l3.308-56.582h6.113l-7.861 56.582z" fill="#213C53"/><path d="M7.705 77.097c0-1.579.624-2.853 1.387-2.853h88.576c.764 0 1.387 1.282 1.387 2.853 0 1.578-.623 2.86-1.387 2.86H9.093c-.772 0-1.387-1.282-1.387-2.86z" fill="#213C53"/></svg><svg fill="none" viewBox="0 0 120 147" id="how-to--2" xmlns="http://www.w3.org/2000/svg"><path d="M41.358 146.346c.457 0 .808-1.961-.964-2.003-.408-.007-1.814-1.354-2.398-2.038-.464-.529-4.543-1.213-4.578.48-.021 1.064-.33 3.547.351 3.554 1.667 0 5.444.007 7.589.007z" fill="#4D909E"/><path d="M27.37 71.488a143.22 143.22 0 01-6.28-4.224 76.488 76.488 0 01-2.982-2.236c-.408-.317-.788-.642-1.175-.966l.106-.247c.295-.67.626-1.375.977-2.073.704-1.41 1.463-2.835 2.237-4.246a196.23 196.23 0 012.384-4.245c.809-1.41 1.631-2.82 2.454-4.203.05-.085.085-.148.127-.226.928-1.833.204-4.083-1.618-5.014a3.71 3.71 0 00-5 1.63 264.712 264.712 0 00-2.23 4.477 223.104 223.104 0 00-2.151 4.52 139.577 139.577 0 00-2.054 4.634c-.33.79-.654 1.6-.963 2.461-.155.437-.303.882-.45 1.39-.07.26-.14.521-.211.867a6.728 6.728 0 00-.092.606c-.02.219-.049.564.007 1.051l.036.261c.084.642.421 1.241.984 1.65l.9.656.886.585c.591.367 1.175.727 1.759 1.058 1.167.67 2.327 1.29 3.495 1.89 1.167.6 2.342 1.17 3.516 1.728 1.182.557 2.349 1.1 3.559 1.636a1.927 1.927 0 002.398-.733 1.955 1.955 0 00-.62-2.687z" fill="#FCAD95"/><path d="M24.543 43.194c-1.808-1.586-6.063-.014-8.777 5.162-1.702 3.252-4.037 7.892-4.037 7.892-.612 1.685 5.936 6.953 8.946 4.668 0 0 2.187-5.02 4.022-8.66 1.203-2.39 3.123-6.191-.154-9.062z" fill="#DD6441"/><path d="M90.466 54.04c-11.294 0-20.964-6.41-24.65-16.325-4.936-13.322 2.73-28.512 17.09-33.871a29.508 29.508 0 0110.36-1.89c11.293 0 20.97 6.41 24.649 16.325 4.936 13.322-2.729 28.512-17.09 33.872a29.506 29.506 0 01-10.359 1.89zm2.8-48.744a26.2 26.2 0 00-9.2 1.679C71.43 11.693 64.642 24.958 68.94 36.558c3.193 8.597 11.64 14.154 21.527 14.154a26.2 26.2 0 009.199-1.678c12.644-4.718 19.431-17.983 15.127-29.584-3.186-8.604-11.639-14.154-21.527-14.154z" fill="#2B6D87"/><path opacity=".3" d="M82.758 3.449C69.235 8.49 62.02 22.694 66.653 35.176 71.281 47.651 86 53.674 99.524 48.632c13.524-5.043 20.739-19.246 16.105-31.728C110.994 4.43 96.282-1.6 82.759 3.45z" fill="#BECAD3"/><path d="M65.086 35.754C70.03 49.07 85.734 55.55 100.094 50.19c14.361-5.352 22.026-20.55 17.09-33.871C112.247 2.997 96.536-3.477 82.175 1.883c-14.36 5.353-22.026 20.55-17.09 33.871zm48.975-18.272c4.304 11.594-2.482 24.866-15.127 29.584s-26.429-.882-30.726-12.475c-4.304-11.6 2.483-24.866 15.127-29.584C95.98.29 109.764 5.89 114.061 17.482z" fill="#37A0AB"/><path d="M89.348 17.891a471.132 471.132 0 01-1.835-8.244 32.1 32.1 0 00-6.71 2.194 3460.61 3460.61 0 001.675 8.272 32.233 32.233 0 016.87-2.222zm17.602-1.481c-.429-2.122-.858-4.238-1.28-6.34-3.98-1.035-8.333-1.423-12.827-1.07.429 2.101.85 4.217 1.28 6.34 4.494-.353 8.84.035 12.827 1.072z" fill="#fff"/><path d="M8.726 75.401c-2.067 1.093-4.473.6-5.366-1.107-.9-1.706.057-3.97 2.124-5.063l59.56-31.474c2.067-1.093 2.89-.134 3.783 1.566.893 1.7 1.52 3.505-.548 4.598L8.726 75.4z" fill="#37A0AB"/><path d="M8.15 77.58c-2.54 1.34-5.64.438-6.928-2.01l-.12-.218c-1.286-2.461-.273-5.536 2.265-6.876l34.109-18.025c2.538-1.34 5.64-.437 6.927 2.01l.12.226c1.286 2.447.274 5.528-2.265 6.861L8.15 77.581z" fill="#2B6D87"/><path d="M14.022 145.951c.394.225 1.652-1.319.126-2.215-.351-.211-.928-2.073-1.11-2.954-.148-.692-3.39-3.273-4.234-1.806-.535.924-2.005 2.948-1.414 3.272 1.463.826 4.761 2.666 6.632 3.703z" fill="#4D909E"/><path d="M34.41 90.373s-4.29 20.98-6.934 27.8c-1.266 3.265-7.722-.635-7.61-2.955.535-11.093 1.07-21.29.865-29.09.598-.593 13.679 4.245 13.679 4.245z" fill="#213C53"/><path d="M19.978 112.517c1.147-4.485 8.82.895 7.504 5.656-1.624 5.846-9.34 16.741-13.052 23.025-.394.67-6.787-1.686-5.887-3.618 2.532-5.388 9.037-15.691 11.435-25.063z" fill="#213C53"/><path d="M20.45 88.222c1.533 2.151 10.078 6.065 20.43 1.545L40.05 78.2l-19.664.31s-.253 6.051.064 9.712z" fill="#214F64"/><path d="M32.567 41.79c5.661.452 11.435 3.322 11.146 6.961-.14 1.806-1.364 5.05-2.074 14.366-.851 11.071 1.118 15.444-1.132 16.741-4.522 2.596-20.958 2.363-21.577-.924-.654-3.49-.197-31.762.07-34.139.387-3.293 7.905-3.455 13.567-3.004z" fill="#F88950"/><path d="M59.157 46.27c-1.027 1.797-4.22 11.156-5.085 10.923-1.99-.67-3.368-2.003-4.909-3.385-1.589-1.432-3.572-4.507-5.717-5.254-4.487-1.573-6.013 3.963-3.312 6.7 3.621 3.674 9.22 10 14.747 8.18 5.218-1.714 6.337-13.886 6.87-16.728.48-2.468-2.186-1.467-2.594-.437z" fill="#FCAD95"/><path d="M42.096 44.88c3.024 2.073 7.195 6.284 12.033 10.67 1.182 2.27-1.856 8.667-5.338 8.23-4.03-2.2-10.338-7.772-10.338-7.772-8.214-6.347-1.385-14.576 3.643-11.128z" fill="#F88950"/><path d="M27.947 41.84l4.95.204.043-6.466-4.6-.219-.393 6.481z" fill="#FFA58F"/><path d="M35.886 30.69s.12 3.11.022 4.557c-.155 2.228-.753 4.386-2.448 4.407-2.11.028-3.143-2.292-3.03-4.506l-.008-4.436 5.464-.021z" fill="#FFAE99"/><path d="M27.18 36.206c-.253-.804-.33-2.892-.69-3.837-.358-.945-2.334-5.26 2.547-6.107.844-.148 7.58-1.48 7.904 2.13.289 3.195-.485 2.856-1.434 3.209-.598.225-.5 1.03-2.237 1.142-.907.064-1.638-.26-1.94.79-.366 1.255-.24 2.743-.64 3.441-.45.776-2.772 1.622-3.51-.768z" fill="#213C53"/><path d="M31.906 34.097c.302.656.127 1.39-.394 1.629-.52.24-1.188-.099-1.49-.762-.31-.663-.127-1.389.393-1.629.527-.24 1.196.099 1.49.762z" fill="#FFAE99"/><path d="M24.76 90.02c6.161 6.263 7.997 17.151 9.755 24.471.823 3.449 8.91 3.548 8.924-1.022.035-11.241-1.835-20.592-2.841-27.7-.007 0-18.72 1.325-15.837 4.251z" fill="#214F64"/><path d="M43.411 113.201c-.316-6.58-9.874-4.196-8.995.663 1.083 6.008-1.188 20.549-1.526 27.855-.035.811 6.154 2.088 6.456 0 .605-4.16 4.311-23.405 4.065-28.518z" fill="#214F64"/><path d="M34.578 42.052a19.374 19.374 0 00-2.011-.261c-1.927-.155-4.058-.233-6.062-.148.52.712 1.66 1.756 3.931 1.756 2.187 0 3.481-.776 4.142-1.347z" fill="#FFA58F"/><path d="M30.429 43.68c-2.3 0-3.523-1.015-4.142-1.868a.275.275 0 01.063-.388.273.273 0 01.387.064c.541.747 1.624 1.643 3.692 1.643 2.053 0 3.291-.698 3.973-1.277a.284.284 0 01.394.029.286.286 0 01-.028.395c-.76.634-2.117 1.396-4.34 1.403z" fill="#DD6441"/><path d="M58.447 43.356c.098-1.198.506-1.868.556-1.882.478-.156.21 1.84.717 1.784.767-.085 1.118-3.71 1.575-3.759.218-.021.162 2.25.162 2.25s.682-2.384 1.055-2.328c.767.12.274 2.828.274 2.828s.654-1.77.739-1.297c.295 1.6-.69 5.585-2.42 5.712-2.552.183-2.756-2.109-2.658-3.308z" fill="#FCAD95"/></svg><svg fill="none" viewBox="0 0 131 148" id="how-to--3" xmlns="http://www.w3.org/2000/svg"><path d="M56.323 133.313c.033-.172.058-.475.058-.475l3.617.295s2.276 1.048 4.306 1.736c1.825.614 3.233.811 3.052 1.548-.392 1.638-2.488 2.073-4.296 2.015-1.662-.049-3.078-.565-4.502-.925-.982-.254-1.9.131-2.562-.729-.63-.795.098-2.884.327-3.465z" fill="#214F64"/><path d="M38.947 12.786c-1.572.237-3.013-.598-2.153-2.154.86-1.549 3.912-2.343 5.214-1.147 1.301 1.196.998 3.432 0 3.391-.999-.041-1.114-.385-3.062-.09z" fill="#B04844"/><path d="M9.874 57.183s-3.7 3.08-5.467 2.842c-1.76-.237-2.423-1-2.423-1l-1.416-.99L.83 56.7l1.137-.705s2.963-1.278 3.094-1.368c.131-.09-1.465-.86-1.555-1.18-.09-.327.074-.671.074-.671l4.387 1.335 1.907 3.072zM75.017 2.8c-.114-.999-.843-.351-.843-.351S73.847.769 73.372.58c-.376-.156-1.506.63-1.506.63l-.982 2.753s-1.007-1.704-1.162-.778c-.033.188.532 1.925.875 2.99a5.837 5.837 0 00-.09.63c-.073.746-.106 1.286-.106 1.286l2.554 1.172s.933-1.401 1.497-2.875c-.008-.009.835-1.123.565-3.588z" fill="#FCAD95"/><path d="M27.177 133.542l-.27-1.908-4.043-.328-.917 2.023c-.025.041-1.383 2.138-1.392 3.334-.024 1.72 1.711 1.778 3.618 1.778 1.465 0 2.881-.828 3.266-1.737.45-1.106-.262-3.162-.262-3.162z" fill="#214F64"/><path d="M55.103 100.859c-2.349-.983-5.287.016-6.547 2.211-.557.959-.753 1.999-.483 2.917.794 2.727 5.713 22.771 7.35 27.195.188.499 6.015.254 5.82-.836 0 0-3.078-24.631-3.635-28.055-.221-1.442-.966-2.785-2.505-3.432z" fill="#DD6441"/><path d="M52.173 71.616l-13.431 3.702s9.036 29.538 9.527 30.906c.786 2.179 3.348 3.293 5.852 2.458 2.079-.697 3.601-2.548 3.364-4.375-1.072-8.306-5.312-32.691-5.312-32.691z" fill="#DD6441"/><path d="M29.06 99.999c2.184-1.032 4.902-.099 6.072 2.088.524.951.696 1.999.45 2.933-.736 2.76-7.12 27.039-7.12 27.039-1.17.934-6.622.541-6.376-1.024.556-3.555 3.773-23.803 4.289-27.268.204-1.45 1.26-3.088 2.684-3.768z" fill="#F88950"/><path d="M31.196 70.207l13.472 3.645s-8.602 29.792-9.085 31.168c-.761 2.179-3.422 3.17-5.762 2.4-1.949-.639-3.618-2.22-3.373-4.047 1.105-8.29 4.748-33.166 4.748-33.166z" fill="#F88950"/><path d="M31.154 70.936c0-8.42 1.916-12.164 1.916-12.164l17.171-2.466s1.605 7.258 2.087 15.457l-9.51 6.152-11.664-6.979z" fill="#F88950"/><path d="M74.01 9.092c.123-.557-1.137-.451-2.128-.967-1.105-.582-1.956-1.72-2.21-.778-.065.246-.155.483-.229.72a128.446 128.446 0 01-1.645 4.612c-.982 2.58-2.07 5.103-3.503 7.463-.14.245-1.727 1.277-2.25 1.605-1.605 1.008-3.291 1.884-4.994 2.728-2.962 1.466-6 2.81-9.044 4.095-2.938 1.196-3.167 5.415-.352 6.898 2.595 1.367 5.844-1.106 8.07-2.286 3.364-1.77 6.704-3.653 9.798-5.873 1.817-1.302 3.601-2.752 4.55-4.817 1.564-3.407 2.538-7.11 3.356-10.755.14-.581.41-1.589.581-2.645z" fill="#214F64"/><path d="M40.936 28.21c5.762.09 6.67.205 6.973.467 0 0 1.44 3.89 3.274 9.264.573 1.688-.884 5.882-.884 5.882-1.94 3.776-.58 15.244-.696 15.563-4.395 5.144-15.935.328-17.892-.745l1.056-5.472c-.77-9.215-1.653-20.855-1.367-22.305.86-.614 5.353-2.72 9.536-2.654z" fill="#F7EACF"/><path d="M26.186 32.756c-2.242 4.899-3.347 11.69-5.189 13.491-3.683 2.843-10.272 5.988-13.48 7.692-.68.36.434 1.13.95 2.13.548 1.048.531 2.31 1.112 2.146 2.12-.598 4.306-.926 6.41-1.59 2.528-.794 8.34-2.285 13.16-9.722 1.63-2.507 1.834-3.785 3.209-6.43.974-1.9 2.283-3.998 2.57-6.144.4-2.4-1.596-4.612-4.035-4.431-2.128.172-3.454.114-4.707 2.858z" fill="#214F64"/><path d="M41.255 31.06c1.62-.09 2.504-.876 2.98-1.736l-.09-1.482s-4.486-.32-7.613.647l1.228 1.785c.933.492 2.112.86 3.495.787z" fill="#FCA38B"/><path d="M42.883 24.04c1.58-.712 4.944-2.342 3.913-3.996-.892-1.426.213-2.77-.336-4.252-.523-1.417-1.4-2.097-2.488-3.063-1.269-1.13-3.683-1.77-5.426-.778-.623.352-.893.868-1.547 1.138-.582.238-2.366.311-2.415 2.392-.025 1.106.336 1.442-.647 2.285-1.94 1.655-.785 2.892-.63 3.711.18.958 3.299 1.605 4.346 2.76l5.23-.196z" fill="#BF5A44"/><path d="M38.44 28.448l4.116.032-.613-4.25-2.996.122-.508 4.096z" fill="#FCA38B"/><path d="M40.936 26.097c.352.13 1.031.106 1.276.04l-.27-1.908-2.995.123s.368 1.122 1.989 1.745z" fill="#F78376"/><path d="M44.21 17.136v4.587c-.025 2.187-1.105 4.005-3.152 3.98-2.782-.032-4.28-1.883-4.264-4.07l.05-4.317 7.366-.18z" fill="#FCAD95"/><path d="M35.845 19.446c.892.72 3.56-1.295 4.87-2.343 1.031.737 3.004 2.392 3.814 2.211.393-.09.254-2.285.09-2.981-.54-2.36-4.24-2.244-4.24-2.244s-2.922-.279-4.035 1.67c-.36.64-1.007 3.277-.5 3.687z" fill="#BF5A44"/><path d="M36.573 28.054s2.005 7.848 2.292 16.408c.27 7.962 1.4 22.026.614 23.754-.745 1.63-10.608 1.63-10.608-1.4 0-4.096.188-12.28 0-16.367-.22-4.718-1.588-17.193-1.203-18.872.393-1.671 5.557-2.458 8.905-3.523zm7.587-.434s6.72-.278 8.84-.606c.474.533.867 11.378 1.604 21.077.156 2.113.639 12.557.712 17.021.041 2.589-7.833 3.449-7.915 1.696-.319-7.225-.245-16.637-.417-21.347-.23-6.528-2.824-17.84-2.824-17.84z" fill="#214F64"/><path d="M100.538 147.541c-.532.008-.957-2.351 1.097-2.425.475-.016 2.095-1.662 2.775-2.482.532-.647 5.279-1.515 5.328.525.033 1.286.417 4.276-.377 4.284-1.939.024-6.335.073-8.823.098zm-30.211-3.915c-.499-.189-.04-2.54 1.9-1.86.441.156 2.553-.786 3.486-1.31.729-.41 5.468.507 4.772 2.432-.434 1.205-1.162 4.137-1.899 3.859-1.817-.689-5.926-2.237-8.259-3.121z" fill="#4D909E"/><path d="M97.82 78.3s1.605 22.927 2.424 31.856c.384 4.202 9.903 4.39 9.952 1.589.238-13.385.622-28.555-.638-37.492-.647-.745-11.737 4.047-11.737 4.047z" fill="#BDDAE5"/><path d="M110.442 111.27c-1.163-5.456-10.313-7.061-10.199-1.106.123 6.373 1.875 23.083 2.701 31.856.09.934 7.727 2.121 7.727-.451.843-6.618 1.645-21.526-.229-30.299z" fill="#BDDAE5"/><path d="M110.196 79.2s-10.976 6.333-23.54 2.327l-.548-13.966 22.778-2.302 1.31 13.942z" fill="#DDEBF4"/><path d="M111.031 61.917a192.965 192.965 0 003.462-2.998 134 134 0 003.372-3.08 90.12 90.12 0 003.209-3.162c.442-.442.843-.9 1.244-1.351-.057-.09-.107-.18-.164-.279a57.784 57.784 0 00-1.506-2.326 143.6 143.6 0 00-3.372-4.71 270.49 270.49 0 00-3.544-4.685 351.706 351.706 0 00-3.626-4.629c-.074-.09-.131-.172-.188-.245a4.499 4.499 0 011.129-6.258 4.485 4.485 0 016.254 1.13 445.93 445.93 0 013.396 4.988 452.949 452.949 0 013.315 5.046c1.089 1.704 2.169 3.416 3.217 5.21a58.593 58.593 0 011.547 2.785c.253.492.507 1 .761 1.59.131.302.254.597.393.998.065.205.131.41.204.705.066.262.156.663.164 1.261v.312c0 .778-.303 1.556-.908 2.138l-.974.925-.966.844a45.694 45.694 0 01-1.932 1.548 87.863 87.863 0 01-3.888 2.826 131.91 131.91 0 01-3.928 2.638c-1.318.86-2.636 1.695-3.995 2.53-.965.59-2.242.41-2.987-.482-.81-.967-.688-2.433.311-3.269z" fill="#FCAD95"/><path d="M109.828 27.637c1.907-2.196 7.26-1.008 11.353 4.742a766.642 766.642 0 016.114 8.782c1.006 1.916-5.983 9.272-9.961 7.036 0 0-3.43-5.644-6.221-9.699-1.825-2.662-4.747-6.905-1.285-10.861z" fill="#F88950"/><path d="M98.148 24.278c-6.867.18-14.053 3.146-13.988 7.356.033 2.089.475 6.225.614 17.013.172 12.82-1.522 18.734 1.097 20.364 5.254 3.268 24.759 3.252 25.749-.5 1.056-3.989 2.808-37.197 2.66-39.949-.204-3.825-9.265-4.472-16.132-4.284z" fill="#FFAB4B"/><path d="M64.762 30.487c1.49 2.007 6.647 12.762 7.653 12.37 2.292-1.09 3.757-2.884 5.41-4.76 1.703-1.941 3.65-5.906 6.123-7.11 5.164-2.523 7.784 3.89 4.927 7.552-3.822 4.915-9.65 13.287-16.542 11.894-6.515-1.319-9.568-15.735-10.623-19.061-.917-2.883 2.422-2.064 3.052-.885z" fill="#FCAD95"/><path d="M84.324 28.169c-3.331 2.916-7.014 6.766-12.212 12.713-1.096 2.891 3.463 10.124 7.571 9.1 4.527-3.21 10.469-10.828 10.469-10.828 5.55-4.53-.278-15.826-5.828-10.985z" fill="#F88950"/><path d="M103.91 24.524l-6.065-.098.393-7.905 5.639.066.033 7.937z" fill="#FFA58F"/><path d="M94.989 10.353s-.36 3.793-.344 5.562c.033 2.728.614 5.414 2.685 5.554 2.578.18 4.002-2.58 4.027-5.292l.319-5.414-6.687-.41z" fill="#FFAE99"/><path d="M105.244 17.7c.36-.966.606-3.505 1.113-4.627.5-1.13 1.294-3.465 1.015-4.49-.278-1.015-1.547-.917-1.907-1.367-.368-.443-1.064-1.294-2.087-1.507-1.031-.213-1.94.819-2.21.507-.581-.639-2.16-1.056-2.84-.229-.638.786-1.498.098-1.98-.123-1.613-.729-2.35 1.22-1.883 1.925.49.746.671 1.139.45 1.655-.147.336-.663 1.548.483 2.04.72.31.54 1.286 2.66 1.556 1.113.139 2.022-.197 2.324 1.106.361 1.556.099 3.366.549 4.25.466.967 3.241 2.172 4.313-.695z" fill="#AF683B"/><path d="M99.605 14.793c-.417.786-.253 1.687.369 2.015.614.327 1.457-.041 1.874-.828.426-.786.254-1.687-.368-2.023-.614-.32-1.457.05-1.875.836z" fill="#FFAE99"/><path d="M99.965 80.954s-7.26 20.896-9.6 29.644c-1.097 4.12-10.772 1.196-10.338-1.605 2.062-13.385 4.96-24.926 6.425-33.445l13.513 5.406z" fill="#DDEBF4"/><path d="M80.608 105.364c1.064-5.906 10.96-1.024 9.83 4.808-1.203 6.25-5.746 23.067-8.054 31.553-.245.901-8.561-.073-8.127-2.613.859-4.988 5.254-27.686 6.351-33.748z" fill="#DDEBF4"/><path d="M95.7 24.458a24.62 24.62 0 012.448-.18c2.333-.065 4.911-.024 7.317.197-.679.794-2.136 1.925-4.878 1.785-2.627-.13-4.133-1.105-4.886-1.802z" fill="#FFA58F"/><path d="M105.466 24.475c-.679.794-2.136 1.925-4.878 1.786-2.627-.131-4.133-1.106-4.895-1.802l9.773.016z" fill="#FFA58F"/><path d="M101.046 26.916c2.75 0 4.248-1.253 4.919-2.023l-.982-.844c-.672.778-1.965 1.695-4.355 1.564-2.373-.122-3.749-.95-4.485-1.63l-.876.95c.892.82 2.537 1.827 5.296 1.975.155.008.319.008.483.008z" fill="#F88950"/><path d="M65.204 26.891c-.286-1.425-.876-2.17-.933-2.179-.59-.114.008 2.236-.614 2.236-.933.009-1.866-4.284-2.422-4.275-.27 0 .122 2.72.122 2.72s-1.154-2.761-1.596-2.639c-.9.246.066 3.424.066 3.424s-1.04-2.03-1.072-1.45c-.132 1.958 1.62 6.586 3.715 6.496 3.11-.139 3.029-2.9 2.734-4.333z" fill="#FCAD95"/></svg><svg fill="none" viewBox="0 0 154 137" id="how-to--4" xmlns="http://www.w3.org/2000/svg"><path d="M115.257 97.612c-2.576-2.151-3.896-4.142-4.135-4.52l9.06-5.714s-.013-.022-.039-.06c.007.01.762 1.12 2.27 2.315 1.926 1.526 4.165 2.5 6.654 2.896 3.168.504 6.438-.551 8.622-1.525 2.436-1.085 4.068-2.302 4.084-2.314l8.033 1.55-1.51 6.94c-3.139 2.404-8.129 4.781-12.753 5.698-7.672 1.521-14.998-.849-20.286-5.266z" fill="#B75742"/><path d="M132.526 22.207l2.127-1.1 2.113 1.124a.33.33 0 00.48-.343l-.392-2.36 1.725-1.659a.328.328 0 00-.179-.561l-2.368-.358-1.048-2.15a.33.33 0 00-.59-.004l-1.072 2.139-2.372.33a.33.33 0 00-.186.56l1.706 1.679-.419 2.355a.328.328 0 00.475.348z" fill="#86B1F2"/><path d="M123.906 65.527H19.286v10.936h104.62V65.527z" fill="#F47257"/><path d="M96.08 104.232C72.486 91.776 46.861 84.108 20.553 81.635l2.924-34.197c30.418 2.86 60.046 11.726 87.324 26.128l-14.723 30.666z" fill="#3C8F7C"/><path d="M22.873 75.382l1.993-21.327c2.765.283 5.242-1.499 5.543-4.052 25.359 3.18 50.074 10.575 73.216 21.907-1.029 2.335.179 5.22 2.67 6.509l-9.039 19.22c-2.292-1.187-5.005-.206-6.033 2.128-20.322-9.95-42.025-16.444-64.295-19.237.3-2.553-1.51-4.887-4.055-5.148z" fill="#96D9C9"/><path d="M77.313 76.556c-2.126 6.115-8.684 9.23-14.767 7.363-6.079-1.88-9.984-8.222-8.618-14.57 1.363-6.338 8.11-10.137 14.95-8.025 6.843 2.105 10.56 9.128 8.435 15.232z" fill="#50BFA5"/><path d="M62.496 81.767l.51-2.048a11.08 11.08 0 01-2.48-1.16c-.579-.37-.79-1.118-.477-1.715l.038-.072c.345-.657 1.194-.868 1.834-.446a8.141 8.141 0 002.273 1.05c1.243.347 2.214.123 2.44-.736.211-.816-.354-1.54-1.858-2.536-2.173-1.434-3.56-2.929-3.081-5.032.433-1.905 2.193-3.045 4.759-2.821l.503-2.05a252.5 252.5 0 012.26.638l-.483 1.894c.821.274 1.476.58 2.007.893.65.383.879 1.182.523 1.784-.367.623-1.211.802-1.866.395a7.465 7.465 0 00-1.916-.843c-1.472-.418-2.097.06-2.244.664-.175.713.506 1.377 2.227 2.611 2.423 1.675 3.147 3.19 2.615 5.111-.53 1.906-2.338 3.101-4.922 2.819l-.569 2.192c-.697-.202-1.394-.399-2.093-.592z" fill="#3C8F7C"/><path d="M50.327 69.11a216.36 216.36 0 00-18.198-3.381l.424-3.288c6.2.88 12.356 2.024 18.454 3.429-.228 1.08-.455 2.16-.68 3.24zm46.886 16.625a220.328 220.328 0 00-17.066-7.459l1.097-3.112a223.41 223.41 0 0117.305 7.563l-1.336 3.008z" fill="#50BFA5"/><path d="M107.103 65.107C82.761 70.185 59.583 80.361 38.788 95.1c-5.62-9.68-11.238-19.362-16.857-29.044C45.975 49.015 72.775 37.25 100.92 31.378l6.184 33.73z" fill="#3C8F7C"/><path d="M37.023 88.657L26.635 70.436c2.199-1.531 3.036-4.52 1.838-6.742C48.962 50.12 71.317 40.304 94.7 34.618c.54 2.51 3.034 4.037 5.59 3.48l4.014 21.02c-2.351.513-3.808 3.015-3.269 5.524C80.5 69.635 60.869 78.255 42.877 90.175c-1.196-2.22-3.831-2.926-5.854-1.518z" fill="#96D9C9"/><path d="M77.862 55.02c1.83 6.211-1.278 12.852-6.806 15.23-5.534 2.365-11.942-.195-14.464-6.112-2.518-5.904.351-13.209 6.575-15.873 6.22-2.67 12.869.553 14.695 6.754z" fill="#50BFA5"/><path d="M69.822 68.572l-.763-1.952a9.675 9.675 0 01-2.475.653c-.633.074-1.206-.388-1.307-1.061l-.011-.082c-.111-.74.398-1.448 1.105-1.52a7.09 7.09 0 002.262-.607c1.11-.514 1.703-1.308 1.39-2.135-.296-.782-1.116-1-2.78-.837-2.401.241-4.256-.067-5.073-2.044-.74-1.789-.074-3.814 1.944-5.264l-.769-1.95c.673-.312 1.347-.621 2.024-.927.231.605.464 1.208.696 1.813a9.115 9.115 0 011.978-.565c.693-.108 1.306.382 1.379 1.086.074.728-.45 1.406-1.158 1.498-.532.07-1.167.22-1.883.547-1.32.603-1.514 1.38-1.288 1.952.267.679 1.14.773 3.096.662 2.72-.208 4.097.537 4.772 2.403.668 1.852-.001 3.95-2.066 5.367l.8 2.104c-.626.282-1.25.569-1.873.859z" fill="#3C8F7C"/><path d="M53.8 66.238a200.657 200.657 0 00-15.313 8.867l-1.515-2.883A204.1 204.1 0 0152.5 63.23c.434 1.002.868 2.005 1.3 3.008zm43.856-16.557a192.494 192.494 0 00-16.745 4.908l-.92-3.17a195.333 195.333 0 0116.978-4.977l.687 3.24z" fill="#50BFA5"/><path d="M110.987 86.355c-25.314-1.532-50.667 2.178-74.72 10.935-3.31-10.858-6.623-21.715-9.934-32.573 27.811-10.125 57.123-14.415 86.392-12.643l-1.738 34.28z" fill="#3C8F7C"/><path d="M36.022 90.586l-6.048-20.385c2.536-.9 4.064-3.57 3.395-6.037 23.477-7.712 47.928-11.29 72.435-10.601-.052 2.572 2.066 4.71 4.729 4.848l-.923 21.405c-2.451-.126-4.479 1.91-4.53 4.48-21.52-.606-42.992 2.537-63.608 9.309-.67-2.465-3.117-3.846-5.45-3.019z" fill="#96D9C9"/><path d="M84.352 68.847c.366 6.497-4.265 12.101-10.3 12.939-6.037.822-11.794-3.353-12.912-9.746-1.119-6.382 3.429-12.69 10.22-13.62 6.79-.938 12.628 3.943 12.992 10.427z" fill="#50BFA5"/><path d="M73.22 79.835l-.3-2.091a9.97 9.97 0 01-2.606-.024c-.645-.096-1.105-.695-1.048-1.373l.007-.082c.064-.747.732-1.296 1.45-1.178.73.12 1.546.15 2.384.01 1.22-.202 1.993-.814 1.876-1.697-.111-.836-.874-1.263-2.56-1.546-2.438-.403-4.205-1.193-4.553-3.321-.317-1.928.816-3.71 3.155-4.58l-.307-2.09c.74-.125 1.48-.245 2.222-.362l.268 1.939a9.417 9.417 0 012.092-.023 1.253 1.253 0 011.113 1.416 1.336 1.336 0 01-1.497 1.143 6.7 6.7 0 00-1.994.03c-1.449.234-1.823.934-1.732 1.549.107.728.949 1.05 2.915 1.46 2.744.52 3.936 1.604 4.17 3.59.23 1.968-.923 3.822-3.301 4.646.1.75.202 1.498.303 2.248-.686.108-1.372.22-2.058.336z" fill="#3C8F7C"/><path d="M57.883 73.333a201.811 201.811 0 00-17.249 4.525l-.83-3.191a204.184 204.184 0 0117.491-4.59l.588 3.256zm47.336-4.41a198.937 198.937 0 00-17.744.314l-.174-3.312a201.3 201.3 0 0117.993-.32c-.024 1.107-.05 2.213-.075 3.318z" fill="#50BFA5"/><path d="M123.906 65.527H19.286v45.978h104.62V65.527z" fill="#F47257"/><path d="M123.906 99.766H98.018c-1.147 0-2.079.973-2.079 2.173 0 1.2.93 2.174 2.079 2.174H94.66c-1.148 0-2.079.972-2.079 2.173 0 1.2.93 2.173 2.079 2.173h.582c-1.149 0-2.079.973-2.079 2.174 0 .31.063.605.175.872h30.567v-11.74zm-5.526-31.975H23.142v3.571h95.238v-3.57z" fill="#B75742"/><path d="M64.629 110.934h-42.98a3.512 3.512 0 01-3.515-3.51V85.889a3.512 3.512 0 013.515-3.51h42.979a3.512 3.512 0 013.515 3.51v21.535a3.511 3.511 0 01-3.514 3.51z" fill="#3C8F7C"/><path d="M33.666 88.058H21.35v7.15h12.315v-7.15zm31.312-1.811H43.14v1.335h21.838v-1.335zM63.355 101.5h-40.19v1.649h40.19V101.5zm0 3.882h-40.19v1.649h40.19v-1.649z" fill="#F7CC7F"/><path d="M68.758 77.266H24.35v1.185h44.407v-1.185z" fill="#B75742"/><path d="M94.175 69.61c5.462 0 9.89-4.42 9.89-9.875 0-5.454-4.428-9.875-9.89-9.875-5.462 0-9.89 4.421-9.89 9.875s4.428 9.876 9.89 9.876z" fill="#FFF4B3"/><path d="M100.968 54.975a8.28 8.28 0 01-2.025 11.543 8.306 8.306 0 01-11.56-2.022 8.28 8.28 0 012.025-11.543c3.751-2.63 8.927-1.725 11.56 2.022z" fill="#FFE55A"/><path d="M95.133 65.564l-.361-1.336a6.77 6.77 0 01-1.767.156.842.842 0 01-.799-.83V63.5a.84.84 0 01.892-.852 4.91 4.91 0 001.598-.15c.803-.216 1.268-.674 1.116-1.235-.145-.535-.687-.75-1.824-.82-1.643-.099-2.862-.525-3.231-1.888-.335-1.237.275-2.443 1.701-3.145l-.362-1.335 1.38-.373.335 1.237c.518-.115.957-.16 1.334-.162a.841.841 0 11-.017 1.684 4.471 4.471 0 00-1.285.159c-.915.247-1.104.72-.997 1.114.126.464.699.626 2.017.752 1.835.138 2.72.73 3.063 1.994.339 1.251-.26 2.56-1.802 3.277l.389 1.434-1.38.372zm15.363 32.76a9.866 9.866 0 000-13.966c-3.862-3.857-10.124-3.857-13.986 0a9.865 9.865 0 000 13.966c3.862 3.857 10.124 3.857 13.986 0z" fill="#FFF4B3"/><path d="M110.297 86.58a8.278 8.278 0 01-2.025 11.544c-3.752 2.629-8.927 1.723-11.56-2.023a8.28 8.28 0 012.025-11.543 8.306 8.306 0 0111.56 2.022z" fill="#FFE55A"/><path d="M104.463 97.17l-.362-1.336a6.773 6.773 0 01-1.767.156.842.842 0 01-.799-.83l-.001-.054a.842.842 0 01.893-.85 4.964 4.964 0 001.599-.15c.802-.217 1.267-.675 1.115-1.236-.145-.535-.687-.75-1.823-.82-1.644-.1-2.862-.525-3.231-1.888-.335-1.237.275-2.443 1.701-3.145l-.362-1.335 1.38-.373.335 1.237c.518-.115.957-.16 1.334-.162a.842.842 0 11-.017 1.684 4.473 4.473 0 00-1.285.159c-.915.247-1.104.72-.998 1.113.126.464.699.626 2.017.753 1.835.137 2.72.728 3.063 1.993.339 1.252-.259 2.56-1.801 3.277l.388 1.434-1.379.373z" fill="#fff"/><path d="M84.458 88.85c5.462-.091 9.815-4.586 9.724-10.04-.091-5.453-4.593-9.8-10.054-9.71-5.462.092-9.815 4.587-9.724 10.04.091 5.454 4.593 9.801 10.054 9.71z" fill="#FFF4B3"/><path d="M87.658 86.552c4.187-1.862 6.07-6.76 4.205-10.94-1.864-4.181-6.77-6.061-10.957-4.2-4.186 1.862-6.069 6.76-4.205 10.941 1.865 4.18 6.77 6.06 10.957 4.199z" fill="#FFE55A"/><path d="M81.715 84.298l.472-1.3a6.703 6.703 0 01-1.535-.887.842.842 0 01-.177-1.138l.03-.044a.843.843 0 011.221-.185c.39.312.858.6 1.395.794.781.283 1.425.176 1.624-.372.189-.52-.13-1.007-1.02-1.717-1.288-1.025-2.04-2.072-1.559-3.399.437-1.205 1.63-1.841 3.201-1.597l.472-1.3 1.344.486-.437 1.205c.49.202.876.418 1.185.633a.843.843 0 11-.983 1.368 4.454 4.454 0 00-1.143-.606c-.89-.323-1.318-.044-1.457.339-.164.452.211.913 1.217 1.773 1.423 1.166 1.807 2.156 1.36 3.39-.442 1.218-1.684 1.945-3.36 1.648l-.508 1.397-1.342-.488z" fill="#FFF4B3"/><path d="M118.38 84.672H73.588v23.97h44.792v-23.97z" fill="#F48C7F"/><path d="M95.94 101.94c0 1.2.93 2.173 2.078 2.173h-3.357c-1.147 0-2.078.973-2.078 2.174 0 1.199.93 2.173 2.078 2.173h.582c-.297 0-.579.066-.835.183h23.971v-8.876h-20.36c-1.149 0-2.079.973-2.079 2.173z" fill="#B75742"/><path d="M25.169 110.804c0 .387.216.7.482.7h120.23c.266 0 .482-.313.482-.7 0-.387-.216-.701-.482-.701H25.651c-.266 0-.482.314-.482.701z" fill="#13375B"/><path d="M124.169 112.805H97.435a1.94 1.94 0 01-1.943-1.939 1.94 1.94 0 011.942-1.939h26.735c1.073 0 1.943.868 1.943 1.939 0 1.071-.87 1.939-1.943 1.939z" fill="#FFE55A"/><path d="M123.626 108.927H96.892a1.94 1.94 0 110-3.879h26.734a1.94 1.94 0 110 3.879z" fill="#FFF091"/><path d="M126.763 105.047h-26.735a1.94 1.94 0 110-3.879h26.735a1.94 1.94 0 110 3.879z" fill="#FFE55A"/><path d="M92.76 21.063l.34 2.297-3.643.955.082 3.421-2.607 1.16.587 1.319 3.49-1.551-.08-3.243 3.79-.993-.512-3.457-1.448.092z" fill="#466EB6"/><path d="M147.84 60.127l-.237-.855a4.32 4.32 0 01-1.133.107.54.54 0 01-.517-.529l-.001-.034a.539.539 0 01.569-.55c.32.019.672-.005 1.025-.103.514-.143.81-.438.71-.798-.094-.342-.444-.478-1.173-.518-1.055-.057-1.838-.325-2.081-1.198-.221-.792.165-1.568 1.077-2.024l-.238-.856.884-.245.221.792a4.04 4.04 0 01.855-.11.54.54 0 11-.004 1.08 2.9 2.9 0 00-.823.108c-.586.162-.705.467-.635.72.083.296.451.398 1.297.473 1.178.08 1.748.456 1.974 1.266.223.8-.155 1.642-1.141 2.11l.255.917-.884.247z" fill="#96D9C9"/><path d="M71.305 14.388l1.7.56s2.695-.872 2.96-1.421c.265-.549.34-1.88.724-1.916.383-.036 1.124.088 1.301.999.129.66-.841 2.572-.69 2.775.095.128 1.063.477 1.774.721.468.16.805.572.877 1.068v.001a.729.729 0 01-.456.783l-.489.188.157.504a.729.729 0 01-.461.904l-.378.127.12.307a.728.728 0 01-.47.962l-.33.097.013.088a.727.727 0 01-.53.814l-.328.086-4.528-1.492a3.238 3.238 0 01-1.147-.665l-1.503-.792a.373.373 0 01-.176-.453l1.394-4.009a.373.373 0 01.466-.236z" fill="#FAE0B2"/><path d="M124.047 95.07s-.217 2.697-.041 3.574c.095.47.619 1.436.379 1.878-.241.442-.516.552-.516.552l-6.24.099c-.34.005-.115-.209.159-.407.449-.324.811-.538 2.244-1.218.093-.045.434-.257.557-.33.311-.187.624-.481.893-.775.448-.49.487-2.866.487-2.866l2.078-.508z" fill="#FCAD95"/><path d="M119.169 59.208s-2.682-1.32-2.167 1.55c.516 2.872 4.446 35.168 4.446 35.168l3.681.204s.47-10.767.367-12.313c-.103-1.546-.713-3.939-.713-3.939l-.312-9.552-3.472-11.794-1.83.676z" fill="#355389"/><path d="M120.588 99.216c1.65.415 2.871.133 3.553-.137.176.49.409 1.104.286 1.459-.152.434-.349.626-.54.631-1.507.039-5.54-.003-6.69.012a.184.184 0 01-.145-.303c.284-.335 3.412-1.589 3.536-1.662z" fill="#3C8F7C"/><path d="M117.002 39.798s-2.267-4.358-2.619-5.957c-.352-1.6-1.57-9.655-1.468-10.174.102-.519 2.029-1.768 1.792-2.208-.238-.441-2.074-.442-2.494-.405-.42.038-1.265.282-1.626.58-.362.298.407 9.952.636 12.03.229 2.079 3.047 8.479 3.047 8.479l2.732-2.345zm17.671 33.96s1.871-1.959 2.288-2.75c.223-.424.425-1.504.89-1.696.466-.192.749-.104.749-.104l4.909 3.85c.267.209-.042.235-.381.216-.553-.03-.969-.092-2.511-.466-.101-.024-.499-.073-.641-.093-.359-.051-.787-.02-1.182.04-.657.098-2.187 1.919-2.187 1.919l-1.934-.916z" fill="#FCAD95"/><path d="M139.975 72.715c-1.019-1.361-2.145-1.91-2.845-2.129.172-.491.361-1.133.681-1.33.391-.242.661-.192.812-.076 1.196.919 4.324 3.431 5.226 4.143.126.1.079.298-.078.327-.433.08-3.654-.916-3.796-.935z" fill="#3C8F7C"/><path d="M134.717 38.472c-1.164-2.439-3.744-3.781-6.243-3.132-.896-1.212-2.283-2.06-3.726-2.263-2.846-.403-6.518.976-6.144 3.942-.898 2.076-.679 4.935 1.118 6.337-.33 2.727 2.409 5.147 5.65 4.82 1.304 1.798 3.571 2.852 5.691 2.441.509-.099 1.282-.284 1.415-.26-.166-.02 3.697 2.507 6.361-1.992 2.72-4.59.043-9.721-4.122-9.893z" fill="#FF391D"/><path d="M118.089 60.248s6.016-2.67 6.111-2.366c.754 2.426 3.1 1.643 4.493 5.916.583 1.789 1.182 13.69 1.182 13.69s2.372-1.966 5.762-5.4c.26-.264 2.809 2.156 2.809 2.156-6.728 9.078-9.631 9.551-10.754 9.043-2.344-1.06-7.289-15.902-7.282-15.9-.592-1.155-2.321-7.14-2.321-7.14z" fill="#466EB6"/><path d="M128.062 43.483s8.696-.01 10.558-.118c1.685-.097 8.367.072 8.629.042.261-.03 1.988-2.95 2.275-2.638.288.314-.961 1.45-.575 1.743.387.295 4.533-.365 4.478-.059-.103.573-2.522.5-2.519.777.002.276 2.532-.155 2.704.304.171.46-2.434.187-2.538.392-.104.205 2.417.58 2.159 1.007-.141.232-2.233-.388-2.223-.071.01.316 1.537 1.035 1.35 1.287-.188.251-1.198-.773-2.084-.785-.886-.013-1.52-.475-2.935-.087-.699.191-6.03.841-10.535 1.226-4.619.395-8.404.52-8.404.52l-.34-3.54z" fill="#FCAD95"/><path d="M115.169 49.62c-.115-1.393.16-2.467.223-2.93-.422-1.447-1.321-4.537-1.644-5.144 0 0 1.514-2.905 3.064-2.885 0 0 1.583 3.562 2.806 4.2.018-.004.433.185.616.183 1.181-.008 5.31-.133 6.08-.147l-.434 5.849c-2.991 5.856-2.181 8.93-1.043 10.066.535.534-7.466 2.704-7.834 1.947-.434-.893-1.6-8.32-1.834-11.138z" fill="#FFE55A"/><path d="M124.216 43.118c.762-.363 6.272-.181 6.272-.181s.771 3.831.148 4.753c0 0-4.927.732-4.787 1.135l-1.633-5.707z" fill="#FFE55A"/><path d="M122.771 40.656s-.096 2.09.001 2.96c.098.87-.894 2.911-2.742 2.947-1.847.035-.271-1.958-.109-2.815.162-.857.356-4.21.356-4.21l2.494 1.118z" fill="#FCAD95"/><path d="M120.277 39.538s-.045.779-.11 1.681c.583.694 1.478 1.05 2.567.627.012-.647.037-1.19.037-1.19l-2.494-1.118z" fill="#F47458"/><path d="M122.924 34.428s1.046.313 1.634 1.358c.587 1.045.834 4.02-1.422 5.245-2.256 1.225-3.802-.834-3.699-2.731.102-1.899.684-4.401 3.487-3.872z" fill="#FCAD95"/><path d="M118.983 37.671c.153.47.499.78.774.691.274-.089.372-.542.219-1.012s-.499-.78-.772-.691c-.276.09-.374.542-.221 1.012z" fill="#FCAD95"/><path d="M122.61 34.344s1.146 3.127 2.317 3.48c1.172.353 1.049 1.879 1.049 1.879s.217-3.528-.843-4.414c-1.059-.885-2.523-.945-2.523-.945z" fill="#FF391D"/><path d="M124.411 38.423c-.19.482-.081.977.245 1.106.326.128.745-.158.936-.64.19-.482.081-.977-.245-1.106-.326-.129-.746.158-.936.64z" fill="#FCAD95"/><path d="M110.261 22.38s2.548.11 2.847.11c.299 0 1.169-.898 1.169-.898l-4.016.787z" fill="#F47458"/><path d="M112.675 22.25c5.329-1.2 8.674-6.485 7.473-11.806-1.201-5.32-6.494-8.661-11.822-7.462-5.328 1.2-8.674 6.485-7.473 11.806 1.201 5.32 6.494 8.661 11.822 7.462z" fill="#FFF4B3"/><path d="M117.296 7.854a8.28 8.28 0 01-2.025 11.543 8.306 8.306 0 01-11.56-2.022 8.28 8.28 0 012.025-11.544c3.751-2.629 8.927-1.724 11.56 2.023z" fill="#FFE55A"/><path d="M111.461 18.442l-.361-1.335a6.78 6.78 0 01-1.768.155.842.842 0 01-.799-.83l-.001-.053a.841.841 0 01.893-.851 4.9 4.9 0 001.598-.15c.803-.217 1.268-.674 1.116-1.236-.145-.534-.687-.75-1.824-.82-1.643-.1-2.862-.524-3.231-1.888-.335-1.237.275-2.442 1.701-3.144l-.362-1.336 1.38-.372.335 1.237c.518-.116.957-.16 1.334-.162a.842.842 0 11-.017 1.683 4.473 4.473 0 00-1.285.159c-.915.247-1.104.72-.998 1.114.126.463.699.625 2.017.752 1.835.138 2.72.729 3.063 1.994.339 1.25-.259 2.559-1.801 3.277l.388 1.433-1.378.373z" fill="#FFF4B3"/><path d="M113.107 22.49l1.052-.944s-.497-.593-.29-.706c.335-.185.91.53.858.704-.052.174-.668.735-.668.735l-.952.21z" fill="#FCAD95"/><path d="M62.138 56.326l19.38 25.527-22.833 8.317 3.453-33.844z" fill="#F88950"/><path d="M43.886 42.725s13.062 8.384 17.96 13.276c4.898 4.891 4.516 35.828 4.516 35.828l-4.654 45.103H15.801s-8.65-84.309-4.102-88.85c2.944-2.94 9.797-5.1 14.266-6.257a20.435 20.435 0 017.864-.462l10.057 1.362z" fill="#FFAB4B"/><path d="M43.113 59.295c.322-.888 1.826 2.278 1.826 2.278 1.808 9.844 4.31 58.719 2.736 64.909-1.574 6.19-2.807 8.253-3.611 8.511-.804.257-2.871-6.706-3.646-9.027-.774-2.32.563-60.784 2.695-66.67z" fill="#FF391D"/><path d="M46.08 55.47c.301 3.567-1.093 6.37-1.093 6.37-1.808.215-2.37-.171-2.37-.171-2.632-3.583-1.616-7.416-1.616-7.416 3.659-1.793 4.089-1.706 4.089-1.706 1.206 1.935.99 2.923.99 2.923z" fill="#FF391D"/><path d="M12.07 47.735c.068-.06.137-.121.208-.18.039-.033.08-.065.12-.097.065-.053.13-.108.199-.16.044-.035.09-.068.136-.102l.202-.15.149-.106.205-.143c.053-.035.108-.071.16-.107l.21-.136.171-.108c.071-.044.142-.088.214-.13l.18-.108.22-.127.19-.106.222-.122.198-.107c.075-.04.151-.08.227-.118l.204-.105.234-.116c.068-.034.137-.069.207-.102a22.424 22.424 0 01.45-.213c.083-.039.168-.077.252-.115l.206-.094.277-.121.188-.082c.144-.062.288-.123.433-.183l.037-.015a.016.016 0 01.004.004s3.712-2.034 7.082 11.84c3.37 13.872-.909 30.75.584 32.241 1.494 1.491 34.303-.2 34.303-.2s-29.224 16.772-33.117 23.996l-6.888 24.569H15.8s-8.65-84.308-4.102-88.85c.09-.09.182-.178.279-.266l.093-.081z" fill="#F88950"/><path d="M94.678 77.113l-16.474 31.084a2.098 2.098 0 01-1.977 1.118l-19.571-1.152c-1.403-.083-2.333-1.507-1.857-2.844l10.093-28.376a2.107 2.107 0 011.856-1.403L92.7 73.985c1.642-.098 2.755 1.662 1.978 3.128z" fill="#271798"/><path d="M53.248 105.164L63.47 77.052a2.127 2.127 0 011.878-1.39l1.014-.06c-.59.21-1.068.675-1.286 1.282l-10.222 28.377a2.127 2.127 0 001.52 2.792l-1.244-.072c-1.422-.082-2.363-1.492-1.882-2.817z" fill="#161052"/><path d="M16.363 85.891l1.555 5.584s33.12-8.535 37.008-10.398c3.145-1.507 15.647-4.846 20.302-4.522.758.053.856 1.12.118 1.298-2.93.704-8.758 2.178-8.758 2.759 0 .776 5.867 1.92 5.442 2.872-.855 1.922-3.731 3.028-4.276 4.814-.544 1.785-6.498.387-8.536.387-2.038 0-39.824 22.903-51.252 17.469-11.43-5.435-4.51-29.541-4.51-29.541l12.907 9.278zm62.108 11.956c.758-.757.719-2.62 1.594-3.494.874-.873 1.827.893 2.06-1.087.234-1.98-1.166-5.046.195-4.89 1.36.155 3.227 5.745 3.227 5.745.98 2.28-3.421 10.792-5.75 10.212-2.328-.581-3.23-3.341-3.23-4.622-.001-1.282 1.146-1.107 1.904-1.864z" fill="#FCAD95"/><path d="M51.467 47.834c.535 2.144 1.065 5.764.642 8.05-.584 3.144-1.808 4.133-3.557 3.434-1.75-.698-5.035-5.354-5.782-5.094-.749.261-5.822 6.608-8.272 5.619-1.646-.666-6.585-11.463-9.06-17.88l.527-.14a20.435 20.435 0 017.864-.46l10.057 1.361c.023.015 3.73 2.407 7.581 5.11z" fill="#fff"/><path d="M51.467 36.901l-2.216 11.064s-2.099 6.289-6.181 6.289-10.708-13.09-10.708-13.09l9.553-12.53 9.552 8.267z" fill="#FCAD95"/><path d="M51.467 36.901l-2.216 11.064s-2.099 6.289-6.181 6.289-10.708-13.09-10.708-13.09l7.335-9.738 1.515-3.227L51.467 36.9z" fill="#FCAD95"/><path opacity=".4" d="M39.59 31.685l1.624-3.486 10.253 8.703-1.195 5.964c-5.132-.976-9.839-5.223-10.683-11.181z" fill="#F26E5A"/><path d="M61.496 12.155s1.866 25.212-5.482 27.483c-7.347 2.271-16.56-3.145-16.56-11.645 0-8.501 3.266-25.563 22.042-15.838z" fill="#FCAD95"/><path d="M54.733 6.449S68.61 3.596 69.077 7.614c.467 4.017-4.241 6.58-7.368 6.58-3.128 0-11.029-1.078-13.682 1.571-2.654 2.65-8.27 15.699-8.27 15.699l-2.504 3.21c-.026.035-.345-.474-.386-1.017-.07-.939-.337-6.189-3.243-10.38-3.15-4.542-.56-11.685 3.23-16.402 3.792-4.716 14.788-.426 17.879-.426z" fill="#AF683B"/><path d="M44.687 22.412s-.993-3.593-2.945-3.26c-4.428.76-1.9 8.727-.495 9.058 2.857.672 4.22-1.509 3.44-5.798z" fill="#FCAD95"/><path d="M23.976 58.8c.119 6.914-2.989 25.083-4.02 30.9a2.147 2.147 0 01-2.18 1.772c-4.523-.135-15.846-.584-16.963-1.7-1.4-1.397 3.087-38.274 10.778-43.441 9.187-6.173 12.245 4.476 12.385 12.468z" fill="#FFAB4B"/></svg><svg fill="none" viewBox="0 0 74 74" id="icon__advantages--1" xmlns="http://www.w3.org/2000/svg"><g clip-path="url(#fa)"><path d="M36.884 73.767C16.544 73.767 0 57.22 0 36.884 0 16.547 16.544 0 36.884 0 57.22 0 73.767 16.544 73.767 36.884S57.22 73.767 36.884 73.767zm0-72.354c-19.56 0-35.472 15.911-35.472 35.47 0 19.56 15.912 35.472 35.472 35.472 19.56 0 35.47-15.912 35.47-35.471 0-19.56-15.91-35.471-35.47-35.471z" fill="#45C8DA"/><path d="M27.321 32.713l-4.35-7.723L51.966 8.652l8.803 15.625-4.45 2.507-10.523 5.93" stroke="#000" stroke-width="1.521" stroke-miterlimit="10" stroke-linejoin="round"/><path d="M40.005 32.805l.466-.261 12.406-6.988 1.896-1.07a1.868 1.868 0 01.71-2.543l-4.26-7.56a1.869 1.869 0 01-2.542-.71L28.967 24.779a1.868 1.868 0 01-.71 2.542l3.037 5.389" stroke="#000" stroke-width="1.521" stroke-miterlimit="10" stroke-linejoin="round"/><path d="M34.482 28.797l2.222-1.253m10.328-5.82l2.225-1.253" stroke="#000" stroke-width="1.521" stroke-miterlimit="10"/><path d="M43.138 26.883c1.174-.662 1.558-2.206.857-3.45-.7-1.244-2.22-1.716-3.395-1.054-1.174.662-1.557 2.206-.857 3.45.701 1.243 2.221 1.715 3.395 1.054zm-30.14 30.383V32.908h41.256v24.358M13 32.907c0-1.709 1.61-3.093 3.598-3.093h6.374" stroke="#000" stroke-width="1.521" stroke-miterlimit="10" stroke-linejoin="round"/><path d="M54.253 57.266c0 1.709-1.61 3.093-3.598 3.093H16.593c-1.988 0-3.598-1.384-3.598-3.093M54.253 41.22H38.377v7.733h15.876V41.22z" stroke="#000" stroke-width="1.521" stroke-miterlimit="10" stroke-linejoin="round"/><path d="M18.133 36.93v2.118" stroke="#000" stroke-width="1.521" stroke-linejoin="round"/><path d="M18.132 44.105v7.585" stroke="#000" stroke-width="1.521" stroke-linejoin="round" stroke-dasharray="10.89 10.89"/><path d="M18.132 54.218v2.12" stroke="#000" stroke-width="1.521" stroke-linejoin="round"/></g><defs><clipPath id="fa"><path fill="#fff" d="M0 0h73.767v73.767H0z"/></clipPath></defs></svg><svg fill="none" viewBox="0 0 74 74" id="icon__advantages--2" xmlns="http://www.w3.org/2000/svg"><path d="M36.884 73.767C16.544 73.767 0 57.22 0 36.884 0 16.544 16.544 0 36.884 0s36.883 16.544 36.883 36.884c0 20.336-16.547 36.883-36.883 36.883zm0-72.355c-19.56 0-35.472 15.912-35.472 35.472 0 19.56 15.912 35.47 35.472 35.47 19.56 0 35.47-15.91 35.47-35.47S56.44 1.412 36.885 1.412z" fill="#45C8DA"/><path d="M45.045 17.73h-6.06a.708.708 0 01-.706-.706v-2.373c0-.388.318-.706.706-.706h6.06c.388 0 .706.318.706.706v2.373a.706.706 0 01-.706.706zm-5.354-1.412h4.647v-.96h-4.647v.96zm2.324 31.728a14.103 14.103 0 01-11.7-6.219l1.17-.79a12.688 12.688 0 0010.526 5.596c7 0 12.695-5.696 12.695-12.694 0-6.519-5.081-12.074-11.568-12.642a.71.71 0 01-.646-.703V18.24h1.412v1.723c7.006.932 12.215 6.83 12.215 13.977.003 7.779-6.325 14.107-14.104 14.107z" fill="#000"/><path d="M30.468 28.66l-1.286-.59a14.14 14.14 0 0110.94-8.111v-1.724h1.412v2.356c0 .367-.279.67-.646.702a12.723 12.723 0 00-10.42 7.366zm21.264-7.198l-1.55 1.83 1.077.913 1.55-1.83-1.077-.913z" fill="#000"/><path d="M51.47 20.31l-.914 1.077 2.524 2.14.913-1.078-2.523-2.14zm-9.455 24.929v-1.413c5.452 0 9.89-4.435 9.89-9.89h1.413c0 6.232-5.07 11.303-11.303 11.303zm4.137-19.271l-3.648 5.849 1.198.747 3.648-5.849-1.198-.747zM40.33 35.31l-1.507 2.414 1.199.748 1.506-2.415-1.198-.748z" fill="#000"/><path d="M42.014 36.704a2.767 2.767 0 01-2.765-2.765 2.767 2.767 0 012.765-2.765 2.767 2.767 0 012.765 2.765 2.77 2.77 0 01-2.765 2.765zm0-4.121c-.745 0-1.352.607-1.352 1.352 0 .745.607 1.353 1.352 1.353.745 0 1.353-.608 1.353-1.353s-.607-1.352-1.352-1.352zM31.537 48.66l-1.387-.254c1.366-7.483-1.642-11.928-1.67-11.97a.71.71 0 01-.011-.792c1.049-1.603.978-8.22.173-8.937-.473-.343-1.169-.417-1.727-.188a1.28 1.28 0 00-.802 1.032c-.137.882-.558 2.136-1.045 3.587-.537 1.6-1.147 3.412-1.434 4.955-.53 2.842-.47 5.597-.47 5.625a.707.707 0 01-.18.487l-2.736 3.062-1.052-.94 2.553-2.856c-.004-.798.035-3.154.494-5.633.304-1.638.933-3.503 1.483-5.145.449-1.33.869-2.588.986-3.35a2.694 2.694 0 011.649-2.12c1.006-.42 2.224-.285 3.1.347 1.653 1.193 1.434 8.04.4 10.43.755 1.272 2.937 5.74 1.676 12.66zm-1.377 6.639l-1.017-.978 2.645-2.747.374.07c.025.004 2.737.488 5.05-.67 2.408-1.205 3.64-2.088 4.124-3.86l1.363.37c-.617 2.264-2.182 3.415-4.855 4.75-2.21 1.105-4.626.964-5.555.85L30.16 55.3z" fill="#000"/><path d="M28.518 59.614l-1-1 2.511-2.513-11.515-11.516L16 47.096l-1-1 3.013-3.011a.708.708 0 01.999 0l12.515 12.514a.708.708 0 010 1l-3.009 3.015z" fill="#000"/><path d="M25.277 52.87l-.999.999 2.585 2.584.998-.998-2.584-2.585z" fill="#000"/></svg><svg fill="none" viewBox="0 0 74 74" id="icon__advantages--3" xmlns="http://www.w3.org/2000/svg"><g clip-path="url(#ha)"><path d="M36.884 73.767C16.544 73.767 0 57.22 0 36.884 0 16.547 16.544 0 36.884 0s36.883 16.547 36.883 36.884c0 20.336-16.547 36.883-36.883 36.883zm0-72.355c-19.56 0-35.472 15.912-35.472 35.472 0 19.56 15.912 35.47 35.472 35.47 19.56 0 35.47-15.91 35.47-35.47S56.445 1.412 36.885 1.412z" fill="#45C8DA"/><path d="M22.604 40.68c-3.299-9.104-2.578-17.346-2.546-17.692a.71.71 0 01.614-.635c.102-.015 10.392-1.342 16.466-5.52a.707.707 0 01.802 0c1.292.887 2.874 1.716 4.707 2.462l-.533 1.31c-1.745-.71-3.28-1.494-4.577-2.338-5.583 3.637-13.842 5.07-16.113 5.406-.099 1.992-.208 9.047 2.5 16.526l-1.32.48zm14.94 17.818a.718.718 0 01-.35-.092 31.863 31.863 0 01-7.5-5.925l1.035-.964a30.477 30.477 0 006.818 5.46c10.435-6.15 14.183-16.372 15.485-23.907l1.391.24c-1.37 7.917-5.346 18.694-16.523 25.093a.74.74 0 01-.356.095z" fill="#000"/><path d="M44.373 49.89l-1.045-.954c1.85-2.027 3.394-4.4 4.587-7.056l1.29.58c-1.255 2.79-2.879 5.29-4.832 7.43zm-3.153 2.93l-.876-1.109a25.244 25.244 0 001.882-1.642l.982 1.017a25.884 25.884 0 01-1.988 1.734zM22.85 29.87c-.176-2.672-.02-4.4-.014-4.474a.71.71 0 01.615-.635c.046-.007 4.65-.597 9.079-2.267l.498 1.32c-3.701 1.399-7.416 2.052-8.821 2.268-.032.695-.06 2.002.05 3.697l-1.406.092zm-5.219 25.153l-1.123-.854 14.556-19.104a.704.704 0 01.989-.134l3.934 2.998 10.275-13.49-2.793-2.129a.705.705 0 01-.272-.656.715.715 0 01.435-.562l12.797-5.18a.707.707 0 01.692.091.7.7 0 01.272.643l-1.59 13.723a.705.705 0 01-1.126.48l-2.793-2.13-14.128 18.546a.709.709 0 01-.99.135l-3.933-2.998-6.402 8.404-1.123-.855 6.826-8.965a.709.709 0 01.989-.135l3.934 2.998 14.128-18.546a.709.709 0 01.989-.134l2.37 1.805 1.313-11.3-10.544 4.269 2.369 1.804c.31.237.37.678.134.99l-11.13 14.611a.709.709 0 01-.989.135l-3.934-2.998-14.132 18.538z" fill="#000"/></g><defs><clipPath id="ha"><path fill="#fff" d="M0 0h73.767v73.767H0z"/></clipPath></defs></svg><svg fill="none" viewBox="0 0 74 74" id="icon__advantages--4" xmlns="http://www.w3.org/2000/svg"><g clip-path="url(#ia)"><path d="M36.884 73.767C16.544 73.767 0 57.22 0 36.884 0 16.544 16.544 0 36.884 0 57.22 0 73.767 16.544 73.767 36.884c0 20.336-16.547 36.883-36.883 36.883zm0-72.355c-19.56 0-35.472 15.912-35.472 35.472 0 19.56 15.912 35.47 35.472 35.47 19.56 0 35.47-15.91 35.47-35.47S56.445 1.412 36.885 1.412z" fill="#45C8DA"/><path d="M14.66 36.495h-1.732c0-13.21 10.746-23.955 23.955-23.955a23.955 23.955 0 0121.064 12.538l-1.524.827A22.23 22.23 0 0036.879 14.27c-12.252 0-22.219 9.971-22.219 22.224zm22.223 23.959a23.939 23.939 0 01-12.006-3.22l.87-1.499a22.224 22.224 0 0011.136 2.988c12.253 0 22.224-9.971 22.224-22.224h1.732c0 13.21-10.746 23.955-23.956 23.955z" fill="#000"/><path d="M49.504 48.033l-1.277-1.169a15.328 15.328 0 004.022-10.365c0-3.2-1.009-6.33-2.853-8.923l-13.08 13.075a.868.868 0 01-1.225 0l-5.429-5.43 1.225-1.224 4.82 4.819 13.144-13.14a.868.868 0 011.334.074 17.145 17.145 0 013.8 10.75 17.068 17.068 0 01-4.48 11.533z" fill="#000"/><path d="M36.883 53.596c-9.43 0-17.101-7.671-17.101-17.101s7.672-17.102 17.101-17.102v1.732c-8.473 0-15.37 6.893-15.37 15.37 0 8.473 6.893 15.37 15.37 15.37 1.758 0 3.486-.295 5.127-.875l.575 1.632c-1.827.65-3.745.974-5.702.974z" fill="#000"/><path d="M36.883 47.102c-5.849 0-10.607-4.758-10.607-10.607 0-5.85 4.758-10.607 10.607-10.607a10.5 10.5 0 016.226 2.021l-1.017 1.403a8.805 8.805 0 00-5.209-1.688c-4.892 0-8.875 3.978-8.875 8.875 0 4.892 3.979 8.876 8.875 8.876 4.893 0 8.876-3.98 8.876-8.876a8.851 8.851 0 00-.576-3.148l1.62-.614c.454 1.199.683 2.463.683 3.758 0 5.853-4.754 10.607-10.603 10.607z" fill="#000"/></g><defs><clipPath id="ia"><path fill="#fff" d="M0 0h73.767v73.767H0z"/></clipPath></defs></svg><svg fill="none" viewBox="0 0 31 31" id="icon__arrow" xmlns="http://www.w3.org/2000/svg"><circle cx="15.5" cy="15.5" r="15.5" fill="#45C8DA"/><path d="M4.234 15.729h19.894M16.56 7.714l7.674 8-7.674 8" stroke="#fff" stroke-width="1.5"/></svg><svg viewBox="0 0 1000 1000" id="icon__tg" xmlns="http://www.w3.org/2000/svg"><defs><linearGradient x1="50%" y1="0%" x2="50%" y2="99.258%" id="ka"><stop stop-color="#2AABEE" offset="0%"/><stop stop-color="#229ED9" offset="100%"/></linearGradient></defs><g fill="none" fill-rule="evenodd"><circle fill="url(#ka)" cx="500" cy="500" r="500"/><path d="M226.328 494.722c145.76-63.505 242.957-105.372 291.59-125.6 138.855-57.755 167.707-67.787 186.513-68.118 4.137-.073 13.385.952 19.375 5.813 5.059 4.104 6.45 9.649 7.117 13.54.666 3.892 1.495 12.757.836 19.684-7.525 79.061-40.084 270.924-56.648 359.474-7.009 37.47-20.81 50.033-34.17 51.262-29.036 2.672-51.085-19.189-79.208-37.624-44.006-28.847-68.867-46.804-111.583-74.953-49.366-32.531-17.364-50.411 10.77-79.631C468.281 550.92 596.214 434.556 598.69 424c.31-1.32.597-6.241-2.326-8.84-2.924-2.598-7.239-1.71-10.353-1.003-4.413 1.002-74.714 47.468-210.902 139.4-19.955 13.702-38.03 20.378-54.223 20.028-17.853-.386-52.194-10.094-77.723-18.393-31.313-10.178-56.2-15.56-54.032-32.846 1.128-9.003 13.527-18.211 37.196-27.624z" fill="#FFF"/></g></svg><svg fill="none" viewBox="0 0 50 50" id="logo" xmlns="http://www.w3.org/2000/svg"><path d="M0 50h38.04C44.644 50 50 44.646 50 38.04V0H11.96C5.354 0 0 5.354 0 11.96V50z" fill="#45C8DA"/><path d="M29.61 19.39v1h10.594v9.22H29.609v10.594h-9.218V29.609H9.796v-9.218h10.595V9.796h9.218v9.595z" stroke="#fff" stroke-width="2" stroke-miterlimit="10"/></svg><svg fill="none" viewBox="0 0 74 74" id="rating--1" xmlns="http://www.w3.org/2000/svg"><path d="M36.8 73.6C16.506 73.6 0 57.09 0 36.8 0 16.51 16.506 0 36.8 0c20.29 0 36.8 16.506 36.8 36.8 0 20.294-16.51 36.8-36.8 36.8zm0-72.19C17.285 1.41 1.41 17.284 1.41 36.8S17.284 72.191 36.8 72.191s35.391-15.876 35.391-35.39c0-19.516-15.876-35.392-35.39-35.392z" fill="#45C8DA"/><g clip-path="url(#ma)" fill="#000"><path d="M41.2 19.976h-7.497a.887.887 0 01-.873-.895v-3.01c0-.493.393-.896.873-.896H41.2c.48 0 .874.403.874.896v3.01a.885.885 0 01-.874.895zm-6.623-1.791h5.749v-1.218h-5.75v1.218zm2.875 40.24C27.828 58.425 20 50.4 20 40.533c0-8.912 6.574-16.544 15.11-17.726v-1.348h1.748v2.145a.885.885 0 01-.8.891c-8.025.726-14.31 7.766-14.31 16.038 0 8.877 7.046 16.1 15.704 16.1 8.658 0 15.704-7.223 15.704-16.1 0-8.267-6.286-15.312-14.31-16.033a.888.888 0 01-.8-.891V20.62h1.747v2.186c8.671 1.178 15.11 8.662 15.11 17.726 0 9.866-7.828 17.892-17.451 17.892z"/><path d="M49.477 24.71l-1.918 2.32 1.333 1.158 1.918-2.32-1.333-1.158z"/><path d="M49.147 23.246l-1.13 1.367 3.122 2.714 1.13-1.367-3.122-2.714zM37.452 54.864v-1.79c6.745 0 12.236-5.626 12.236-12.545h1.747c0 7.904-6.273 14.335-13.983 14.335zm5.12-24.44l-4.513 7.418 1.483.948 4.512-7.418-1.482-.948z"/><path d="M37.452 44.035c-1.887 0-3.42-1.572-3.42-3.506 0-1.935 1.533-3.507 3.42-3.507s3.42 1.572 3.42 3.507c0 1.934-1.533 3.506-3.42 3.506zm0-5.222c-.922 0-1.673.77-1.673 1.715 0 .945.751 1.716 1.673 1.716s1.673-.77 1.673-1.715c0-.946-.751-1.716-1.673-1.716z"/></g><defs><clipPath id="ma"><path fill="#fff" transform="translate(20 15.175)" d="M0 0h34.903v43.25H0z"/></clipPath></defs></svg><svg fill="none" viewBox="0 0 74 74" id="rating--2" xmlns="http://www.w3.org/2000/svg"><path d="M36.8 73.6C16.506 73.6 0 57.09 0 36.8 0 16.506 16.506 0 36.8 0c20.294 0 36.8 16.506 36.8 36.8 0 20.29-16.51 36.8-36.8 36.8zm0-72.19C17.285 1.41 1.41 17.284 1.41 36.8S17.284 72.191 36.8 72.191s35.391-15.876 35.391-35.39c0-19.516-15.88-35.392-35.39-35.392z" fill="#45C8DA"/><g clip-path="url(#na)" fill="#000"><path d="M18 53.953c0 1.211.985 2.196 2.195 2.196h21.276c1.21 0 2.196-.985 2.196-2.196V32.701a5.485 5.485 0 00-5.48-5.48h-1.846v-3.64h2.632a.62.62 0 00.62-.62v-4.889a.62.62 0 00-.62-.62H22.69a.62.62 0 00-.621.62v4.885c0 .345.28.621.62.621h2.637v3.64h-1.847A5.493 5.493 0 0018 32.7v21.252zm18.34-35.256h2.012v3.64h-2.011v-3.64zm-3.256 0h2.012v3.64h-2.012v-3.64zm-3.257 0h2.012v3.64h-2.011v-3.64zm-3.256 0h2.011v3.64h-2.011v-3.64zm0 4.885h8.525v3.64H26.57v-3.64zm-3.257-1.245v-3.64h2.012v3.64h-2.012zm-4.069 14.272h13.41v13.41h-13.41v-13.41zm0 14.655h14.03a.62.62 0 00.622-.621V35.984a.62.62 0 00-.621-.62h-14.03v-2.012H35.72a.62.62 0 100-1.241H19.28l.046-.23a4.242 4.242 0 014.153-3.41h14.709c2.337 0 4.233 1.9 4.233 4.233v21.25a.95.95 0 01-.95.95H20.195a.95.95 0 01-.95-.95v-2.69z"/><path d="M24.322 48.007h3.257a.62.62 0 00.62-.62v-1.82h1.82a.62.62 0 00.621-.621v-3.257a.624.624 0 00-.62-.625H28.2v-1.82a.62.62 0 00-.621-.62h-3.257a.62.62 0 00-.62.62v1.82h-1.82a.622.622 0 00-.621.625v3.257c0 .344.28.62.62.62h1.82v1.82a.618.618 0 00.621.62zm-1.82-3.69v-2.011h1.82c.345 0 .625-.28.625-.62v-1.82h2.011v1.82c0 .344.28.62.62.62h1.82v2.011h-1.82c-.344 0-.62.28-.62.625v1.82h-2.011v-1.82a.625.625 0 00-.625-.625h-1.82zm28.126-26.865a3.869 3.869 0 00-2.965 1.379 3.876 3.876 0 00-.862 3.153l.923 5.418c.092.548.146.843.153 1.007l.02-.003 1.095 6.421a3.867 3.867 0 003.82 3.226c1.15 0 2.23-.502 2.97-1.38a3.87 3.87 0 00.858-3.153l-2.192-12.842a3.867 3.867 0 00-3.82-3.226zm-2.601 4.321a2.636 2.636 0 015.195-.885l.992 5.809-5.191.885-.996-5.809zm6.8 14.1a2.635 2.635 0 01-4.609-1.257l-.992-5.808 5.191-.885.993 5.808a2.623 2.623 0 01-.583 2.142zm-3.639 9.26a5.515 5.515 0 00-5.51 5.506 5.52 5.52 0 005.51 5.51 5.518 5.518 0 005.51-5.51 5.512 5.512 0 00-5.51-5.506zm-.62 9.732l-.23-.046a4.273 4.273 0 01-3.41-4.176 4.273 4.273 0 013.41-4.176l.23-.05v8.448zm1.474-.05l-.23.046v-8.444l.23.046a4.276 4.276 0 013.41 4.176 4.273 4.273 0 01-3.41 4.176zm-8.18-32.478a2.257 2.257 0 00-2.253 2.253 2.257 2.257 0 002.253 2.252 2.257 2.257 0 002.253-2.252 2.257 2.257 0 00-2.253-2.253zm0 3.256a1.005 1.005 0 111.004-1.007c0 .551-.448 1.007-1.004 1.007zm4.069 13.027a2.256 2.256 0 00-2.253 2.25 2.257 2.257 0 002.253 2.252 2.256 2.256 0 002.253-2.253 2.253 2.253 0 00-2.253-2.249zm0 3.257a1.006 1.006 0 010-2.012c.552 0 1.004.452 1.004 1.004a1.003 1.003 0 01-1.004 1.008z"/></g><defs><clipPath id="na"><path fill="#fff" transform="translate(18 17.452)" d="M0 0h38.697v38.697H0z"/></clipPath></defs></svg><svg fill="none" viewBox="0 0 74 74" id="rating--3" xmlns="http://www.w3.org/2000/svg"><path d="M36.8 73.6C16.506 73.6 0 57.09 0 36.8 0 16.51 16.506 0 36.8 0c20.294 0 36.8 16.51 36.8 36.8 0 20.29-16.51 36.8-36.8 36.8zm0-72.19C17.285 1.41 1.41 17.284 1.41 36.8S17.284 72.191 36.8 72.191s35.391-15.876 35.391-35.39c0-19.516-15.876-35.392-35.39-35.392z" fill="#45C8DA"/><g clip-path="url(#oa)" stroke="#000" stroke-width="1.518" stroke-miterlimit="10" stroke-linecap="round" stroke-linejoin="round"><path d="M55.787 56.475c-3.426 0-6.2-2.747-6.2-6.14V38.012c0-3.394 2.774-6.14 6.2-6.14 3.427 0 6.2 2.746 6.2 6.14v12.321c0 3.394-2.773 6.14-6.2 6.14z"/><path d="M53.544 36.504a2.644 2.644 0 012.284-1.306m6.159 8.975H49.581m-22.965 7.346a19.06 19.06 0 01-2.821.209c-6.044 0-10.945-2.815-10.945-6.282 0-1.091.482-2.114 1.332-3.01 1.856-1.953 5.466-3.272 9.613-3.272.952 0 1.876.067 2.753.202m-7.199 8.632l7.267-4.175"/><path d="M12.85 45.446v5.676c0 3.15 4.901 5.703 10.945 5.703 1.856 0 3.603-.243 5.132-.667m2.013-2.875v-19.97c0-.72.231-1.421.653-1.966l2.902-3.771a2.005 2.005 0 00.204-2.06l-1.264-2.673a4.569 4.569 0 01-.252-3.178l2.448-8.558c.326-1.145 1.271-1.919 2.331-1.919 1.068 0 2.006.774 2.332 1.919l2.44 8.564a4.57 4.57 0 01-.25 3.178l-1.265 2.673a2.022 2.022 0 00.204 2.06l2.903 3.771c.421.546.652 1.246.652 1.966v19.964c0 1.764-1.264 3.198-2.828 3.198h-8.375c-1.564-.007-2.835-1.434-2.835-3.198zm10.367-13.486v7.54m-5.588-15.344l1.196-1.549-1.196 1.549zm-4.78 3.865h14.038"/></g><defs><clipPath id="oa"><path fill="#fff" transform="translate(12 8.346)" d="M0 0h50.837v49.32H0z"/></clipPath></defs></svg><svg fill="none" viewBox="0 0 74 74" id="rating--4" xmlns="http://www.w3.org/2000/svg"><g clip-path="url(#pa)" fill="#171714"><path d="M38.703 51.792h-3.19a.66.66 0 01-.66-.658V48.38h-2.774a.66.66 0 01-.66-.658V44.54a.66.66 0 01.66-.658h2.76V41.13a.66.66 0 01.66-.658h3.19a.66.66 0 01.66.658v2.752h2.76a.66.66 0 01.66.658v3.182a.66.66 0 01-.66.658h-2.76v2.753a.64.64 0 01-.646.658zm-2.518-1.33h1.858V47.71a.66.66 0 01.66-.658h2.76v-1.853h-2.76a.66.66 0 01-.66-.658V41.79h-1.858v2.752a.66.66 0 01-.66.658h-2.773v1.853h2.76a.66.66 0 01.66.658v2.752h.013zm8.98-25.605H29.049a.66.66 0 01-.66-.658V17.35c-.013-.363.297-.658.66-.658h16.116a.66.66 0 01.66.658v6.834a.663.663 0 01-.66.672zm-15.456-1.33h14.783v-5.505H29.709v5.505zm14.217 15.429H30.288a.66.66 0 01-.66-.658.66.66 0 01.66-.658h13.638a.66.66 0 01.66.658.66.66 0 01-.66.657z"/><path d="M56.541 38.955h-3.77a.66.66 0 01-.659-.658.66.66 0 01.66-.658h3.096V24.857H18.333v12.782h3.096a.66.66 0 01.66.658.66.66 0 01-.66.658h-3.77a.66.66 0 01-.659-.658V24.185a.66.66 0 01.66-.658h38.88a.66.66 0 01.66.658v14.112a.643.643 0 01-.66.658z"/><path d="M25.59 24.857h-5.238a.663.663 0 01-.66-.672V21.93c0-.376.297-.672.66-.672h5.237a.66.66 0 01.66.658v2.256a.658.658 0 01-.66.685zm-4.565-1.33h3.905v-.94h-3.905v.94zm32.824 1.33H48.61a.66.66 0 01-.66-.658v-2.27a.66.66 0 01.66-.657h5.238a.66.66 0 01.66.657v2.256a.646.646 0 01-.66.672zm-4.564-1.33h3.904v-.94h-3.904v.94zM28.538 42.728H23.38a.66.66 0 01-.66-.657v-7.157a.66.66 0 01.66-.658h5.17a.66.66 0 01.66.658v7.157a.663.663 0 01-.673.657zM24.04 41.4h3.837v-5.827H24.04V41.4zm26.794 1.328h-5.17a.66.66 0 01-.66-.657v-7.157a.66.66 0 01.66-.658h5.17a.66.66 0 01.66.658v7.157c.013.362-.297.657-.66.657zM46.337 41.4h3.837v-5.827h-3.837V41.4z"/><path d="M55.263 56.908h-36.31a.66.66 0 01-.66-.658V38.298a.66.66 0 011.319 0v17.294h34.977V38.298a.66.66 0 011.32 0V56.25a.64.64 0 01-.646.658z"/></g><path d="M36.8 73.6C16.506 73.6 0 57.09 0 36.8 0 16.506 16.506 0 36.8 0c20.29 0 36.8 16.506 36.8 36.8 0 20.29-16.51 36.8-36.8 36.8zm0-72.19C17.285 1.41 1.41 17.284 1.41 36.8S17.284 72.191 36.8 72.191s35.391-15.876 35.391-35.39c0-19.516-15.876-35.392-35.39-35.392z" fill="#45C8DA"/><defs><clipPath id="pa"><path fill="#fff" transform="translate(17 16.693)" d="M0 0h40.215v40.215H0z"/></clipPath></defs></svg></svg>