<?xml version="1.0" encoding="utf-8"?><svg viewBox="0 0 1000 1000" xmlns="http://www.w3.org/2000/svg" xmlns:xlink="http://www.w3.org/1999/xlink"><style>:root>svg{display:none}:root>svg:target{display:block}</style><svg fill="none" viewBox="0 0 74 74" id="icon__advantages--1" xmlns="http://www.w3.org/2000/svg"><g clip-path="url(#aclip0)"><path d="M36.884 73.767C16.544 73.767 0 57.22 0 36.884 0 16.547 16.544 0 36.884 0 57.22 0 73.767 16.544 73.767 36.884S57.22 73.767 36.884 73.767zm0-72.354c-19.56 0-35.472 15.911-35.472 35.47 0 19.56 15.912 35.472 35.472 35.472 19.56 0 35.47-15.912 35.47-35.471 0-19.56-15.91-35.471-35.47-35.471z" fill="#45C8DA"/><path d="M27.321 32.713l-4.35-7.723L51.966 8.652l8.803 15.625-4.45 2.507-10.523 5.93" stroke="#000" stroke-width="1.521" stroke-miterlimit="10" stroke-linejoin="round"/><path d="M40.005 32.805l.466-.261 12.406-6.988 1.896-1.07a1.868 1.868 0 01.71-2.543l-4.26-7.56a1.869 1.869 0 01-2.542-.71L28.967 24.779a1.868 1.868 0 01-.71 2.542l3.037 5.389" stroke="#000" stroke-width="1.521" stroke-miterlimit="10" stroke-linejoin="round"/><path d="M34.482 28.797l2.222-1.253M47.032 21.724l2.225-1.253" stroke="#000" stroke-width="1.521" stroke-miterlimit="10"/><path d="M43.138 26.883c1.174-.662 1.558-2.206.857-3.45-.7-1.244-2.22-1.716-3.395-1.054-1.174.662-1.557 2.206-.857 3.45.701 1.243 2.221 1.715 3.395 1.054zM12.998 57.266V32.908h41.256v24.358M13 32.907c0-1.709 1.61-3.093 3.598-3.093h6.374" stroke="#000" stroke-width="1.521" stroke-miterlimit="10" stroke-linejoin="round"/><path d="M54.253 57.266c0 1.709-1.61 3.093-3.598 3.093H16.593c-1.988 0-3.598-1.384-3.598-3.093M54.253 41.22H38.377v7.733h15.876V41.22z" stroke="#000" stroke-width="1.521" stroke-miterlimit="10" stroke-linejoin="round"/><path d="M18.133 36.93v2.118" stroke="#000" stroke-width="1.521" stroke-linejoin="round"/><path d="M18.132 44.105v7.585" stroke="#000" stroke-width="1.521" stroke-linejoin="round" stroke-dasharray="10.89 10.89"/><path d="M18.132 54.218v2.12" stroke="#000" stroke-width="1.521" stroke-linejoin="round"/></g><defs><clipPath id="aclip0"><path fill="#fff" d="M0 0h73.767v73.767H0z"/></clipPath></defs></svg><svg fill="none" viewBox="0 0 74 74" id="icon__advantages--2" xmlns="http://www.w3.org/2000/svg"><path d="M36.884 73.767C16.544 73.767 0 57.22 0 36.884 0 16.544 16.544 0 36.884 0s36.883 16.544 36.883 36.884c0 20.336-16.547 36.883-36.883 36.883zm0-72.355c-19.56 0-35.472 15.912-35.472 35.472 0 19.56 15.912 35.47 35.472 35.47 19.56 0 35.47-15.91 35.47-35.47S56.44 1.412 36.885 1.412z" fill="#45C8DA"/><path d="M45.045 17.73h-6.06a.708.708 0 01-.706-.706v-2.373c0-.388.318-.706.706-.706h6.06c.388 0 .706.318.706.706v2.373a.706.706 0 01-.706.706zm-5.354-1.412h4.647v-.96h-4.647v.96zM42.015 48.046a14.103 14.103 0 01-11.7-6.219l1.17-.79a12.688 12.688 0 0010.526 5.596c7 0 12.695-5.696 12.695-12.694 0-6.519-5.081-12.074-11.568-12.642a.71.71 0 01-.646-.703V18.24h1.412v1.723c7.006.932 12.215 6.83 12.215 13.977.003 7.779-6.325 14.107-14.104 14.107z" fill="#000"/><path d="M30.468 28.66l-1.286-.59a14.14 14.14 0 0110.94-8.111v-1.724h1.412v2.356c0 .367-.279.67-.646.702a12.723 12.723 0 00-10.42 7.366zM51.732 21.462l-1.55 1.83 1.077.913 1.55-1.83-1.077-.913z" fill="#000"/><path d="M51.47 20.31l-.914 1.077 2.524 2.14.913-1.078-2.523-2.14zM42.015 45.239v-1.413c5.452 0 9.89-4.435 9.89-9.89h1.413c0 6.232-5.07 11.303-11.303 11.303zM46.152 25.968l-3.648 5.849 1.198.747 3.648-5.849-1.198-.747zM40.33 35.31l-1.507 2.414 1.199.748 1.506-2.415-1.198-.748z" fill="#000"/><path d="M42.014 36.704a2.767 2.767 0 01-2.765-2.765 2.767 2.767 0 012.765-2.765 2.767 2.767 0 012.765 2.765 2.77 2.77 0 01-2.765 2.765zm0-4.121c-.745 0-1.352.607-1.352 1.352 0 .745.607 1.353 1.352 1.353.745 0 1.353-.608 1.353-1.353s-.607-1.352-1.352-1.352zM31.537 48.66l-1.387-.254c1.366-7.483-1.642-11.928-1.67-11.97a.71.71 0 01-.011-.792c1.049-1.603.978-8.22.173-8.937-.473-.343-1.169-.417-1.727-.188-.314.131-.706.417-.802 1.032-.137.882-.558 2.136-1.045 3.587-.537 1.6-1.147 3.412-1.434 4.955-.53 2.842-.47 5.597-.47 5.625a.707.707 0 01-.18.487l-2.736 3.062-1.052-.94 2.553-2.856c-.004-.798.035-3.154.494-5.633.304-1.638.933-3.503 1.483-5.145.449-1.33.869-2.588.986-3.35a2.694 2.694 0 011.649-2.12c1.006-.42 2.224-.285 3.1.347 1.653 1.193 1.434 8.04.4 10.43.755 1.272 2.937 5.74 1.676 12.66zM30.16 55.299l-1.017-.978 2.645-2.747.374.07c.025.004 2.737.488 5.05-.67 2.408-1.205 3.64-2.088 4.124-3.86l1.363.37c-.617 2.264-2.182 3.415-4.855 4.75-2.21 1.105-4.626.964-5.555.85L30.16 55.3z" fill="#000"/><path d="M28.518 59.614l-1-1 2.511-2.513-11.515-11.516L16 47.096l-1-1 3.013-3.011a.708.708 0 01.999 0l12.515 12.514a.708.708 0 010 1l-3.009 3.015z" fill="#000"/><path d="M25.277 52.87l-.999.999 2.585 2.584.998-.998-2.584-2.585z" fill="#000"/></svg><svg fill="none" viewBox="0 0 74 74" id="icon__advantages--3" xmlns="http://www.w3.org/2000/svg"><g clip-path="url(#cclip0)"><path d="M36.884 73.767C16.544 73.767 0 57.22 0 36.884 0 16.547 16.544 0 36.884 0s36.883 16.547 36.883 36.884c0 20.336-16.547 36.883-36.883 36.883zm0-72.355c-19.56 0-35.472 15.912-35.472 35.472 0 19.56 15.912 35.47 35.472 35.47 19.56 0 35.47-15.91 35.47-35.47S56.445 1.412 36.885 1.412z" fill="#45C8DA"/><path d="M22.604 40.68c-3.299-9.104-2.578-17.346-2.546-17.692a.71.71 0 01.614-.635c.102-.015 10.392-1.342 16.466-5.52a.707.707 0 01.802 0c1.292.887 2.874 1.716 4.707 2.462l-.533 1.31c-1.745-.71-3.28-1.494-4.577-2.338-5.583 3.637-13.842 5.07-16.113 5.406-.099 1.992-.208 9.047 2.5 16.526l-1.32.48zM37.544 58.498a.718.718 0 01-.35-.092 31.863 31.863 0 01-7.5-5.925l1.035-.964a30.477 30.477 0 006.818 5.46C47.982 50.827 51.73 40.605 53.032 33.07l1.391.24c-1.37 7.917-5.346 18.694-16.523 25.093a.74.74 0 01-.356.095z" fill="#000"/><path d="M44.373 49.89l-1.045-.954c1.85-2.027 3.394-4.4 4.587-7.056l1.29.58c-1.255 2.79-2.879 5.29-4.832 7.43zM41.22 52.82l-.876-1.109a25.244 25.244 0 001.882-1.642l.982 1.017a25.884 25.884 0 01-1.988 1.734zM22.85 29.87c-.176-2.672-.02-4.4-.014-4.474a.71.71 0 01.615-.635c.046-.007 4.65-.597 9.079-2.267l.498 1.32c-3.701 1.399-7.416 2.052-8.821 2.268-.032.695-.06 2.002.05 3.697l-1.406.092zM17.631 55.023l-1.123-.854 14.556-19.104a.704.704 0 01.989-.134l3.934 2.998 10.275-13.49-2.793-2.129a.705.705 0 01-.272-.656.715.715 0 01.435-.562l12.797-5.18a.707.707 0 01.692.091.7.7 0 01.272.643l-1.59 13.723a.705.705 0 01-1.126.48l-2.793-2.13-14.128 18.546a.709.709 0 01-.99.135l-3.933-2.998-6.402 8.404-1.123-.855 6.826-8.965a.709.709 0 01.989-.135l3.934 2.998 14.128-18.546a.709.709 0 01.989-.134l2.37 1.805 1.313-11.3-10.544 4.269 2.369 1.804c.31.237.37.678.134.99l-11.13 14.611a.709.709 0 01-.989.135l-3.934-2.998-14.132 18.538z" fill="#000"/></g><defs><clipPath id="cclip0"><path fill="#fff" d="M0 0h73.767v73.767H0z"/></clipPath></defs></svg><svg fill="none" viewBox="0 0 74 74" id="icon__advantages--4" xmlns="http://www.w3.org/2000/svg"><g clip-path="url(#dclip0)"><path d="M36.884 73.767C16.544 73.767 0 57.22 0 36.884 0 16.544 16.544 0 36.884 0 57.22 0 73.767 16.544 73.767 36.884c0 20.336-16.547 36.883-36.883 36.883zm0-72.355c-19.56 0-35.472 15.912-35.472 35.472 0 19.56 15.912 35.47 35.472 35.47 19.56 0 35.47-15.91 35.47-35.47S56.445 1.412 36.885 1.412z" fill="#45C8DA"/><path d="M14.66 36.495h-1.732c0-13.21 10.746-23.955 23.955-23.955a23.955 23.955 0 0121.064 12.538l-1.524.827A22.23 22.23 0 0036.879 14.27c-12.252 0-22.219 9.971-22.219 22.224zM36.883 60.454a23.939 23.939 0 01-12.006-3.22l.87-1.499a22.224 22.224 0 0011.136 2.988c12.253 0 22.224-9.971 22.224-22.224h1.732c0 13.21-10.746 23.955-23.956 23.955z" fill="#000"/><path d="M49.504 48.033l-1.277-1.169a15.328 15.328 0 004.022-10.365c0-3.2-1.009-6.33-2.853-8.923l-13.08 13.075a.868.868 0 01-1.225 0l-5.429-5.43 1.225-1.224 4.82 4.819 13.144-13.14a.868.868 0 011.334.074 17.145 17.145 0 013.8 10.75 17.068 17.068 0 01-4.48 11.533z" fill="#000"/><path d="M36.883 53.596c-9.43 0-17.101-7.671-17.101-17.101s7.672-17.102 17.101-17.102v1.732c-8.473 0-15.37 6.893-15.37 15.37 0 8.473 6.893 15.37 15.37 15.37 1.758 0 3.486-.295 5.127-.875l.575 1.632c-1.827.65-3.745.974-5.702.974z" fill="#000"/><path d="M36.883 47.102c-5.849 0-10.607-4.758-10.607-10.607 0-5.85 4.758-10.607 10.607-10.607a10.5 10.5 0 016.226 2.021l-1.017 1.403a8.805 8.805 0 00-5.209-1.688c-4.892 0-8.875 3.978-8.875 8.875 0 4.892 3.979 8.876 8.875 8.876 4.893 0 8.876-3.98 8.876-8.876a8.851 8.851 0 00-.576-3.148l1.62-.614c.454 1.199.683 2.463.683 3.758 0 5.853-4.754 10.607-10.603 10.607z" fill="#000"/></g><defs><clipPath id="dclip0"><path fill="#fff" d="M0 0h73.767v73.767H0z"/></clipPath></defs></svg><svg viewBox="0 0 1000 1000" id="icon__tg" xmlns="http://www.w3.org/2000/svg"><defs><linearGradient x1="50%" y1="0%" x2="50%" y2="99.258%" id="ea"><stop stop-color="#2AABEE" offset="0%"/><stop stop-color="#229ED9" offset="100%"/></linearGradient></defs><g fill="none" fill-rule="evenodd"><circle fill="url(#ea)" cx="500" cy="500" r="500"/><path d="M226.328 494.722c145.76-63.505 242.957-105.372 291.59-125.6 138.855-57.755 167.707-67.787 186.513-68.118 4.137-.073 13.385.952 19.375 5.813 5.059 4.104 6.45 9.649 7.117 13.54.666 3.892 1.495 12.757.836 19.684-7.525 79.061-40.084 270.924-56.648 359.474-7.009 37.47-20.81 50.033-34.17 51.262-29.036 2.672-51.085-19.189-79.208-37.624-44.006-28.847-68.867-46.804-111.583-74.953-49.366-32.531-17.364-50.411 10.77-79.631C468.281 550.92 596.214 434.556 598.69 424c.31-1.32.597-6.241-2.326-8.84-2.924-2.598-7.239-1.71-10.353-1.003-4.413 1.002-74.714 47.468-210.902 139.4-19.955 13.702-38.03 20.378-54.223 20.028-17.853-.386-52.194-10.094-77.723-18.393-31.313-10.178-56.2-15.56-54.032-32.846 1.128-9.003 13.527-18.211 37.196-27.624z" fill="#FFF"/></g></svg><svg fill="none" viewBox="0 0 50 50" id="logo" xmlns="http://www.w3.org/2000/svg"><path d="M0 50h38.04C44.644 50 50 44.646 50 38.04V0H11.96C5.354 0 0 5.354 0 11.96V50z" fill="#45C8DA"/><path d="M29.61 19.39v1h10.594v9.22H29.609v10.594h-9.218V29.609H9.796v-9.218h10.595V9.796h9.218v9.595z" stroke="#fff" stroke-width="2" stroke-miterlimit="10"/></svg></svg>